<?xml version="1.0" encoding="UTF-8" standalone="no"?>
<!DOCTYPE svg PUBLIC "-//W3C//DTD SVG 1.1//EN" "http://www.w3.org/Graphics/SVG/1.1/DTD/svg11.dtd">
<svg width="100%" height="100%" viewBox="0 0 36 36" version="1.1" xmlns="http://www.w3.org/2000/svg" xmlns:xlink="http://www.w3.org/1999/xlink" xml:space="preserve" xmlns:serif="http://www.serif.com/" style="fill-rule:evenodd;clip-rule:evenodd;stroke-linejoin:round;stroke-miterlimit:2;">
    <g transform="matrix(0.457905,0,0,0.458183,3.60028,4.56158)">
        <g transform="matrix(2.67155,0,0,2.67971,39.9854,17.2615)">
            <path d="M0,-4.094C0.659,-5.501 2.19,-6.158 3.613,-6.372C5.554,-6.746 7.209,-5.591 8.135,-4.041C8.954,-2.261 8.615,0.177 7.245,1.602C6.301,2.58 4.947,2.652 3.649,2.652C2.03,2.403 0.393,1.352 -0.355,-0.215C-0.872,-1.175 -0.641,-2.545 -0.195,-3.454L0,-4.094" style="fill:rgb(245,126,37);fill-rule:nonzero;"/>
        </g>
        <g transform="matrix(2.67155,0,0,2.67971,7.36841,36.8823)">
            <path d="M0,-8.829C1.406,-9.38 3.328,-9.985 4.769,-9.183C5.001,-8.987 5.392,-9.024 5.517,-8.704C3.204,-8.579 0.765,-8.152 -0.411,-5.892C-0.748,-5.054 -0.909,-3.915 -0.285,-3.167C1.335,-1.104 3.666,0.694 6.408,-0.213C7.671,-0.624 9.005,-1.459 9.452,-2.812C9.771,-4.591 9.629,-6.674 7.972,-7.849C7.103,-8.632 6.068,-9.006 5.036,-9.38C4.841,-9.539 4.717,-9.789 4.806,-10.021C4.965,-10.714 5.749,-10.608 6.282,-10.751C7.19,-10.608 7.992,-10.146 8.81,-9.789C10.518,-8.632 11.497,-6.818 11.728,-4.859C12.049,-3.33 11.8,-1.727 10.839,-0.57C9.683,0.462 8.419,1.335 6.959,1.673C5.287,1.922 3.488,1.709 2.048,0.997C0.337,0.054 -1.442,-1.371 -2.491,-3.097C-3.009,-4.112 -2.652,-5.375 -2.438,-6.408C-2.046,-7.458 -0.98,-8.383 0,-8.829" style="fill:rgb(35,31,32);fill-rule:nonzero;"/>
        </g>
        <g transform="matrix(2.67155,0,0,2.67971,14.7686,58.3843)">
            <path d="M0,-3.782L0.896,-3.782L-0.37,-1.419L-0.37,0L-1.159,0L-1.159,-1.419L-2.467,-3.782L-1.536,-3.782L-0.752,-2.135L0,-3.782" style="fill:rgb(35,31,32);fill-rule:nonzero;"/>
        </g>
        <g transform="matrix(2.67155,0,0,2.67971,20.069,58.6469)">
            <path d="M0,-3.88L0.805,-3.88L0.805,-1.558C0.805,-1.298 0.834,-1.108 0.895,-0.988C0.991,-0.776 1.199,-0.67 1.52,-0.67C1.838,-0.67 2.045,-0.776 2.141,-0.988C2.203,-1.108 2.232,-1.298 2.232,-1.558L2.232,-3.88L3.036,-3.88L3.036,-1.555C3.036,-1.153 2.974,-0.84 2.848,-0.617C2.617,-0.206 2.174,0 1.52,0C0.865,0 0.422,-0.206 0.188,-0.617C0.063,-0.84 0,-1.153 0,-1.555L0,-3.88" style="fill:rgb(35,31,32);fill-rule:nonzero;"/>
        </g>
        <g transform="matrix(2.67155,0,0,2.67971,37.1909,56.2861)">
            <path d="M0,-2.216C-0.101,-2.3 -0.24,-2.342 -0.421,-2.342L-1.133,-2.342L-1.133,-1.228L-0.421,-1.228C-0.24,-1.228 -0.101,-1.274 0,-1.364C0.099,-1.455 0.149,-1.599 0.149,-1.796C0.149,-1.992 0.099,-2.132 0,-2.216ZM0.603,-0.854C0.381,-0.669 0.065,-0.577 -0.345,-0.577L-1.133,-0.577L-1.133,0.783L-1.918,0.783L-1.918,-2.999L-0.294,-2.999C0.08,-2.999 0.378,-2.902 0.601,-2.706C0.824,-2.512 0.935,-2.209 0.935,-1.801C0.935,-1.354 0.824,-1.038 0.603,-0.854" style="fill:rgb(35,31,32);fill-rule:nonzero;"/>
        </g>
        <g transform="matrix(2.67155,0,0,2.67971,48.7267,50.6641)">
            <path d="M0,1.97C0.183,1.738 0.276,1.41 0.276,0.985C0.276,0.561 0.183,0.234 0,0.001C-0.185,-0.231 -0.434,-0.347 -0.746,-0.347C-1.059,-0.347 -1.31,-0.231 -1.496,-0.001C-1.682,0.231 -1.774,0.559 -1.774,0.985C-1.774,1.41 -1.682,1.738 -1.496,1.97C-1.31,2.2 -1.059,2.317 -0.746,2.317C-0.434,2.317 -0.185,2.2 0,1.97ZM0.493,2.545C0.207,2.839 -0.207,2.985 -0.746,2.985C-1.286,2.985 -1.7,2.839 -1.985,2.545C-2.368,2.184 -2.56,1.664 -2.56,0.985C-2.56,0.292 -2.368,-0.227 -1.985,-0.575C-1.7,-0.87 -1.286,-1.015 -0.746,-1.015C-0.207,-1.015 0.207,-0.87 0.493,-0.575C0.874,-0.227 1.066,0.292 1.066,0.985C1.066,1.664 0.874,2.184 0.493,2.545" style="fill:rgb(35,31,32);fill-rule:nonzero;"/>
        </g>
        <g transform="matrix(2.67155,0,0,2.67971,52.5149,51.0982)">
            <path d="M0,-0.001C0,0.651 0.527,1.176 1.178,1.176C1.828,1.176 2.354,0.651 2.354,-0.001C2.354,-0.649 1.828,-1.177 1.178,-1.177C0.527,-1.177 0,-0.649 0,-0.001M1.252,-0.07L1.449,-0.12L1.52,-0.305C1.52,-0.401 1.487,-0.466 1.419,-0.501L1.275,-0.528L0.843,-0.528L0.843,-0.07L1.252,-0.07ZM0.662,-0.684L1.271,-0.684C1.371,-0.684 1.454,-0.67 1.519,-0.639C1.643,-0.582 1.705,-0.476 1.705,-0.322L1.655,-0.126L1.517,-0.001L1.635,0.082L1.679,0.251L1.684,0.431L1.698,0.546L1.757,0.627L1.757,0.657L1.534,0.657L1.518,0.613L1.51,0.507L1.498,0.283L1.404,0.107L1.245,0.082L0.843,0.082L0.843,0.657L0.662,0.657L0.662,-0.684ZM0.154,-0.001C0.154,-0.565 0.612,-1.024 1.178,-1.024C1.742,-1.024 2.201,-0.565 2.201,-0.001C2.201,0.565 1.742,1.024 1.178,1.024C0.612,1.024 0.154,0.565 0.154,-0.001" style="fill:rgb(35,31,32);fill-rule:nonzero;"/>
        </g>
    </g>
</svg>
