<svg clip-rule="evenodd" fill-rule="evenodd" height="60" stroke-linejoin="round" stroke-miterlimit="2" viewBox="0 0 280 60" width="280" xmlns="http://www.w3.org/2000/svg" xmlns:xlink="http://www.w3.org/1999/xlink"><linearGradient id="a" gradientUnits="userSpaceOnUse" x1="116.168" x2="212.355" y1="29.6912" y2="29.6912"><stop offset="0" stop-color="#5ac04a"/><stop offset="1" stop-color="#3e765e"/></linearGradient><path d="m53.872 21.875c-.144 1.526-.704 2.714-1.682 3.568s-2.278 1.281-3.901 1.281c-1.136 0-2.134-.269-2.999-.809-.865-.541-1.531-1.309-2.001-2.301s-.713-2.149-.734-3.464v-1.336c0-1.347.237-2.535.714-3.565.477-1.029 1.16-1.818 2.048-2.376.889-.558 1.918-.833 3.085-.833 1.572 0 2.838.427 3.795 1.281s1.517 2.063 1.671 3.626h-2.464c-.116-1.026-.415-1.766-.895-2.224-.48-.455-1.18-.682-2.107-.682-1.077 0-1.901.396-2.481 1.184-.58.789-.871 1.946-.885 3.475v1.267c0 1.547.274 2.724.827 3.537.552.813 1.359 1.219 2.422 1.219.971 0 1.702-.22 2.19-.658.487-.437.799-1.167.929-2.19zm13.575-2.122c0 1.401-.24 2.627-.724 3.685-.484 1.057-1.173 1.869-2.069 2.434-.895.565-1.928.851-3.095.851s-2.182-.283-3.085-.851c-.902-.565-1.602-1.374-2.093-2.421-.494-1.047-.741-2.255-.748-3.622v-.806c0-1.395.247-2.624.738-3.692.491-1.067 1.187-1.883 2.083-2.448.895-.565 1.925-.851 3.085-.851 1.159 0 2.189.279 3.084.84.896.558 1.589 1.364 2.08 2.414.49 1.051.737 2.273.744 3.668zm-2.474-.747c0-1.584-.298-2.797-.895-3.644s-1.441-1.267-2.539-1.267c-1.099 0-1.905.42-2.509 1.26-.604.841-.913 2.032-.923 3.568v.823c0 1.57.306 2.786.916 3.643.611.858 1.455 1.285 2.54 1.285 1.084 0 1.938-.42 2.528-1.257.591-.837.886-2.063.886-3.671v-.747zm9.092 7.401h-5.113v-.834l2.533-2.64c.367-.389.627-.715.781-.976.156-.261.233-.523.233-.786 0-.347-.103-.625-.306-.839-.204-.213-.478-.318-.823-.318-.41 0-.729.119-.956.359-.228.239-.339.567-.339.984h-1.27c0-.443.105-.841.315-1.196.211-.354.511-.631.903-.827.393-.196.843-.294 1.356-.294.739 0 1.321.177 1.748.532.427.354.64.844.64 1.471 0 .363-.107.743-.321 1.14-.214.398-.564.85-1.052 1.356l-1.859 1.901h3.53zm-26.283 17.46c-.608.196-1.232.393-1.836.592v4.994c0 .823-.161 1.27-.642 1.539-.48.251-1.177.303-2.319.303-.035-.393-.234-1.109-.446-1.539.713.017 1.372.017 1.568 0 .233 0 .322-.055.322-.303v-4.529c-.696.214-1.355.414-1.945.61l-.374-1.612c.641-.162 1.444-.392 2.319-.644v-3.402h-2.069v-1.539h2.069v-3.454h1.517v3.454h1.784v1.539h-1.784v2.955l1.623-.483zm2.975-9.022h1.482v7.5c0 3.543-.391 6.767-3.551 8.95-.268-.324-.82-.861-1.177-1.109 1.461-.985 2.282-2.2 2.728-3.564-.875.341-1.747.661-2.533.95l-.641-1.432c.947-.252 2.213-.644 3.53-1.075.09-.661.145-1.343.162-2.042h-2.639v-1.484h2.639v-2.2h-2.783v-1.505h2.783zm7.906 12.066h-3.264v4.35h-1.571v-16.416h1.571v2.989h2.962v1.505h-2.962v2.2h2.766v1.484h-2.766v2.363h3.264zm16.659-3.044v7.393h-1.712v-1.057h-10.541v1.091h-1.678v-7.427h1.678v4.707h4.299v-5.782h-5.298v-6.247h1.658v4.635h3.64v-6.195h1.695v6.195h3.816v-4.655h1.747v6.267h-5.566v5.782h4.55v-4.707zm18.891 5.726v1.27h-16.072v-1.27h7.189v-.861h-5.672v-1.13h5.672v-.806h-5.226v-4.476h12.236v4.476h-5.404v.806h5.761v1.13h-5.761v.861zm-12.538-5.497h3.658v-.823h-3.658zm3.658 1.753v-.84h-3.658v.84zm5.387-2.579h-3.781v.823h3.781zm0 1.736h-3.781v.84h3.781zm3.421-3.361h-15.928v-1.219h15.928zm-2.281-1.898h-11.434v-4.332h11.434zm-1.675-3.423h-8.153v.806h8.153zm0 1.684h-8.153v.823h8.153zm17.729 4.189c-.21 5.463-.371 7.397-.889 8.031-.295.409-.604.52-1.088.571-.418.062-1.173.049-1.901.014-.024-.334-.161-.83-.384-1.154.803.062 1.544.076 1.839.076.261 0 .395-.048.532-.21.395-.396.594-2.231.755-6.78h-3.767c-.333.633-.704 1.201-1.088 1.659-.223-.199-.741-.533-1.012-.695.94-1.006 1.705-2.617 2.137-4.239l1.174.272c-.186.644-.419 1.288-.68 1.897h4.372v.555zm-9.56 4.546c-.161 1.164-.446 2.369-.827 3.161-.185-.138-.641-.348-.878-.434.37-.744.604-1.835.727-2.899l.975.172zm2.285-3.31c.508.806 1.013 1.86 1.188 2.542l-.879.42c-.048-.2-.123-.434-.223-.696l-.913.062v5.107h-1.025v-5.045c-.704.038-1.359.076-1.929.11l-.099-1.015.864-.025c.234-.296.47-.619.717-.967-.384-.544-1.012-1.216-1.557-1.736l.555-.768c.11.1.224.2.333.296.385-.681.79-1.573 1.013-2.241l1.036.371c-.446.844-.964 1.822-1.407 2.49.233.248.446.496.604.72.48-.744.926-1.512 1.249-2.156l.974.42c-.703 1.13-1.629 2.494-2.456 3.52l1.643-.062c-.161-.348-.333-.682-.518-.992l.827-.358zm.309 3.076c.333.743.666 1.711.803 2.341l-.913.324c-.109-.644-.446-1.625-.754-2.38zm3.174 1.201c-.247-.757-.926-1.959-1.582-2.851l.927-.458c.665.844 1.396 2.021 1.667 2.789z"/><path d="m145.145 34.402h4.664v8.22h-4.664v9.77h-10.616v-9.77h-17.733l-.632-6.512 18.365-29.653v-.097h10.616zm-18.869 0h8.253v-14.16l-.662 1.074zm28.82-4.497 2.804-23.545h26.806v8.282h-18.176l-1.04 9.143c.755-.444 1.747-.837 2.975-1.174 1.228-.338 2.429-.51 3.606-.51 4.557 0 8.057 1.354 10.504 4.064 2.446 2.707 3.668 6.508 3.668 11.395 0 2.951-.656 5.623-1.97 8.013-1.314 2.394-3.157 4.233-5.528 5.517-2.374 1.284-5.178 1.928-8.41 1.928-2.875 0-5.576-.595-8.095-1.783-2.518-1.188-4.495-2.821-5.922-4.897-1.427-2.073-2.131-4.418-2.11-7.029h10.647c.107 1.681.642 3.017 1.606 4.005.964.989 2.237 1.484 3.812 1.484 3.569 0 5.357-2.651 5.357-7.951 0-4.9-2.186-7.349-6.551-7.349-2.477 0-4.327.799-5.545 2.397l-8.441-1.994zm34.787 2.71c0-1.512.491-2.734 1.476-3.664.981-.93 2.302-1.395 3.953-1.395 1.65 0 2.999.461 3.97 1.388.971.926 1.458 2.176 1.458 3.757v1.212c0 1.512-.487 2.731-1.458 3.65-.971.92-2.285 1.378-3.936 1.378-1.65 0-2.961-.458-3.963-1.371-.999-.912-1.5-2.166-1.5-3.757zm3.638 1.291c0 .579.161 1.05.487 1.412.323.362.772.544 1.342.544 1.173 0 1.76-.747 1.76-2.238v-1.002c0-.579-.158-1.054-.47-1.429-.312-.372-.755-.562-1.325-.562-.569 0-.984.183-1.307.544-.323.362-.487.854-.487 1.478zm2.899 16.65-2.632-1.329 11.914-19.136 2.632 1.329zm5.061-4.17c0-1.526.495-2.748 1.483-3.664s2.302-1.378 3.946-1.378 2.989.455 3.97 1.364 1.475 2.177 1.475 3.802v1.178c0 1.525-.487 2.748-1.458 3.664s-2.289 1.377-3.953 1.377-2.961-.458-3.963-1.37c-.999-.913-1.5-2.166-1.5-3.757zm3.621 1.291c0 .524.178.985.535 1.378.357.396.793.592 1.307.592 1.085 0 1.671-.513 1.76-1.536l.018-1.722c0-.588-.162-1.067-.488-1.429-.322-.361-.765-.544-1.324-.544s-.968.169-1.29.51c-.323.341-.498.799-.518 1.377z" fill="url(#a)" fill-rule="nonzero"/><path d="m237.055 40.639c0-.002.001-.004.001-.006l.004.007zm0 0c-.659 2.883-1.602 5.371-2.854 7.487.419 1.894.923 3.041 1.472 3.065.374 0 .639-1.147.769-3.261.309.396 1.143.902 1.448 1.057-.46 3.726-1.383 4.629-2.217 4.608-1.273-.021-2.196-1.257-2.875-3.416-1.033 1.277-2.217 2.379-3.579 3.306-.264-.352-.988-1.037-1.362-1.343 1.777-1.058 3.205-2.469 4.371-4.188-.504-2.49-.813-5.709-1.009-9.367h-6.214v4.143c0 3.241-.309 7.869-2.285 10.91-.309-.31-1.119-.861-1.537-1.058 1.822-2.841 2.021-6.877 2.021-9.852v-5.951h7.95c-.044-1.012-.089-2.073-.11-3.15h1.867c.021 1.057.045 2.114.089 3.15h3.095c-.593-.705-1.757-1.632-2.745-2.269l1.098-1.036c1.033.595 2.262 1.522 2.876 2.248l-1.078 1.057h1.033v1.808h-4.193c.154 2.49.35 4.784.614 6.702.68-1.498 1.208-3.151 1.582-4.959zm-17.888-25.838c-.22-1.122-.834-2.885-1.448-4.208l1.692-.571c.638 1.301 1.297 2.996 1.557 4.122l-1.801.661zm8.499 12.122c0 .992-.199 1.588-.878 1.873-.659.331-1.647.376-3.229.352-.065-.531-.329-1.388-.569-1.894 1.008.044 2.021.044 2.305.044.309-.02.419-.11.419-.42v-2.6h-5.336v4.935h-1.932v-14.06h3.535v-5.996h2.021v5.996h3.668v11.767zm-1.955-4.387v-1.853h-5.336v1.853zm-5.336-5.465v1.873h5.336v-1.873zm4.677-2.8c.569-1.191 1.252-3.086 1.582-4.453l2.065.507c-.614 1.542-1.338 3.305-1.932 4.407l-1.712-.461zm6.677 9.653h-1.976v-12.143h1.976zm4.897-14.347v17.232c0 1.278-.33 1.874-1.078 2.204-.789.331-2.107.396-4.107.396-.11-.571-.439-1.542-.724-2.114 1.472.065 2.855.065 3.315.045.394 0 .569-.131.569-.531v-17.232zm-9.363 39.562v1.277h-1.407v-7.249h4.962v5.972zm0-4.429v2.91h2.131v-2.91zm-6.348-1.591c-.748-.682-2.306-1.632-3.579-2.183l1.143-1.498c1.252.506 2.834 1.322 3.623 2.028zm1.297 2.8c-.789 2.424-1.822 5.155-2.79 7.294l-1.846-1.058c.879-1.763 2.107-4.693 2.986-7.293l1.647 1.057zm-.285-8.571c-.748-.706-2.285-1.698-3.558-2.314l1.163-1.454c1.253.531 2.834 1.412 3.603 2.139l-1.208 1.632zm8.87 4.297h-4.961v-1.542h4.961z"/><path d="m244.34 50.522 2.244-2.253.199.197-2.244 2.252 2.244 2.252-.199.2-2.244-2.252-2.251 2.259-.196-.2 2.251-2.259-2.244-2.252.196-.197zm-1.427.196c0 .279-.23.513-.512.513-.281 0-.511-.231-.511-.513s.23-.513.511-.513c.282 0 .512.231.512.513zm1.427-1.433c-.278 0-.511-.23-.511-.513 0-.282.23-.513.511-.513s.511.231.511.513c0 .283-.23.513-.511.513zm0 2.869c.278 0 .511.231.511.513s-.23.513-.511.513-.511-.231-.511-.513.23-.513.511-.513zm1.427-1.433c0-.279.23-.513.512-.513.281 0 .511.231.511.513 0 .283-.23.513-.511.513-.282 0-.512-.23-.512-.513z" fill-rule="nonzero"/><path d="m247.838 53.64h3.8v-.784h-1.496c-.288 0-.664.024-.96.056 1.224-1.28 2.176-2.336 2.176-3.384 0-1.04-.696-1.728-1.776-1.728-.768 0-1.288.336-1.792.88l.52.512c.312-.36.696-.656 1.16-.656.664 0 1 .416 1 1.04 0 .896-.992 1.92-2.632 3.528z" fill-rule="nonzero"/><g fill="#d4ca86"><path d="m20.719 54.895c2.562.801 4.445 2.439 5.052 4.157-1.601 1.03-4.164 1.272-6.726.467-2.563-.803-4.445-2.439-5.053-4.158 1.602-1.029 4.164-1.273 6.727-.466zm-1.942-2.719c-1.618-.755-2.964-2.627-3.381-4.99-.419-2.365.203-4.594 1.458-5.877 1.619.756 2.963 2.625 3.381 4.989.418 2.365-.202 4.593-1.458 5.878zm-8.624-7.03c2.212 1.381 3.536 3.4 3.623 5.207-1.822.617-4.332.251-6.544-1.129s-3.537-3.403-3.623-5.208c1.821-.617 4.332-.25 6.544 1.13zm1.587-12.537c1.385.949 2.339 2.897 2.352 5.164.012 2.269-.921 4.254-2.295 5.259-1.386-.948-2.34-2.896-2.352-5.164-.012-2.269.921-4.256 2.295-5.259zm-3.578-3.688c-.811-1.427-.777-3.583.25-5.636 1.026-2.059 2.771-3.467 4.464-3.808.808 1.428.776 3.583-.252 5.639-1.026 2.056-2.771 3.465-4.462 3.805zm-2.46-5.187c-1.365-.859-2.358-2.688-2.459-4.856-.104-2.17.711-4.1 1.986-5.108 1.365.858 2.356 2.685 2.458 4.854.103 2.169-.71 4.101-1.985 5.11zm12.764-14.113c.24 1.458-.475 3.32-2.008 4.834-1.534 1.515-3.477 2.277-5.038 2.123-.239-1.456.475-3.319 2.008-4.834 1.535-1.515 3.478-2.277 5.038-2.123zm-4.627-1.531c-.666 1.835-1.997 3.194-3.387 3.653-.82-1.124-1-2.943-.336-4.777.666-1.836 1.997-3.197 3.388-3.653.819 1.123.999 2.941.335 4.777zm7.545-3.577c-1.433 1.405-3.245 2.105-4.696 1.956-.216-1.356.456-3.088 1.889-4.491 1.437-1.406 3.248-2.106 4.698-1.959.218 1.359-.456 3.089-1.891 4.494zm-16.206 26.435c1.253 1.903 1.537 4.044.906 5.581-1.713-.103-3.6-1.264-4.853-3.17-1.253-1.904-1.539-4.045-.906-5.582 1.713.105 3.599 1.265 4.853 3.171z"/><path d="m259.281 54.895c2.563-.807 5.125-.563 6.727.466-.608 1.719-2.49 3.355-5.053 4.158-2.562.805-5.125.563-6.726-.467.607-1.718 2.49-3.356 5.052-4.157zm1.942-2.719c-1.256-1.285-1.876-3.513-1.458-5.878.418-2.364 1.762-4.233 3.381-4.989 1.255 1.283 1.877 3.512 1.458 5.877-.417 2.363-1.763 4.235-3.381 4.99zm8.624-7.03c2.212-1.38 4.723-1.747 6.544-1.13-.086 1.805-1.411 3.828-3.624 5.208-2.211 1.38-4.721 1.746-6.543 1.129.087-1.807 1.411-3.826 3.623-5.207zm-1.588-12.537c1.375 1.003 2.308 2.99 2.296 5.259-.012 2.268-.966 4.216-2.352 5.164-1.374-1.005-2.307-2.99-2.295-5.259.013-2.267.967-4.215 2.351-5.164zm3.579-3.688c-1.691-.34-3.436-1.749-4.462-3.805-1.028-2.056-1.06-4.211-.252-5.639 1.693.341 3.438 1.749 4.464 3.808 1.027 2.053 1.061 4.209.25 5.636zm2.46-5.187c-1.275-1.009-2.088-2.941-1.985-5.11.102-2.169 1.093-3.996 2.458-4.854 1.275 1.008 2.09 2.938 1.986 5.108-.101 2.168-1.094 3.997-2.459 4.856zm-12.764-14.113c1.559-.154 3.503.608 5.038 2.123 1.533 1.515 2.247 3.378 2.007 4.834-1.56.154-3.503-.608-5.037-2.123-1.533-1.514-2.248-3.376-2.008-4.834zm4.627-1.531c-.664-1.836-.484-3.654.334-4.777 1.392.456 2.723 1.817 3.389 3.653.664 1.834.484 3.653-.336 4.777-1.39-.459-2.722-1.818-3.387-3.653zm-7.538-3.577c-1.434-1.405-2.109-3.135-1.89-4.494 1.45-.147 3.261.553 4.697 1.959 1.434 1.403 2.106 3.135 1.89 4.491-1.451.149-3.263-.551-4.697-1.956zm16.199 26.435c1.254-1.906 3.14-3.066 4.853-3.171.633 1.537.347 3.678-.906 5.582-1.253 1.906-3.14 3.067-4.853 3.17-.631-1.537-.347-3.678.906-5.581z"/></g></svg>