<svg clip-rule="evenodd" fill-rule="evenodd" height="60" stroke-linejoin="round" stroke-miterlimit="2" viewBox="0 0 280 60" width="280" xmlns="http://www.w3.org/2000/svg" xmlns:xlink="http://www.w3.org/1999/xlink"><linearGradient id="a" gradientUnits="userSpaceOnUse" x1="90.0012" x2="158.2126" y1="30" y2="30"><stop offset="0" stop-color="#5ac04a"/><stop offset="1" stop-color="#3e765e"/></linearGradient><path d="m56.177 43.392v-.927h-3.591v1.013h-2.035v-7.029h-3.592v9.367h13.811v2.004h-13.811v1.522h-2.079v-12.893h-3.195v-1.963h3.195v-4.759h2.079v4.759h3.592v-5.224h2.035v5.224h3.591v-4.979h2.059v4.979h3.304v1.963h-3.304v6.943zm0-2.841v-4.098h-3.591v4.098zm22.015-1.715c1.598 1.543 4.005 2.8 6.478 3.437-.458.42-1.074 1.212-1.378 1.742-1.443-.461-2.846-1.167-4.115-2.004v7.294h-2.1v-7.649h1.622c-1.095-.816-2.1-1.784-2.867-2.82h-2.342c-.787 1.012-1.796 1.983-2.911 2.8h1.816v1.411c0 2.094-.527 4.784-4.836 6.457-.24-.53-.92-1.277-1.378-1.673 3.721-1.302 4.138-3.306 4.138-4.849v-1.147c-1.358.947-2.846 1.719-4.354 2.27-.308-.531-.896-1.278-1.358-1.698 2.343-.682 4.771-2.004 6.393-3.571h-3.961v-8.992h15.145v8.992zm1.882-7.315h-4.508v2.005h4.508zm-11.031 2.005h4.464v-2.005h-4.464zm11.031 1.587h-4.508v2.049h4.508zm-11.031 2.049h4.464v-2.049h-4.464z"/><path d="m174.478 27.898c-.037.21-.061.472-.075.634-.037 1.25-.198 4.797-.739 6.012-.26.572-.677.844-1.429.844-.664 0-1.393-.048-2.008-.086l-.147-1.302c.629.086 1.279.148 1.785.148.37 0 .568-.11.701-.42.418-.868.578-3.671.578-5.007h-3.15c-.455 3.447-1.676 5.341-3.793 6.843l-1.133-.93c.445-.234.986-.62 1.417-1.04 1.193-1.13 1.946-2.628 2.254-4.873h-1.871c-.455 0-1.033.014-1.502.048v-1.288c.469.038 1.023.076 1.502.076h1.984c.024-.372.037-.768.037-1.178 0-.286-.037-.792-.085-1.078h1.44c-.024.286-.048.744-.062 1.04-.013.42-.037.83-.061 1.216h2.657c.322 0 .602-.038.849-.076l.848.42zm12.333-2.64v10.848h-1.218v-.606h-7.806v.606h-1.156v-10.848zm-1.218 9.174v-8.106h-7.806v8.106zm-.578-1.907v.953h-6.564v-.953h2.671v-1.836h-2.179v-.978h2.179v-1.501h-2.5v-1.016h6.143v1.016h-2.572v1.501h2.302v.978h-2.302v1.836h1.7c-.223-.386-.691-.944-1.095-1.35l.725-.396c.418.385.91.943 1.146 1.288l-.752.458zm-15.155 15.221c-1.677.768-3.486 1.55-4.851 2.132l-.417-1.202c.469-.172 1.047-.396 1.676-.644l-.233-7.449 1.194-.048.209 7.015c.715-.296 1.44-.606 2.155-.916l.27 1.116zm5.257 3.485c-.53-.83-1.563-2.059-2.548-3.137-.924 1.378-2.217 2.418-4.002 3.186-.161-.248-.63-.782-.924-1.016 4.088-1.526 5.367-4.512 5.873-9.732l1.255.124c-.283 2.603-.738 4.687-1.563 6.347 1.047 1.091 2.278 2.417 2.87 3.295l-.961.93zm-4.666-6.308c-.321-.844-1.108-2.132-1.871-3.038l1.047-.51c.8.892 1.577 2.094 1.933 2.952zm17.701 4.574v1.164h-11.021v-1.164h4.495v-9.446h1.231v3.682h4.443v1.153h-4.443v4.611z"/><path d="m122.936 12.678-17.081 40.336h-11.178l17.112-37.808h-21.791v-8.22h32.935v5.689zm35.277 21.527c0 6.216-1.385 11.013-4.159 14.384s-6.683 5.059-11.728 5.059-9.023-1.698-11.807-5.09-4.176-8.175-4.176-14.353v-8.41c0-6.216 1.385-11.013 4.159-14.384s6.693-5.059 11.759-5.059 8.989 1.698 11.773 5.09 4.176 8.189 4.176 14.384v8.379zm-10.582-9.77c0-3.309-.428-5.779-1.286-7.414-.859-1.633-2.22-2.449-4.081-2.449-1.86 0-3.146.758-3.971 2.277-.827 1.518-1.272 3.815-1.334 6.89v11.761c0 3.436.428 5.947 1.287 7.538.858 1.591 2.219 2.386 4.08 2.386s3.13-.775 3.988-2.324c.859-1.55 1.296-3.978 1.32-7.287v-11.381z" fill="url(#a)" fill-rule="nonzero"/><path d="m206.406 33.376c.089-.285.154-.616.219-.926h-5.821v-1.433h3.458c-.219-.506-.547-1.081-.855-1.542l1.642-.376c.437.551.896 1.323 1.139 1.918h3.372c.393-.595.831-1.387 1.094-1.938l1.906.375c-.349.572-.722 1.102-1.095 1.563h3.502v1.433h-6.433c-.13.331-.263.641-.373.926h5.035v6.478h-10.682v-6.478zm4.796 4.625h-6.786v.861h6.786zm0-1.828h-6.786v.861h6.786zm0-1.784h-6.786v.816h6.786zm-.9 9.036h4.727v1.588h-4.727v2.269c0 .992-.198 1.498-.964 1.784-.746.265-1.881.286-3.612.265-.065-.506-.373-1.257-.636-1.742 1.248.044 2.473.044 2.801.02.349-.02.458-.089.458-.375v-2.225h-7.617c1.03.682 2.189 1.588 2.801 2.27l-1.487 1.277c-.613-.75-1.95-1.873-3.044-2.6l1.115-.947h-4.816v-1.587h13.045v-1.147c-1.597 0-3.109 0-4.159-.045-2.254-.089-3.831-.64-4.925-1.963-1.05.706-2.124 1.412-3.284 2.184l-.745-1.674c.875-.42 1.925-1.013 2.89-1.608v-2.91h-2.737v-1.564h4.577v4.188c.786 1.233 2.278 1.763 4.203 1.828 2.562.09 8.209.021 11.099-.154-.198.396-.458 1.122-.547 1.608-1.139.044-2.757.089-4.423.11v1.147zm-11.403-10.004c-.568-.837-1.816-2.028-2.911-2.82l1.334-1.123c1.095.751 2.408 1.874 3 2.69l-1.423 1.257zm30.575-3.022c0 3.988.503 12.167 8.841 17.122-.458.351-1.292 1.233-1.641 1.743-4.97-3.021-7.309-7.515-8.383-11.571-1.622 5.31-4.358 9.167-8.404 11.615-.393-.42-1.334-1.277-1.881-1.653 4.706-2.445 7.354-6.787 8.622-12.759l1.115.2c-.154-.926-.239-1.828-.283-2.624h-5.209v-2.073z"/><g fill="#d4ca86"><path d="m20.65 54.899c2.554.801 4.431 2.439 5.036 4.157-1.596 1.03-4.15 1.272-6.704.467-2.555-.803-4.431-2.439-5.037-4.158 1.597-1.029 4.151-1.273 6.705-.466zm-1.931-2.723c-1.613-.754-2.954-2.627-3.371-4.99-.417-2.364.203-4.594 1.454-5.877 1.614.756 2.954 2.625 3.37 4.989.417 2.365-.201 4.593-1.453 5.878zm-8.602-7.03c2.205 1.381 3.525 3.401 3.611 5.207-1.815.618-4.318.251-6.523-1.129s-3.525-3.403-3.611-5.208c1.815-.617 4.318-.25 6.523 1.13zm1.593-12.533c1.38.949 2.331 2.897 2.344 5.164.012 2.269-.918 4.254-2.288 5.259-1.381-.948-2.332-2.896-2.344-5.165-.013-2.268.918-4.255 2.288-5.258zm-3.573-3.692c-.809-1.427-.774-3.583.249-5.636 1.022-2.059 2.762-3.467 4.45-3.808.806 1.428.773 3.583-.252 5.639-1.022 2.056-2.761 3.465-4.447 3.805zm-2.458-5.187c-1.361-.859-2.351-2.688-2.451-4.856-.104-2.17.708-4.1 1.979-5.108 1.361.858 2.349 2.685 2.451 4.854.103 2.169-.708 4.101-1.979 5.11zm12.733-14.113c.24 1.458-.473 3.32-2.002 4.834-1.528 1.515-3.465 2.277-5.021 2.123-.239-1.456.473-3.319 2.002-4.834s3.467-2.277 5.021-2.123zm-4.61-1.531c-.663 1.835-1.99 3.194-3.376 3.653-.817-1.124-.997-2.943-.334-4.777.663-1.836 1.99-3.197 3.377-3.653.816 1.123.995 2.941.333 4.777zm7.513-3.577c-1.429 1.405-3.235 2.105-4.681 1.956-.217-1.356.454-3.088 1.883-4.491 1.431-1.406 3.237-2.106 4.682-1.959.218 1.359-.454 3.089-1.884 4.494zm-16.153 26.435c1.249 1.904 1.532 4.044.903 5.581-1.708-.103-3.589-1.264-4.838-3.17-1.249-1.904-1.534-4.045-.903-5.582 1.707.105 3.587 1.265 4.838 3.171z"/><path d="m259.35 54.896c2.554-.807 5.108-.563 6.705.466-.606 1.719-2.482 3.354-5.037 4.158-2.554.805-5.108.563-6.704-.467.605-1.718 2.482-3.357 5.036-4.157zm1.931-2.723c-1.252-1.285-1.87-3.513-1.453-5.878.416-2.364 1.756-4.233 3.37-4.99 1.251 1.284 1.871 3.513 1.454 5.878-.417 2.363-1.758 4.235-3.371 4.99zm8.602-7.03c2.205-1.38 4.708-1.747 6.523-1.131-.086 1.806-1.406 3.828-3.611 5.209-2.205 1.379-4.708 1.746-6.523 1.129.086-1.807 1.406-3.826 3.611-5.207zm-1.593-12.533c1.37 1.003 2.301 2.99 2.288 5.258-.012 2.268-.963 4.217-2.344 5.165-1.37-1.005-2.3-2.99-2.288-5.259.013-2.267.964-4.215 2.344-5.164zm3.573-3.692c-1.686-.34-3.425-1.749-4.447-3.806-1.025-2.056-1.058-4.21-.252-5.639 1.688.341 3.428 1.75 4.45 3.808 1.023 2.054 1.058 4.209.249 5.637zm2.458-5.187c-1.271-1.01-2.082-2.941-1.979-5.11.102-2.169 1.09-3.996 2.451-4.855 1.271 1.009 2.083 2.939 1.979 5.109-.1 2.168-1.09 3.997-2.451 4.856zm-12.733-14.113c1.554-.154 3.492.608 5.021 2.123s2.241 3.378 2.002 4.834c-1.556.154-3.492-.608-5.021-2.123s-2.242-3.376-2.002-4.834zm4.61-1.532c-.662-1.835-.483-3.653.333-4.777 1.387.456 2.714 1.817 3.377 3.654.663 1.834.483 3.653-.334 4.776-1.386-.458-2.713-1.817-3.376-3.653zm-7.513-3.577c-1.43-1.404-2.102-3.134-1.884-4.493 1.445-.147 3.251.553 4.682 1.958 1.429 1.403 2.1 3.136 1.884 4.491-1.447.15-3.253-.55-4.682-1.956zm16.153 26.436c1.251-1.907 3.131-3.067 4.838-3.171.631 1.537.346 3.678-.903 5.582-1.249 1.906-3.13 3.067-4.838 3.17-.629-1.538-.346-3.678.903-5.581z"/></g></svg>