<svg width="272" height="60" viewBox="0 0 272 60" fill="none" xmlns="http://www.w3.org/2000/svg">
<path d="M49.9383 35.3008V50.966H48.1548V50.0879H36.7403V50.966H35.0469V35.3008H49.9348H49.9383ZM48.1548 48.5485V36.8401H36.7403V48.5485H48.1548ZM47.3098 45.7902V47.1676H37.7135V45.7902H41.6199V43.142H38.4338V41.7266H41.6199V39.5606H37.9663V38.0936H46.9496V39.5606H43.1852V41.7266H46.5514V43.142H43.1852V45.7902H45.6683C45.3427 45.2357 44.6605 44.4299 44.0648 43.8376L45.128 43.266C45.741 43.8204 46.4613 44.6262 46.8007 45.129L45.7029 45.7902H47.3063H47.3098Z" fill="black"/>
<path d="M67.7831 48.9214C67.7831 49.9063 67.5476 50.4056 66.8827 50.6742C66.2178 50.96 65.0992 50.9772 63.5165 50.9772C63.4438 50.5123 63.1737 49.741 62.9417 49.2933C64.1122 49.3484 65.3347 49.3484 65.6775 49.3277C66.0204 49.3105 66.1277 49.221 66.1277 48.8973V39.1414H61.3763C61.3417 39.8404 61.2517 40.5739 61.0889 41.3419C62.7443 42.8261 64.8152 44.7959 65.8611 46.0666L64.4931 47.1582C63.6655 46.0666 62.062 44.3826 60.5694 42.9501C59.8664 44.5789 58.6058 46.1561 56.3929 47.444C56.1782 47.0859 55.5998 46.4936 55.2051 46.1906C58.9487 44.2208 59.5617 41.428 59.6517 39.1379H54.9696V50.991H53.2969V37.5298H59.669V34.5234H61.3971V37.5298H67.79V48.9145L67.7831 48.9214Z" fill="black"/>
<path d="M76.0674 42.1287L75.0216 43.7231C74.0657 43.0412 72.1576 41.8256 71.0078 41.2161L72.0329 39.6768C73.1688 40.2863 75.219 41.5398 76.0674 42.1287ZM77.8856 46.3368C80.8916 44.6357 83.3227 42.2354 84.7806 39.694L85.8611 41.5915C84.2577 44.0261 81.7573 46.3162 78.8414 48.0001C77.0232 49.0573 74.5021 49.9148 72.864 50.2213L71.8009 48.3789C73.7991 48.038 75.9947 47.3768 77.8856 46.3368ZM78.7687 38.1719L77.7055 39.7112C76.7878 39.0501 74.8623 37.7793 73.7437 37.1526L74.7688 35.6133C75.8839 36.24 77.9202 37.5658 78.7652 38.1719H78.7687Z" fill="black"/>
<path d="M98.5978 48.0667C99.0654 48.0667 99.5156 48.0117 99.8757 47.96V49.823C99.4982 49.7886 98.9026 49.7679 98.5978 49.7679H88.6414C88.2258 49.7679 87.741 49.7851 87.2734 49.823V47.96C87.7236 48.0151 88.2293 48.0667 88.6414 48.0667H92.5859V41.8372H89.5071C89.1643 41.8372 88.5513 41.8544 88.1738 41.8923V40.1016C88.5686 40.1567 89.1643 40.1911 89.4864 40.1911H97.7494C98.1996 40.1911 98.6844 40.1567 99.0827 40.1016V41.8923C98.6671 41.8578 98.1649 41.8372 97.7494 41.8372H94.4352V48.0667H98.5944H98.5978Z" fill="black"/>
<path d="M117.261 37.451C117.098 37.6473 116.81 37.9882 116.665 38.2017C115.889 39.5069 114.182 41.7831 112.253 43.1434L110.76 41.945C112.326 41.0324 113.912 39.2589 114.435 38.2396H104.551C103.848 38.2396 103.218 38.2947 102.445 38.3464V36.3594C103.11 36.4489 103.848 36.5212 104.551 36.5212H114.615C115.03 36.5212 115.841 36.4661 116.128 36.3973L117.264 37.4545L117.261 37.451ZM109.988 39.8306C109.988 44.5036 109.718 47.9404 104.984 50.3578L103.328 49.0148C103.851 48.8358 104.482 48.5499 105.057 48.1367C107.63 46.4906 108.045 44.235 108.045 41.2631C108.045 40.781 108.028 40.3506 107.938 39.8306H109.991H109.988Z" fill="black"/>
<path d="M166.014 50.4087H155.98L141.147 24.5089V50.4087H131.055V8.7886H141.147L155.953 34.6884V8.7886H166.014V50.4087ZM170.727 34.6574C170.727 31.5719 171.33 28.8204 172.539 26.4098C173.747 23.9992 175.479 22.1466 177.74 20.8483C180.002 19.5535 182.655 18.9061 185.703 18.9061C190.361 18.9061 194.029 20.3421 196.713 23.2072C199.397 26.0758 200.737 29.9774 200.737 34.9122V35.2566C200.737 40.0777 199.39 43.9036 196.699 46.7343C194.004 49.565 190.361 50.9803 185.762 50.9803C181.162 50.9803 177.779 49.6614 175.094 47.0201C172.41 44.3823 170.963 40.8043 170.755 36.2862L170.727 34.6574ZM180.414 35.2566C180.414 38.1148 180.864 40.212 181.765 41.5447C182.665 42.8774 183.999 43.5455 185.762 43.5455C189.211 43.5455 190.974 40.9076 191.05 35.6285V34.6574C191.05 29.1131 189.266 26.3375 185.703 26.3375C182.464 26.3375 180.709 28.7308 180.442 33.5106L180.414 35.2531V35.2566ZM211.002 41.0591C212.537 41.0591 213.811 41.5137 214.826 42.4159C215.841 43.3216 216.35 44.4787 216.35 45.8871C216.35 47.2956 215.841 48.4561 214.826 49.3618C213.811 50.2675 212.537 50.7186 211.002 50.7186C209.468 50.7186 208.169 50.2606 207.165 49.348C206.157 48.432 205.655 47.2818 205.655 45.8906C205.655 44.4994 206.157 43.3457 207.165 42.4331C208.169 41.5171 209.451 41.0626 211.002 41.0626V41.0591ZM238.231 50.4052H228.513V19.6465L218.968 22.4186V15.1008L237.338 8.78516H238.228V50.4052H238.231Z" fill="url(#paint0_linear_2620_21680)"/>
<path d="M44.5006 20.9318V22.8751H33.8235L33.7422 21.4075L40.1281 11.4483H42.0906L39.9654 15.0717L36.2945 20.9318H44.5006ZM42.6499 11.4483V26.1847H40.1993V11.4483H42.6499Z" fill="black"/>
<path d="M55.9203 20.9318V22.8751H45.2433L45.162 21.4075L51.5478 11.4483H53.5104L51.3851 15.0717L47.7143 20.9318H55.9203ZM54.0697 11.4483V26.1847H51.619V11.4483H54.0697Z" fill="black"/>
<path d="M62.3325 21.3758V17.7069H66.5184V21.3758H62.3325ZM75.8273 21.3758H68.5176V17.7069H74.3279V15.9036H68.5176V13.0431H74.8069V11.1776H62.749C63.0198 10.5557 63.3113 9.87171 63.5612 9.22914L61.6036 8.71094C60.6457 11.4678 58.9796 14.1002 57.0637 15.7378C57.5427 16.0279 58.3757 16.6498 58.7506 16.9814C59.8126 15.945 60.8539 14.577 61.7494 13.0431H66.5184V15.9036H60.3958V21.3758H57.0429V23.2413H66.5184V27.8222H68.5176V23.2413H75.8273V21.3758Z" fill="black"/>
<path d="M88.9681 16.2352C88.3642 14.805 87.0522 12.7944 85.6985 11.3019L83.9284 12.1518C85.2195 13.6649 86.5524 15.8207 87.0938 17.2302L88.9681 16.2352ZM85.6361 20.0907C84.4282 20.6089 83.1995 21.1271 81.9916 21.6245L81.6376 9.89244L79.6175 9.97535L80.0132 22.4329C78.9511 22.8475 77.9723 23.2206 77.181 23.5108L77.889 25.5214C80.2006 24.5472 83.262 23.2413 86.0942 21.9562L85.6361 20.0907ZM96.611 26.2262C95.6114 24.7545 93.5289 22.5366 91.7587 20.7125C93.154 17.9349 93.9245 14.4526 94.4035 10.0997L92.2793 9.89244C91.4255 18.619 89.2597 23.6144 82.3457 26.164C82.8455 26.5578 83.6368 27.4491 83.9076 27.8637C86.9272 26.5785 89.1139 24.8374 90.6758 22.5366C92.3418 24.3399 94.0911 26.392 94.9866 27.7808L96.611 26.2262Z" fill="black"/>
<path d="M107.628 24.8788V17.168H115.146V15.2403H107.628V9.08404H105.545V24.8788H97.9438V26.8273H116.582V24.8788H107.628Z" fill="black"/>
<path d="M20.8246 54.8949C18.2483 54.088 15.6727 54.3323 14.0625 55.3609C14.6731 57.0802 16.565 58.7156 19.1422 59.5194C21.7174 60.3242 24.2937 60.0821 25.9033 59.0523C25.2926 57.3342 23.4002 55.6956 20.8246 54.8949Z" fill="#D4CA86"/>
<path d="M18.8731 52.1757C20.1364 50.891 20.7589 48.6628 20.3387 46.2978C19.9191 43.9339 18.5678 42.065 16.9407 41.3086C15.6786 42.5922 15.0532 44.8214 15.4745 47.1864C15.8942 49.5492 17.2466 51.4214 18.8731 52.1757Z" fill="#D4CA86"/>
<path d="M10.2033 45.1464C7.97952 43.766 5.45559 43.3989 3.625 44.0155C3.71157 45.821 5.04313 47.8437 7.2671 49.2242C9.49048 50.6036 12.0138 50.9704 13.8448 50.3529C13.7578 48.5464 12.4267 46.5268 10.2033 45.1464Z" fill="#D4CA86"/>
<path d="M11.7994 32.6094C10.418 33.6121 9.47965 35.5994 9.49231 37.8675C9.50438 40.1356 10.4634 42.0842 11.8558 43.0321C13.2377 42.0272 14.1755 40.0421 14.1629 37.7728C14.1502 35.5059 13.1912 33.5583 11.7994 32.6094Z" fill="#D4CA86"/>
<path d="M8.22742 28.9212C9.92777 28.5813 11.6818 27.1717 12.7125 25.1156C13.746 23.0596 13.7788 20.9053 12.9658 19.4766C11.2642 19.8177 9.5098 21.2261 8.4791 23.2845C7.44675 25.3383 7.41218 27.4935 8.22742 28.9212Z" fill="#D4CA86"/>
<path d="M5.77775 23.7339C7.05953 22.7246 7.87685 20.7933 7.77299 18.6242C7.67062 16.4551 6.67434 14.628 5.30226 13.7695C4.02032 14.7778 3.20137 16.708 3.30582 18.8782C3.40715 21.0462 4.40507 22.8753 5.77775 23.7339Z" fill="#D4CA86"/>
<path d="M18.5654 9.62105C16.998 9.4672 15.0439 10.2288 13.5016 11.7439C11.9598 13.2589 11.242 15.1224 11.4833 16.5781C13.0518 16.732 15.005 15.9703 16.5468 14.4552C18.0886 12.9405 18.8068 11.079 18.5654 9.62105Z" fill="#D4CA86"/>
<path d="M13.8837 8.0897C14.5511 6.25416 14.3707 4.43577 13.5478 3.3125C12.1489 3.76864 10.8107 5.12972 10.142 6.96643C9.47404 8.79976 9.65523 10.6193 10.4791 11.7426C11.877 11.2843 13.2151 9.92523 13.8837 8.0897Z" fill="#D4CA86"/>
<path d="M21.4874 4.51254C22.9295 3.10838 23.6075 1.37834 23.3876 0.0193136C21.9301 -0.128092 20.1094 0.572451 18.6656 1.97764C17.225 3.38063 16.5488 5.11301 16.7666 6.46867C18.2251 6.61827 20.0465 5.91773 21.4874 4.51254Z" fill="#D4CA86"/>
<path d="M5.20528 30.9482C3.94421 29.0416 2.0485 27.8817 0.326842 27.7773C-0.30943 29.3138 -0.0222878 31.455 1.23714 33.3594C2.49658 35.265 4.39377 36.4259 6.11558 36.5292C6.75036 34.9916 6.46471 32.8514 5.20528 30.9482Z" fill="#D4CA86"/>
<path d="M251.207 54.8949C253.783 54.088 256.359 54.3323 257.969 55.3609C257.358 57.0802 255.466 58.7156 252.889 59.5194C250.314 60.3242 247.738 60.0821 246.128 59.0523C246.739 57.3342 248.631 55.6956 251.207 54.8949Z" fill="#D4CA86"/>
<path d="M253.127 52.1757C251.864 50.891 251.241 48.6628 251.661 46.2978C252.081 43.9339 253.432 42.065 255.059 41.3086C256.321 42.5922 256.947 44.8214 256.526 47.1864C256.106 49.5492 254.753 51.4214 253.127 52.1757Z" fill="#D4CA86"/>
<path d="M261.797 45.1464C264.02 43.766 266.544 43.3989 268.375 44.0155C268.288 45.821 266.957 47.8437 264.733 49.2242C262.51 50.6036 259.986 50.9704 258.155 50.3529C258.242 48.5464 259.573 46.5268 261.797 45.1464Z" fill="#D4CA86"/>
<path d="M260.201 32.6094C261.582 33.6121 262.52 35.5994 262.508 37.8675C262.496 40.1356 261.537 42.0842 260.144 43.0321C258.762 42.0272 257.824 40.0421 257.837 37.7728C257.85 35.5059 258.809 33.5583 260.201 32.6094Z" fill="#D4CA86"/>
<path d="M263.773 28.9212C262.072 28.5813 260.318 27.1717 259.288 25.1156C258.254 23.0596 258.221 20.9053 259.034 19.4766C260.736 19.8177 262.49 21.2261 263.521 23.2845C264.553 25.3383 264.588 27.4935 263.773 28.9212Z" fill="#D4CA86"/>
<path d="M266.308 23.7339C265.026 22.7246 264.209 20.7933 264.313 18.6242C264.415 16.4551 265.412 14.628 266.784 13.7695C268.066 14.7778 268.885 16.708 268.78 18.8782C268.679 21.0462 267.681 22.8753 266.308 23.7339Z" fill="#D4CA86"/>
<path d="M253.435 9.62105C255.002 9.4672 256.956 10.2288 258.498 11.7439C260.04 13.2589 260.758 15.1224 260.517 16.5781C258.948 16.732 256.995 15.9703 255.453 14.4552C253.911 12.9405 253.193 11.079 253.435 9.62105Z" fill="#D4CA86"/>
<path d="M258.132 8.0897C257.465 6.25416 257.645 4.43577 258.468 3.3125C259.867 3.76864 261.205 5.12972 261.874 6.96643C262.542 8.79976 262.36 10.6193 261.537 11.7426C260.139 11.2843 258.801 9.92523 258.132 8.0897Z" fill="#D4CA86"/>
<path d="M250.513 4.51254C249.07 3.10838 248.392 1.37834 248.612 0.0193136C250.07 -0.128092 251.891 0.572451 253.334 1.97764C254.775 3.38063 255.451 5.11301 255.233 6.46867C253.775 6.61827 251.954 5.91773 250.513 4.51254Z" fill="#D4CA86"/>
<path d="M266.795 30.9482C268.056 29.0416 269.951 27.8817 271.673 27.7773C272.309 29.3138 272.022 31.455 270.763 33.3594C269.503 35.265 267.606 36.4259 265.884 36.5292C265.25 34.9916 265.535 32.8514 266.795 30.9482Z" fill="#D4CA86"/>
<defs>
<linearGradient id="paint0_linear_2620_21680" x1="131.055" y1="29.8845" x2="238.235" y2="29.8845" gradientUnits="userSpaceOnUse">
<stop stop-color="#5AC04A"/>
<stop offset="1" stop-color="#3E765E"/>
</linearGradient>
</defs>
</svg>
