<svg width="272" height="60" viewBox="0 0 272 60" fill="none" xmlns="http://www.w3.org/2000/svg">
<path d="M50.2385 20.7374C50.0944 22.263 49.5351 23.451 48.5571 24.3051C47.5792 25.1591 46.2787 25.5861 44.6557 25.5861C43.5199 25.5861 42.5214 25.3175 41.6567 24.7769C40.792 24.2362 40.1263 23.4683 39.6562 22.4765C39.1861 21.4847 38.9425 20.3276 38.9219 19.0122V17.676C38.9219 16.3296 39.1586 15.1415 39.6356 14.1118C40.1126 13.0822 40.7954 12.2936 41.6841 11.7357C42.5728 11.1778 43.6022 10.9023 44.7689 10.9023C46.3405 10.9023 47.6066 11.3294 48.564 12.1834C49.5213 13.0374 50.0806 14.2461 50.2351 15.8096H47.7713C47.6547 14.7833 47.3561 14.043 46.8758 13.585C46.3954 13.1304 45.6954 12.9031 44.7689 12.9031C43.6915 12.9031 42.8679 13.2991 42.288 14.0877C41.7081 14.8763 41.4165 16.0334 41.4027 17.5624V18.8296C41.4027 20.3759 41.6773 21.5536 42.2297 22.3663C42.7821 23.179 43.5885 23.5853 44.6522 23.5853C45.6233 23.5853 46.3542 23.3649 46.8414 22.9276C47.3287 22.4903 47.6409 21.7602 47.7713 20.7374H50.2351H50.2385Z" fill="black"/>
<path d="M63.8142 18.6152C63.8142 20.0168 63.574 21.2427 63.0901 22.2999C62.6063 23.3571 61.9166 24.1698 61.021 24.7346C60.1255 25.2994 59.0926 25.5852 57.926 25.5852C56.7593 25.5852 55.7436 25.3028 54.8412 24.7346C53.9387 24.1698 53.2387 23.3606 52.748 22.3137C52.2539 21.2668 52.0069 20.0581 52 18.691V17.8852C52 16.4905 52.2471 15.2611 52.7377 14.1936C53.2284 13.126 53.925 12.3099 54.8206 11.7451C55.7162 11.1804 56.7456 10.8945 57.9054 10.8945C59.0652 10.8945 60.0946 11.1735 60.9902 11.7348C61.8857 12.2927 62.5789 13.0985 63.0696 14.1488C63.5602 15.1991 63.8073 16.4216 63.8142 17.8163V18.6118V18.6152ZM61.3402 17.8679C61.3402 16.2839 61.0416 15.0717 60.4446 14.2245C59.8475 13.3774 59.0034 12.9573 57.9054 12.9573C56.8073 12.9573 56.001 13.3774 55.397 14.2177C54.7931 15.0579 54.4843 16.2494 54.474 17.7853V18.6083C54.474 20.1786 54.7794 21.3942 55.3902 22.2517C56.001 23.1092 56.8451 23.5362 57.9294 23.5362C59.0137 23.5362 59.8681 23.1161 60.4583 22.2793C61.0485 21.4425 61.3436 20.2165 61.3436 18.6083V17.8611L61.3402 17.8679Z" fill="black"/>
<path d="M70.4321 25.2693H65.3184V24.4358L67.8523 21.7951C68.2188 21.4063 68.479 21.0806 68.6329 20.8197C68.7886 20.5588 68.8655 20.2961 68.8655 20.0335C68.8655 19.6867 68.7629 19.4083 68.5596 19.1947C68.3562 18.981 68.0814 18.876 67.7369 18.876C67.3265 18.876 67.0077 18.995 66.7805 19.2349C66.5533 19.4748 66.4416 19.8023 66.4416 20.2191H65.1719C65.1719 19.776 65.2763 19.3785 65.487 19.0231C65.6977 18.6693 65.9982 18.3927 66.3903 18.1965C66.7824 18.0004 67.2331 17.9023 67.7461 17.9023C68.4844 17.9023 69.0671 18.0792 69.494 18.4347C69.9209 18.7884 70.1334 19.2787 70.1334 19.9056C70.1334 20.2681 70.0271 20.6481 69.8128 21.0456C69.5984 21.4431 69.2485 21.8949 68.7611 22.401L66.9014 24.3027H70.4321V25.271V25.2693Z" fill="black"/>
<path d="M44.1486 42.7294C43.5412 42.9257 42.9167 43.122 42.3128 43.3217V48.315C42.3128 49.1381 42.1515 49.5857 41.6712 49.8544C41.1908 50.1057 40.4942 50.1574 39.3516 50.1574C39.3172 49.7648 39.1182 49.0485 38.9055 48.6181C39.6192 48.6353 40.278 48.6353 40.4736 48.6181C40.7069 48.6181 40.7962 48.563 40.7962 48.315V43.7866C40.0996 44.0001 39.4408 44.1999 38.8506 44.3962L38.4766 42.7845C39.1182 42.6227 39.9212 42.3919 40.7962 42.1406V38.7382H38.7271V37.1989H40.7962V33.7449H42.3128V37.1989H44.0971V38.7382H42.3128V41.6929L43.9358 41.2108L44.1486 42.7329V42.7294ZM47.127 33.707H48.6059V41.2073C48.6059 44.7508 48.2148 47.9741 45.0545 50.1574C44.7868 49.8337 44.2344 49.2965 43.8775 49.0485C45.3393 48.0636 46.1594 46.848 46.6054 45.4843C45.7304 45.8253 44.8589 46.1455 44.0731 46.4348L43.4314 45.0022C44.3785 44.7508 45.6447 44.3583 46.9623 43.9278C47.0515 43.2666 47.1064 42.5848 47.1236 41.8857H44.4849V40.4015H47.1236V38.201H44.3407V36.6961H47.1236V33.707H47.127ZM55.0294 45.7736H51.7662V50.123H50.1946V33.707H51.7662V36.6961H54.7275V38.201H51.7662V40.4015H54.5319V41.8857H51.7662V44.2481H55.0294V45.7702V45.7736Z" fill="black"/>
<path d="M71.6891 42.7289V50.1224H69.9769V49.0652H59.4357V50.1568H57.7578V42.7289H59.4357V47.4363H63.7352V41.6544H58.4372V35.4076H60.0946V40.0428H63.7352V33.8477H65.4303V40.0428H69.246V35.387H70.9925V41.6544H65.4269V47.4363H69.9769V42.7289H71.6891Z" fill="black"/>
<path d="M90.5803 48.4549V49.7256H74.5078V48.4549H81.6965V47.594H76.0245V46.4645H81.6965V45.6586H76.4705V41.1819H88.7068V45.6586H83.3024V46.4645H89.0636V47.594H83.3024V48.4549H90.5803ZM90.5082 40.5069H74.5799V39.2879H90.5082V40.5069ZM88.2264 38.6095H76.7931V34.2773H88.2264V38.6095ZM78.0421 42.9588H81.6999V42.1358H78.0421V42.9588ZM81.6999 44.7116V43.8714H78.0421V44.7116H81.6999ZM86.5519 35.1865H78.399V35.9923H86.5519V35.1865ZM86.5519 36.8704H78.399V37.6935H86.5519V36.8704ZM87.0872 42.1323H83.3058V42.9554H87.0872V42.1323ZM87.0872 43.8679H83.3058V44.7082H87.0872V43.8679Z" fill="black"/>
<path d="M94.721 45.605C94.5597 46.769 94.2749 47.9743 93.8941 48.7663C93.7088 48.6286 93.2524 48.4185 93.0156 48.3324C93.3862 47.5886 93.6195 46.4969 93.7431 45.4329L94.7176 45.605H94.721ZM97.0063 42.2957C97.5141 43.1015 98.0185 44.1553 98.1935 44.8371L97.3151 45.2572C97.2671 45.0575 97.1916 44.8233 97.0921 44.5616L96.1793 44.6236V49.7305H95.1534V44.6856C94.4499 44.7235 93.7945 44.7613 93.2249 44.7958L93.1254 43.7799L93.9901 43.7558C94.2235 43.4596 94.4602 43.1359 94.7073 42.7881C94.323 42.244 93.695 41.5725 93.1495 41.0525L93.7053 40.2846C93.8151 40.3845 93.9284 40.4843 94.0382 40.5807C94.4225 39.8989 94.8274 39.007 95.0504 38.3389L96.0867 38.7108C95.6406 39.5545 95.1225 40.5325 94.6798 41.2006C94.9132 41.4485 95.1259 41.6965 95.2838 41.9203C95.7641 41.1765 96.2102 40.4086 96.5328 39.7646L97.5073 40.1847C96.8038 41.3142 95.8774 42.6779 95.0504 43.7041L96.694 43.6422C96.5328 43.2943 96.3612 42.9603 96.1759 42.6504L97.0029 42.2922L97.0063 42.2957ZM97.3151 45.3709C97.648 46.1147 97.9808 47.0824 98.118 47.7126L97.2053 48.0363C97.0955 47.3923 96.7592 46.4109 96.4504 45.6567L97.3151 45.3709ZM104.281 41.056C104.071 46.5211 103.91 48.4564 103.392 49.09C103.097 49.4998 102.788 49.61 102.304 49.6617C101.886 49.7237 101.131 49.7099 100.403 49.6754C100.379 49.3414 100.242 48.8455 100.019 48.5218C100.822 48.5838 101.563 48.5976 101.858 48.5976C102.119 48.5976 102.253 48.5494 102.39 48.3875C102.785 47.9915 102.984 46.156 103.145 41.607H99.3774C99.0445 42.2406 98.6739 42.8088 98.2896 43.2668C98.0666 43.0671 97.5484 42.733 97.2774 42.5712C98.2176 41.5656 98.9827 39.954 99.4151 38.332L100.589 38.6041C100.403 39.248 100.17 39.892 99.9092 40.5015H104.281V41.0594V41.056ZM100.489 46.5727C100.242 45.8151 99.5627 44.6133 98.9073 43.7214L99.8337 43.2634C100.499 44.1071 101.23 45.2848 101.501 46.0527L100.489 46.5727Z" fill="black"/>
<path d="M141.512 33.2644H146.176V41.4844H141.512V51.2541H130.896V41.4844H113.163L112.531 34.9724L130.896 5.31908V5.22266H141.512V33.2609V33.2644ZM122.643 33.2644H130.896V19.104L130.234 20.1785L122.643 33.2644ZM151.463 28.767L154.267 5.22266H181.073V13.5047H162.897L161.857 22.6476C162.612 22.2033 163.604 21.8108 164.832 21.4733C166.06 21.1358 167.261 20.9636 168.438 20.9636C172.995 20.9636 176.495 22.317 178.942 25.0271C181.388 27.7339 182.61 31.5357 182.61 36.4222C182.61 39.3734 181.954 42.0457 180.64 44.4356C179.326 46.829 177.483 48.6679 175.112 49.9524C172.738 51.2368 169.934 51.8808 166.702 51.8808C163.827 51.8808 161.126 51.285 158.607 50.097C156.089 48.9089 154.112 47.2766 152.685 45.2001C151.258 43.127 150.554 40.7819 150.575 38.1716H161.222C161.329 39.8521 161.864 41.1882 162.828 42.1766C163.792 43.1649 165.065 43.6608 166.64 43.6608C170.209 43.6608 171.997 41.0092 171.997 35.7094C171.997 30.809 169.811 28.3606 165.446 28.3606C162.969 28.3606 161.119 29.1595 159.901 30.7574L151.46 28.7635L151.463 28.767ZM186.25 31.4771C186.25 29.9654 186.741 28.7429 187.726 27.8131C188.707 26.8833 190.028 26.4184 191.679 26.4184C193.329 26.4184 194.678 26.8798 195.649 27.8062C196.62 28.7325 197.107 29.9826 197.107 31.5632V32.7754C197.107 34.2871 196.62 35.5062 195.649 36.4257C194.678 37.3451 193.364 37.8031 191.713 37.8031C190.063 37.8031 188.752 37.3451 187.75 36.4325C186.751 35.52 186.25 34.2665 186.25 32.6755V31.4806V31.4771ZM189.888 32.7685C189.888 33.347 190.049 33.8188 190.375 34.1804C190.698 34.542 191.147 34.7245 191.717 34.7245C192.89 34.7245 193.477 33.9772 193.477 32.4861V31.484C193.477 30.9055 193.319 30.4302 193.007 30.0549C192.695 29.683 192.252 29.4936 191.682 29.4936C191.113 29.4936 190.698 29.6761 190.375 30.0377C190.052 30.3993 189.888 30.8917 189.888 31.515V32.7685ZM192.787 49.4186L190.155 48.0893L202.069 28.9529L204.701 30.2822L192.787 49.4186ZM197.848 45.2483C197.848 43.7228 198.343 42.5003 199.331 41.5843C200.319 40.6682 201.633 40.2068 203.277 40.2068C204.921 40.2068 206.266 40.6614 207.247 41.5705C208.228 42.4796 208.722 43.7469 208.722 45.3723V46.55C208.722 48.0756 208.235 49.2981 207.264 50.2141C206.293 51.1301 204.975 51.5915 203.311 51.5915C201.647 51.5915 200.35 51.1335 199.348 50.221C198.349 49.3084 197.848 48.0549 197.848 46.4639V45.2518V45.2483ZM201.469 46.5397C201.469 47.0631 201.647 47.5246 202.004 47.9172C202.361 48.3132 202.797 48.5095 203.311 48.5095C204.396 48.5095 204.982 47.9964 205.071 46.9736L205.089 45.2518C205.089 44.6629 204.927 44.1842 204.601 43.8226C204.279 43.461 203.836 43.2785 203.277 43.2785C202.718 43.2785 202.309 43.4473 201.987 43.7882C201.664 44.1291 201.489 44.5871 201.469 45.1657V46.5362V46.5397Z" fill="url(#paint0_linear_2620_21808)"/>
<path d="M215.534 13.6637C215.314 12.5411 214.7 10.7779 214.086 9.45554L215.778 8.88389C216.416 10.1856 217.075 11.8799 217.335 13.006L215.534 13.6671V13.6637ZM224.033 25.7854C224.033 26.7771 223.834 27.3729 223.155 27.6587C222.496 27.9893 221.508 28.0341 219.926 28.01C219.861 27.4796 219.597 26.6222 219.357 26.116C220.365 26.1607 221.378 26.1607 221.662 26.1607C221.971 26.1401 222.081 26.0505 222.081 25.7406V23.1406H216.745V28.0754H214.813V14.0149H218.348V8.01953H220.369V14.0149H224.037V25.7819L224.033 25.7854ZM216.742 15.9331V17.8064H222.078V15.9331H216.742ZM222.078 21.3981V19.5455H216.742V21.3981H222.078ZM221.419 13.1334C221.988 11.9419 222.671 10.0478 223.001 8.68071L225.066 9.18693C224.452 10.7297 223.728 12.4928 223.134 13.5948L221.422 13.1334H221.419ZM228.096 22.7859H226.12V10.6436H228.096V22.7859ZM232.993 8.43966V25.6717C232.993 26.9493 232.663 27.5451 231.915 27.8757C231.126 28.2063 229.808 28.2717 227.808 28.2717C227.698 27.7 227.369 26.7289 227.084 26.1573C228.556 26.2227 229.939 26.2227 230.399 26.2021C230.793 26.2021 230.968 26.0712 230.968 25.6717V8.43966H232.989H232.993Z" fill="black"/>
<path d="M217.282 41.9816C216.534 41.2998 214.976 40.3493 213.703 39.7983L214.846 38.3004C216.098 38.8066 217.68 39.6227 218.469 40.3287L217.282 41.9816ZM218.579 44.7813C217.79 47.2057 216.757 49.9365 215.789 52.075L213.943 51.0178C214.822 49.2546 216.05 46.3241 216.929 43.7241L218.576 44.7813H218.579ZM218.294 36.2101C217.546 35.5041 216.009 34.5123 214.736 33.8959L215.899 32.4427C217.152 32.973 218.733 33.8546 219.502 34.5812L218.294 36.2135V36.2101ZM233.423 39.4953C232.764 42.3811 231.821 44.8709 230.568 46.9887C230.987 48.8827 231.491 50.0295 232.04 50.0536C232.414 50.0536 232.679 48.9068 232.809 46.7924C233.118 47.1884 233.952 47.6947 234.257 47.8496C233.797 51.5757 232.874 52.4779 232.04 52.4572C230.767 52.4366 229.844 51.2003 229.165 49.0411C228.132 50.3187 226.948 51.4207 225.586 52.347C225.322 51.9958 224.598 51.3105 224.224 51.004C226.001 49.9468 227.429 48.5349 228.595 46.8165C228.091 44.3268 227.782 41.1069 227.586 37.4498H221.372V41.5925C221.372 44.833 221.063 49.4613 219.087 52.502C218.778 52.1921 217.968 51.6411 217.55 51.4448C219.372 48.6038 219.571 44.5678 219.571 41.5925V35.6418H227.521C227.477 34.6294 227.432 33.5688 227.411 32.4909H229.278C229.299 33.5481 229.323 34.6053 229.367 35.6418H232.462C231.869 34.9359 230.705 34.0096 229.717 33.3725L230.815 32.3359C231.848 32.9317 233.077 33.858 233.691 34.5846L232.613 35.6418H233.646V37.4498H229.453C229.607 39.9395 229.803 42.233 230.067 44.1511C230.747 42.6531 231.275 41.0002 231.649 39.1923L233.427 39.5022L233.423 39.4953ZM227.164 40.5077H222.203V38.965H227.164V40.5077ZM223.63 48.0011V49.2787H222.223V42.0298H227.185V48.0011H223.627H223.63ZM223.63 43.5726V46.4825H225.761V43.5726H223.63Z" fill="black"/>
<path d="M239.45 49.6414L241.694 47.3892L241.893 47.5855L239.649 49.8377L241.893 52.0898L241.694 52.2896L239.45 50.0374L237.199 52.2965L237.003 52.0967L239.254 49.8377L237.01 47.5855L237.206 47.3892L239.45 49.6414ZM238.023 49.8377C238.023 50.1166 237.793 50.3508 237.511 50.3508C237.23 50.3508 237 50.1201 237 49.8377C237 49.5553 237.23 49.3246 237.511 49.3246C237.793 49.3246 238.023 49.5553 238.023 49.8377ZM239.45 48.4051C239.172 48.4051 238.939 48.1744 238.939 47.892C238.939 47.6096 239.169 47.3789 239.45 47.3789C239.731 47.3789 239.961 47.6096 239.961 47.892C239.961 48.1744 239.731 48.4051 239.45 48.4051ZM239.45 51.2737C239.728 51.2737 239.961 51.5044 239.961 51.7868C239.961 52.0692 239.731 52.2999 239.45 52.2999C239.169 52.2999 238.939 52.0692 238.939 51.7868C238.939 51.5044 239.169 51.2737 239.45 51.2737ZM240.877 49.8411C240.877 49.5622 241.107 49.328 241.389 49.328C241.67 49.328 241.9 49.5587 241.9 49.8411C241.9 50.1235 241.67 50.3542 241.389 50.3542C241.107 50.3542 240.877 50.1235 240.877 49.8411Z" fill="black"/>
<path d="M20.719 54.8949C18.1562 54.088 15.594 54.3323 13.9922 55.3609C14.5996 57.0802 16.4816 58.7156 19.0455 59.5194C21.6073 60.3242 24.1701 60.0821 25.7713 59.0523C25.1638 57.3342 23.2813 55.6956 20.719 54.8949Z" fill="#D4CA86"/>
<path d="M18.7766 52.1757C20.0333 50.891 20.6526 48.6628 20.2346 46.2978C19.8172 43.9339 18.4728 42.065 16.8543 41.3086C15.5987 42.5922 14.9766 44.8214 15.3957 47.1864C15.8132 49.5492 17.1586 51.4214 18.7766 52.1757Z" fill="#D4CA86"/>
<path d="M10.1535 45.1464C7.94121 43.766 5.43043 43.3989 3.60938 44.0155C3.6955 45.821 5.02012 47.8437 7.2325 49.2242C9.4443 50.6036 11.9545 50.9704 13.776 50.3529C13.6894 48.5464 12.3652 46.5268 10.1535 45.1464Z" fill="#D4CA86"/>
<path d="M11.7405 32.6094C10.3663 33.6121 9.43284 35.5994 9.44544 37.8675C9.45745 40.1356 10.4115 42.0842 11.7966 43.0321C13.1713 42.0272 14.1043 40.0421 14.0917 37.7728C14.0791 35.5059 13.125 33.5583 11.7405 32.6094Z" fill="#D4CA86"/>
<path d="M8.16194 28.9212C9.85344 28.5813 11.5983 27.1717 12.6236 25.1156C13.6518 23.0596 13.6844 20.9053 12.8756 19.4766C11.1829 19.8177 9.43764 21.2261 8.41231 23.2845C7.38535 25.3383 7.35096 27.4935 8.16194 28.9212Z" fill="#D4CA86"/>
<path d="M5.70233 23.7339C6.97743 22.7246 7.79049 20.7933 7.68718 18.6242C7.58534 16.4551 6.59425 14.628 5.22931 13.7695C3.95406 14.7778 3.13936 16.708 3.24328 18.8782C3.34407 21.0462 4.3368 22.8753 5.70233 23.7339Z" fill="#D4CA86"/>
<path d="M18.4658 9.62105C16.9065 9.4672 14.9626 10.2288 13.4284 11.7439C11.8946 13.2589 11.1806 15.1224 11.4205 16.5781C12.9809 16.732 14.9239 15.9703 16.4577 14.4552C17.9915 12.9405 18.7059 11.079 18.4658 9.62105Z" fill="#D4CA86"/>
<path d="M13.8386 8.0897C14.5026 6.25416 14.3231 4.43577 13.5045 3.3125C12.1129 3.76864 10.7816 5.12972 10.1165 6.96643C9.45195 8.79976 9.63221 10.6193 10.4518 11.7426C11.8424 11.2843 13.1735 9.92523 13.8386 8.0897Z" fill="#D4CA86"/>
<path d="M21.3845 4.51254C22.8191 3.10838 23.4935 1.37834 23.2748 0.0193136C21.8249 -0.128092 20.0136 0.572451 18.5774 1.97764C17.1442 3.38063 16.4716 5.11301 16.6883 6.46867C18.1392 6.61827 19.9511 5.91773 21.3845 4.51254Z" fill="#D4CA86"/>
<path d="M5.17817 30.9482C3.92366 29.0416 2.03783 27.8817 0.32514 27.7773C-0.307818 29.3138 -0.0221717 31.455 1.2307 33.3594C2.48357 35.265 4.37088 36.4259 6.08373 36.5292C6.7152 34.9916 6.43104 32.8514 5.17817 30.9482Z" fill="#D4CA86"/>
<path d="M251.281 54.8949C253.844 54.088 256.406 54.3323 258.008 55.3609C257.4 57.0802 255.518 58.7156 252.955 59.5194C250.393 60.3242 247.83 60.0821 246.229 59.0523C246.836 57.3342 248.719 55.6956 251.281 54.8949Z" fill="#D4CA86"/>
<path d="M253.223 52.1757C251.967 50.891 251.347 48.6628 251.765 46.2978C252.183 43.9339 253.527 42.065 255.146 41.3086C256.401 42.5922 257.023 44.8214 256.604 47.1864C256.187 49.5492 254.841 51.4214 253.223 52.1757Z" fill="#D4CA86"/>
<path d="M261.847 45.1464C264.059 43.766 266.57 43.3989 268.391 44.0155C268.305 45.821 266.98 47.8437 264.767 49.2242C262.556 50.6036 260.046 50.9704 258.224 50.3529C258.311 48.5464 259.635 46.5268 261.847 45.1464Z" fill="#D4CA86"/>
<path d="M260.259 32.6094C261.634 33.6121 262.567 35.5994 262.555 37.8675C262.543 40.1356 261.589 42.0842 260.203 43.0321C258.829 42.0272 257.896 40.0421 257.908 37.7728C257.921 35.5059 258.875 33.5583 260.259 32.6094Z" fill="#D4CA86"/>
<path d="M263.838 28.9212C262.147 28.5813 260.402 27.1717 259.376 25.1156C258.348 23.0596 258.316 20.9053 259.124 19.4766C260.817 19.8177 262.562 21.2261 263.588 23.2845C264.615 25.3383 264.649 27.4935 263.838 28.9212Z" fill="#D4CA86"/>
<path d="M266.298 23.7339C265.023 22.7246 264.21 20.7933 264.313 18.6242C264.415 16.4551 265.406 14.628 266.771 13.7695C268.046 14.7778 268.861 16.708 268.757 18.8782C268.656 21.0462 267.663 22.8753 266.298 23.7339Z" fill="#D4CA86"/>
<path d="M253.534 9.62105C255.093 9.4672 257.037 10.2288 258.572 11.7439C260.105 13.2589 260.819 15.1224 260.579 16.5781C259.019 16.732 257.076 15.9703 255.542 14.4552C254.009 12.9405 253.294 11.079 253.534 9.62105Z" fill="#D4CA86"/>
<path d="M258.161 8.0897C257.497 6.25416 257.677 4.43577 258.495 3.3125C259.887 3.76864 261.218 5.12972 261.884 6.96643C262.548 8.79976 262.368 10.6193 261.548 11.7426C260.158 11.2843 258.826 9.92523 258.161 8.0897Z" fill="#D4CA86"/>
<path d="M250.623 4.51254C249.189 3.10838 248.514 1.37834 248.733 0.0193136C250.183 -0.128092 251.994 0.572451 253.43 1.97764C254.864 3.38063 255.536 5.11301 255.32 6.46867C253.869 6.61827 252.057 5.91773 250.623 4.51254Z" fill="#D4CA86"/>
<path d="M266.822 30.9482C268.076 29.0416 269.962 27.8817 271.675 27.7773C272.308 29.3138 272.022 31.455 270.769 33.3594C269.516 35.265 267.629 36.4259 265.916 36.5292C265.285 34.9916 265.569 32.8514 266.822 30.9482Z" fill="#D4CA86"/>
<defs>
<linearGradient id="paint0_linear_2620_21808" x1="112.535" y1="28.5535" x2="208.722" y2="28.5535" gradientUnits="userSpaceOnUse">
<stop stop-color="#5AC04A"/>
<stop offset="1" stop-color="#3E765E"/>
</linearGradient>
</defs>
</svg>
