<svg width="272" height="61" viewBox="0 0 272 61" fill="none" xmlns="http://www.w3.org/2000/svg">
<path d="M52.1712 40.1998V39.2735H48.58V40.2859H46.5449V33.2573H42.9537V42.6242H56.7646V44.6284H42.9537V46.1505H40.8742V33.2573H37.6797V31.2944H40.8742V26.5352H42.9537V31.2944H46.5449V26.0703H48.58V31.2944H52.1712V26.3148H54.2302V31.2944H57.5342V33.2573H54.2302V40.1998H52.1712ZM52.1712 37.3588V33.2608H48.58V37.3588H52.1712Z" fill="black"/>
<path d="M74.1868 35.6438C75.784 37.1866 78.1918 38.4436 80.6647 39.0807C80.2064 39.5008 79.5907 40.2928 79.2863 40.8232C77.843 40.3617 76.4407 39.6557 75.1718 38.8189V46.1127H73.0717V38.4642H74.6929C73.5985 37.6481 72.5929 36.6804 71.8268 35.6438H69.4839C68.6973 36.6563 67.6883 37.6274 66.5733 38.4436H68.3894V39.8555C68.3894 41.9493 67.8627 44.6388 63.5532 46.3124C63.3138 45.7821 62.6332 45.0348 62.1749 44.6388C65.8961 43.3371 66.3134 41.3328 66.3134 39.7901V38.6433C64.9555 39.5903 63.4677 40.3617 61.9594 40.9127C61.6516 40.3824 61.0633 39.6351 60.6016 39.215C62.9444 38.5331 65.3728 37.2107 66.994 35.6438H63.0334V26.6523H78.1782V35.6438H74.1936H74.1868ZM65.0376 30.3337H69.501V28.3294H65.0376V30.3337ZM65.0376 33.9702H69.501V31.9212H65.0376V33.9702ZM76.0679 28.3294H71.56V30.3337H76.0679V28.3294ZM76.0679 31.9212H71.56V33.9702H76.0679V31.9212Z" fill="black"/>
<path d="M170.472 24.7059C170.435 24.916 170.411 25.1777 170.397 25.3396C170.36 26.5896 170.199 30.1366 169.658 31.3523C169.398 31.9239 168.981 32.196 168.229 32.196C167.565 32.196 166.836 32.1478 166.221 32.1099L166.074 30.8082C166.703 30.8943 167.353 30.9562 167.859 30.9562C168.229 30.9562 168.427 30.846 168.56 30.5361C168.978 29.6683 169.138 26.8651 169.138 25.529H165.988C165.533 28.9761 164.312 30.8701 162.195 32.3716L161.062 31.4418C161.507 31.2076 162.048 30.8219 162.479 30.4018C163.672 29.2723 164.425 27.7743 164.733 25.529H162.862C162.407 25.529 161.829 25.5427 161.36 25.5772V24.2892C161.829 24.3271 162.383 24.365 162.862 24.365H164.846C164.87 23.9931 164.883 23.5971 164.883 23.1873C164.883 22.9014 164.846 22.3952 164.798 22.1094H166.238C166.214 22.3952 166.19 22.8532 166.176 23.1494C166.163 23.5695 166.139 23.9793 166.115 24.365H168.772C169.094 24.365 169.374 24.3271 169.621 24.2892L170.469 24.7094L170.472 24.7059Z" fill="black"/>
<path d="M182.805 22.0664V32.9141H181.587V32.308H173.781V32.9141H172.625V22.0664H182.808H182.805ZM181.587 31.2404V23.1339H173.781V31.2404H181.587ZM181.009 29.3326V30.2865H174.445V29.3326H177.116V27.4971H174.937V26.5191H177.116V25.0177H174.616V24.0018H180.759V25.0177H178.187V26.5191H180.489V27.4971H178.187V29.3326H179.887C179.664 28.9469 179.196 28.389 178.792 27.9827L179.517 27.5867C179.935 27.9724 180.427 28.5302 180.663 28.8746L179.911 29.3326H181.005H181.009Z" fill="black"/>
<path d="M165.854 44.5544C164.177 45.3223 162.368 46.1041 161.003 46.686L160.586 45.4842C161.055 45.312 161.633 45.0882 162.262 44.8402L162.029 37.3915L163.223 37.3433L163.432 44.3581C164.147 44.0619 164.872 43.752 165.587 43.4421L165.857 44.5578L165.854 44.5544ZM171.111 48.0394C170.581 47.2095 169.548 45.9801 168.563 44.9022C167.639 46.2797 166.346 47.3197 164.561 48.0876C164.4 47.8397 163.931 47.3059 163.637 47.0717C167.725 45.5462 169.004 42.5605 169.51 37.3398L170.765 37.4638C170.482 40.0673 170.027 42.1507 169.202 43.8106C170.249 44.9022 171.48 46.228 172.072 47.1062L171.111 48.036V48.0394ZM166.445 41.7306C166.124 40.8869 165.337 39.5989 164.574 38.6932L165.621 38.1835C166.421 39.0755 167.198 40.2773 167.554 41.1348L166.445 41.7306Z" fill="black"/>
<path d="M184.146 46.3054V47.4694H173.125V46.3054H177.62V36.8594H178.851V40.5407H183.294V41.6943H178.851V46.3054H184.146Z" fill="black"/>
<path d="M118.93 9.48623L101.849 49.8223H90.6712L107.783 12.0139H85.9922V3.7938H118.927V9.48279L118.93 9.48623ZM154.207 31.0128C154.207 37.2287 152.822 42.0257 150.048 45.3971C147.274 48.7685 143.365 50.4559 138.32 50.4559C133.275 50.4559 129.297 48.7582 126.513 45.3661C123.729 41.9741 122.337 37.1908 122.337 31.0128V22.6033C122.337 16.3874 123.722 11.5903 126.496 8.21895C129.27 4.84757 133.189 3.16016 138.255 3.16016C143.321 3.16016 147.244 4.8579 150.028 8.24994C152.812 11.642 154.204 16.4391 154.204 22.6343V31.0128H154.207ZM143.625 21.243C143.625 17.9336 143.197 15.4645 142.339 13.8287C141.48 12.1964 140.119 11.3803 138.258 11.3803C136.398 11.3803 135.112 12.1379 134.287 13.6566C133.46 15.1752 133.015 17.4722 132.953 20.5474V32.3076C132.953 35.7444 133.381 38.2549 134.24 39.8459C135.098 41.4369 136.459 42.2324 138.32 42.2324C140.181 42.2324 141.45 41.4575 142.308 39.9079C143.167 38.3582 143.604 35.9304 143.628 32.621V21.2396L143.625 21.243Z" fill="url(#paint0_linear_2620_21742)"/>
<path d="M206.296 40.2332H211.023V41.8207H206.296V44.0901C206.296 45.0819 206.098 45.5881 205.332 45.8739C204.586 46.1391 203.451 46.1598 201.72 46.1391C201.655 45.6329 201.347 44.8822 201.084 44.3966C202.332 44.4414 203.557 44.4414 203.885 44.4173C204.234 44.3966 204.343 44.3277 204.343 44.0419V41.8173H196.726C197.756 42.4991 198.915 43.4048 199.527 44.0867L198.04 45.3643C197.427 44.6136 196.09 43.4909 194.996 42.7643L196.111 41.8173H191.295V40.2297H204.34V39.083C202.743 39.083 201.231 39.083 200.181 39.0382C197.927 38.9487 196.35 38.3977 195.256 37.0753C194.206 37.7813 193.132 38.4872 191.972 39.2586L191.227 37.585C192.102 37.1648 193.152 36.5725 194.117 35.9768V33.0668H191.38V31.5034H195.957V35.6909C196.743 36.9238 198.235 37.4541 200.16 37.5195C202.722 37.6091 208.369 37.5402 211.259 37.3646C211.061 37.7606 210.801 38.4872 210.712 38.9728C209.573 39.0175 207.955 39.0623 206.289 39.083V40.2297L206.296 40.2332ZM194.893 30.2292C194.325 29.3924 193.077 28.2009 191.982 27.4088L193.316 26.2862C194.411 27.0369 195.724 28.1596 196.316 28.9757L194.893 30.2327V30.2292ZM202.4 30.1845C202.489 29.8986 202.554 29.568 202.619 29.2581H196.798V27.8255H200.256C200.037 27.3193 199.709 26.7442 199.401 26.2827L201.043 25.9074C201.48 26.4584 201.939 27.2298 202.182 27.8255H205.554C205.947 27.2298 206.385 26.4377 206.648 25.8867L208.554 26.2621C208.205 26.8337 207.832 27.3641 207.459 27.8255H210.961V29.2581H204.528C204.398 29.5887 204.265 29.8986 204.155 30.1845H209.19V36.6621H198.508V30.1845H202.404H202.4ZM207.196 31.1969H200.41V32.0131H207.196V31.1969ZM207.196 32.9807H200.41V33.8417H207.196V32.9807ZM207.196 34.8093H200.41V35.6703H207.196V34.8093Z" fill="black"/>
<path d="M225.468 27.207C225.468 31.1948 225.971 39.3736 234.309 44.3291C233.851 44.6804 233.017 45.562 232.668 46.0716C227.698 43.0515 225.359 38.5575 224.285 34.5008C222.663 39.811 219.927 43.6679 215.881 46.1164C215.488 45.6963 214.547 44.8388 214 44.4634C218.706 42.0184 221.354 37.6759 222.622 31.7045L223.737 31.9042C223.583 30.9779 223.498 30.0756 223.454 29.2801H218.245V27.207H225.468Z" fill="black"/>
<path d="M20.6504 54.8988C18.0959 54.0919 15.5419 54.3362 13.9453 55.3648C14.5508 57.0842 16.4267 58.7196 18.9822 59.5234C21.5357 60.3281 24.0902 60.0861 25.6863 59.0563C25.0808 57.3381 23.2043 55.6995 20.6504 54.8988Z" fill="#D4CA86"/>
<path d="M18.7186 52.1758C19.9714 50.8911 20.5888 48.6628 20.1721 46.2979C19.7559 43.9339 18.4159 42.065 16.8024 41.3086C15.5508 42.5922 14.9306 44.8215 15.3484 47.1864C15.7646 49.5493 17.1058 51.4215 18.7186 52.1758Z" fill="#D4CA86"/>
<path d="M10.1172 45.1464C7.91192 43.766 5.40906 43.3989 3.59375 44.0155C3.6796 45.8211 5.00004 47.8437 7.20545 49.2243C9.41027 50.6037 11.9125 50.9705 13.7283 50.353C13.642 48.5465 12.322 46.5269 10.1172 45.1464Z" fill="#D4CA86"/>
<path d="M11.7099 32.6133C10.3399 33.616 9.40944 35.6033 9.422 37.8714C9.43397 40.1395 10.385 42.0882 11.7657 43.0361C13.1361 42.0312 14.0661 40.0461 14.0536 37.7768C14.041 35.5098 13.09 33.5622 11.7099 32.6133Z" fill="#D4CA86"/>
<path d="M8.13671 28.9213C9.82287 28.5814 11.5622 27.1718 12.5843 25.1157C13.6092 23.0596 13.6417 20.9054 12.8355 19.4766C11.1482 19.8177 9.40839 21.2261 8.38629 23.2845C7.36257 25.3384 7.32828 27.4935 8.13671 28.9213Z" fill="#D4CA86"/>
<path d="M5.67892 23.734C6.95 22.7247 7.7605 20.7933 7.65751 18.6243C7.55599 16.4551 6.56803 14.628 5.20739 13.7695C3.93616 14.7778 3.12404 16.708 3.22762 18.8782C3.3281 21.0463 4.31769 22.8754 5.67892 23.734Z" fill="#D4CA86"/>
<path d="M18.4122 9.62105C16.8578 9.4672 14.92 10.2288 13.3906 11.7439C11.8617 13.2589 11.1499 15.1224 11.3892 16.5782C12.9445 16.7321 14.8815 15.9704 16.4104 14.4553C17.9393 12.9405 18.6516 11.079 18.4122 9.62105Z" fill="#D4CA86"/>
<path d="M13.8022 8.08975C14.464 6.2542 14.2851 4.43578 13.4691 3.3125C12.0819 3.76864 10.7548 5.12974 10.0918 6.96647C9.42933 8.79983 9.60902 10.6194 10.426 11.7427C11.8122 11.2844 13.1392 9.92531 13.8022 8.08975Z" fill="#D4CA86"/>
<path d="M21.3148 4.5126C22.7449 3.10842 23.4173 1.37836 23.1992 0.0193139C21.7539 -0.128093 19.9483 0.572457 18.5166 1.97766C17.088 3.38067 16.4174 5.11307 16.6335 6.46874C18.0798 6.61835 19.8859 5.9178 21.3148 4.5126Z" fill="#D4CA86"/>
<path d="M5.16184 30.9482C3.91129 29.0416 2.03141 27.8817 0.324115 27.7773C-0.306847 29.3138 -0.0221018 31.4551 1.22682 33.3595C2.47574 35.2651 4.3571 36.426 6.06454 36.5293C6.69402 34.9916 6.41076 32.8515 5.16184 30.9482Z" fill="#D4CA86"/>
<path d="M251.35 54.8988C253.904 54.0919 256.458 54.3362 258.055 55.3648C257.449 57.0842 255.573 58.7196 253.018 59.5234C250.464 60.3281 247.91 60.0861 246.314 59.0563C246.919 57.3381 248.796 55.6995 251.35 54.8988Z" fill="#D4CA86"/>
<path d="M253.281 52.1758C252.029 50.8911 251.411 48.6628 251.828 46.2979C252.244 43.9339 253.584 42.065 255.198 41.3086C256.449 42.5922 257.069 44.8215 256.652 47.1864C256.235 49.5493 254.894 51.4215 253.281 52.1758Z" fill="#D4CA86"/>
<path d="M261.883 45.1464C264.088 43.766 266.591 43.3989 268.406 44.0155C268.32 45.8211 267 47.8437 264.795 49.2243C262.59 50.6037 260.087 50.9705 258.272 50.353C258.358 48.5465 259.678 46.5269 261.883 45.1464Z" fill="#D4CA86"/>
<path d="M260.29 32.6133C261.66 33.616 262.591 35.6033 262.578 37.8714C262.566 40.1395 261.615 42.0882 260.234 43.0361C258.864 42.0312 257.934 40.0461 257.946 37.7768C257.959 35.5098 258.91 33.5622 260.29 32.6133Z" fill="#D4CA86"/>
<path d="M263.863 28.9213C262.177 28.5814 260.438 27.1718 259.416 25.1157C258.391 23.0596 258.358 20.9054 259.164 19.4766C260.852 19.8177 262.592 21.2261 263.614 23.2845C264.637 25.3384 264.672 27.4935 263.863 28.9213Z" fill="#D4CA86"/>
<path d="M266.321 23.734C265.05 22.7247 264.239 20.7933 264.342 18.6243C264.444 16.4551 265.432 14.628 266.793 13.7695C268.064 14.7778 268.876 16.708 268.772 18.8782C268.672 21.0463 267.682 22.8754 266.321 23.734Z" fill="#D4CA86"/>
<path d="M253.588 9.62105C255.142 9.4672 257.08 10.2288 258.609 11.7439C260.138 13.2589 260.85 15.1224 260.611 16.5782C259.055 16.7321 257.119 15.9704 255.59 14.4553C254.061 12.9405 253.348 11.079 253.588 9.62105Z" fill="#D4CA86"/>
<path d="M258.198 8.08975C257.536 6.2542 257.715 4.43578 258.531 3.3125C259.918 3.76864 261.245 5.12974 261.908 6.96647C262.571 8.79983 262.391 10.6194 261.574 11.7427C260.188 11.2844 258.861 9.92531 258.198 8.08975Z" fill="#D4CA86"/>
<path d="M250.685 4.5126C249.255 3.10842 248.583 1.37836 248.801 0.0193139C250.246 -0.128093 252.052 0.572457 253.483 1.97766C254.912 3.38067 255.583 5.11307 255.367 6.46874C253.92 6.61835 252.114 5.9178 250.685 4.5126Z" fill="#D4CA86"/>
<path d="M266.838 30.9482C268.089 29.0416 269.969 27.8817 271.676 27.7773C272.307 29.3138 272.022 31.4551 270.773 33.3595C269.524 35.2651 267.643 36.426 265.935 36.5293C265.306 34.9916 265.589 32.8515 266.838 30.9482Z" fill="#D4CA86"/>
<defs>
<linearGradient id="paint0_linear_2620_21742" x1="85.9956" y1="26.808" x2="154.207" y2="26.808" gradientUnits="userSpaceOnUse">
<stop stop-color="#5AC04A"/>
<stop offset="1" stop-color="#3E765E"/>
</linearGradient>
</defs>
</svg>
