<svg fill="none" height="60" viewBox="0 0 272 60" width="272" xmlns="http://www.w3.org/2000/svg" xmlns:xlink="http://www.w3.org/1999/xlink"><linearGradient id="a" gradientUnits="userSpaceOnUse" x1="130.603" x2="237.011" y1="29.887" y2="29.887"><stop offset="0" stop-color="#5ac04a"/><stop offset="1" stop-color="#3e765e"/></linearGradient><g fill="#000"><path d="m50.0729 35.3039v15.6654h-1.7708v-.8782h-11.3329v.8782h-1.6814v-15.6654h14.7817zm-1.7708 13.2479v-11.7086h-11.3329v11.7086zm-.8389-2.7584v1.3775h-9.5278v-1.3775h3.8785v-2.6482h-3.1633v-1.4154h3.1633v-2.166h-3.6275v-1.4671h8.9192v1.4671h-3.7376v2.166h3.3422v1.4154h-3.3422v2.6482h2.4654c-.3232-.5544-1.0006-1.3603-1.592-1.9526l1.0556-.5716c.6086.5544 1.3238 1.3602 1.6607 1.863l-1.0899.6612h1.5919z"/><path d="m67.7869 48.927c0 .9849-.2338 1.4842-.8939 1.7528-.6602.2859-1.7708.3031-3.3421.3031-.0723-.4649-.3404-1.2363-.5708-1.684 1.1622.0551 2.3759.0551 2.7163.0344.3404-.0172.447-.1067.447-.4304v-9.756h-4.7175c-.0344.699-.1238 1.4325-.2854 2.2005 1.6436 1.4842 3.6997 3.454 4.7381 4.7248l-1.3581 1.0916c-.8218-1.0916-2.4138-2.7756-3.8957-4.2082-.698 1.6289-1.9496 3.2061-4.1467 4.494-.2132-.3581-.7874-.9504-1.1794-1.2535 3.7169-1.9698 4.3255-4.7626 4.4149-7.0527h-4.6487v11.8532h-1.6607v-13.4614h6.3266v-3.0063h1.7158v3.0063h6.3472v11.3849z"/><path d="m76.0274 42.1258-1.0384 1.5944c-.949-.6819-2.8435-1.8975-3.9851-2.507l1.0178-1.5393c1.1278.6095 3.1633 1.863 4.0057 2.4519zm1.8051 4.2082c2.9846-1.7012 5.3983-4.1015 6.8459-6.6429l1.0727 1.8975c-1.5919 2.4347-4.0744 4.7247-6.9696 6.4087-1.8051 1.0572-4.3083 1.9147-5.9346 2.2212l-1.0556-1.8424c1.9839-.3409 4.1639-1.0021 6.0412-2.0421zm.8768-8.165-1.0556 1.5393c-.9111-.6612-2.8229-1.9319-3.9335-2.5587l1.0178-1.5393c1.1072.6267 3.1289 1.9526 3.9679 2.5587z"/><path d="m98.3745 48.0681c.4642 0 .9112-.0551 1.2688-.1068v1.8631c-.3748-.0345-.9662-.0551-1.2688-.0551h-9.8854c-.4126 0-.8939.0172-1.3581.0551v-1.8631c.447.0551.949.1068 1.3581.1068h3.9164v-6.2297h-3.0568c-.3404 0-.949.0172-1.3237.0551v-1.7907c.3919.0551.9833.0895 1.3031.0895h8.204c.447 0 .9284-.0344 1.3238-.0895v1.7907c-.4126-.0344-.9112-.0551-1.3238-.0551h-3.2905v6.2297h4.1295z"/><path d="m116.909 37.4524c-.161.1963-.446.5373-.591.7508-.77 1.3051-2.465 3.5814-4.38 4.9417l-1.482-1.1984c1.554-.9126 3.129-2.6861 3.648-3.7055h-9.813c-.698 0-1.324.0551-2.091.1068v-1.987c.66.0895 1.393.1618 2.091.1618h9.992c.412 0 1.217-.0551 1.502-.1239l1.128 1.0572zm-7.22 2.3796c0 4.6731-.268 8.1099-4.969 10.5274l-1.643-1.343c.519-.1791 1.145-.4649 1.716-.8782 2.554-1.6461 2.967-3.9017 2.967-6.8736 0-.4821-.017-.9126-.107-1.4326h2.039z"/></g><path d="m165.31 50.4115h-9.961l-14.726-25.9001v25.9001h-10.02v-41.62058h10.02l14.699 25.90008v-25.90008h9.988zm4.68-15.7515c0-3.0856.598-5.8371 1.798-8.2477s2.919-4.2633 5.165-5.5615c2.245-1.2949 4.879-1.9423 7.904-1.9423 4.625 0 8.266 1.436 10.931 4.3012 2.665 2.8686 3.995 6.7703 3.995 11.7051v.3444c0 4.8212-1.337 8.6471-4.009 11.4779-2.675 2.8307-6.292 4.246-10.858 4.246s-7.926-1.3189-10.59-3.9602c-2.665-2.6379-4.102-6.2159-4.309-10.734zm9.617.5992c0 2.8583.447 4.9555 1.341 6.2882s2.218 2.0008 3.968 2.0008c3.425 0 5.175-2.6379 5.25-7.9171v-.9711c0-5.5444-1.77-8.32-5.309-8.32-3.214 0-4.958 2.3934-5.222 7.1732l-.028 1.7426zm30.368 5.8026c1.523 0 2.788.4546 3.796 1.3569 1.007.9057 1.513 2.0627 1.513 3.4712s-.506 2.569-1.513 3.4747c-1.008.9057-2.273 1.3568-3.796 1.3568s-2.813-.458-3.81-1.3706c-1-.916-1.499-2.0662-1.499-3.4574 0-1.3913.499-2.5449 1.499-3.4575.997-.916 2.269-1.3706 3.81-1.3706zm27.032 9.3462h-9.648v-30.7591l-9.476 2.7722v-7.3179l18.237-6.31572h.884v41.62052z" fill="url(#a)"/><path d="m44.6809 20.9324v1.9433h-10.6001l-.0808-1.4676 6.3399-9.9593h1.9484l-2.1099 3.6234-3.6445 5.8602zm-1.8374-9.4836v14.7365h-2.4329v-14.7365z" fill="#000"/><path d="m56.0184 20.9324v1.9433h-10.6001l-.0808-1.4676 6.3399-9.9593h1.9484l-2.1099 3.6234-3.6445 5.8602zm-1.8374-9.4836v14.7365h-2.4329v-14.7365z" fill="#000"/><path d="m62.3844 21.3764v-3.6689h4.1557v3.6689zm13.3976 0h-7.2571v-3.6689h5.7684v-1.8034h-5.7684v-2.8605h6.244v-1.8656h-11.971c.2688-.6218.5582-1.30585.8063-1.94843l-1.9435-.51821c-.951 2.75684-2.6051 5.38934-4.5072 7.02694.4755.2902 1.3026.912 1.6747 1.2437 1.0545-1.0365 2.0882-2.4045 2.9773-3.9384h4.7346v2.8605h-6.0785v5.4723h-3.3288v1.8655h9.4073v4.581h1.9848v-4.581h7.2571z" fill="#000"/><path d="m88.8281 16.2357c-.5996-1.4302-1.9021-3.4409-3.246-4.9333l-1.7574.8499c1.2818 1.5131 2.6051 3.6689 3.1426 5.0784zm-3.3081 3.8555c-1.1991.5182-2.419 1.0364-3.6181 1.5339l-.3515-11.73222-2.0055.08291.3928 12.45771c-1.0544.4146-2.0262.7877-2.8118 1.0779l.7029 2.0106c2.295-.9742 5.3343-2.2801 8.1461-3.5652zm10.8959 6.1356c-.9924-1.4717-3.0599-3.6896-4.8173-5.5137 1.3852-2.7776 2.1502-6.26 2.6257-10.6129l-2.1088-.20732c-.8477 8.72662-2.998 13.72212-9.8622 16.27172.4962.3939 1.2819 1.2852 1.5507 1.6997 2.9979-1.2851 5.1688-3.0263 6.7195-5.3271 1.654 1.8033 3.3907 3.8554 4.2797 5.2442z" fill="#000"/><path d="m107.353 24.8795v-7.711h7.464v-1.9277h-7.464v-6.15633h-2.067v15.79503h-7.5469v1.9484h18.5049v-1.9484z" fill="#000"/><g fill="#d4ca86"><path d="m20.6753 54.8956c-2.5578-.8069-5.1151-.5627-6.7138.466.6063 1.7193 2.4846 3.3547 5.0435 4.1586 2.5568.8047 5.1147.5627 6.7128-.4671-.6063-1.7182-2.4852-3.3569-5.0425-4.1575z"/><path d="m18.729 52.1749c1.2543-1.2848 1.8724-3.513 1.4552-5.878-.4166-2.3639-1.7584-4.2329-3.3738-4.9893-1.2531 1.2836-1.874 3.5129-1.4558 5.8778.4168 2.363 1.7596 4.2351 3.3744 4.9895z"/><path d="m10.1202 45.1494c-2.20791-1.3804-4.71382-1.7475-6.53133-1.1309.08595 1.8055 1.408 3.8282 3.61609 5.2088 2.20749 1.3794 4.71284 1.7462 6.53074 1.1287-.0864-1.8065-1.408-3.8261-3.6155-5.2066z"/><path d="m11.7284 32.6085c-1.3716 1.0027-2.30323 2.99-2.29065 5.2581.01198 2.2681.96415 4.2168 2.34655 5.1647 1.3721-1.0049 2.3032-2.9901 2.2907-5.2593-.0126-2.267-.9648-4.2146-2.3466-5.1635z"/><path d="m8.15901 28.9214c1.68821-.34 3.42969-1.7496 4.45299-3.8056 1.0262-2.0561 1.0587-4.2104.2515-5.6392-1.6894.3411-3.43127 1.7496-4.45461 3.808-1.02497 2.0539-1.05929 4.209-.24988 5.6368z"/><path d="m5.68691 23.7296c1.27263-1.0093 2.08411-2.9407 1.98099-5.1098-.10164-2.1692-1.0908-3.9962-2.45309-4.8547-1.27277 1.0082-2.08588 2.9384-1.98217 5.1087.1006 2.168 1.09139 3.9971 2.45427 4.8558z"/><path d="m18.4382 9.61904c-1.5562-.15386-3.4964.60776-5.0276 2.12286-1.5308 1.515-2.2435 3.3785-2.0039 4.8343 1.5572.1538 3.4965-.6078 5.0273-2.1229 1.5308-1.5148 2.2439-3.3763 2.0042-4.83426z"/><path d="m13.8074 8.09158c.6627-1.83555.4835-3.65397-.3334-4.77725-1.389.45614-2.7177 1.81724-3.3815 3.65397-.66324 1.83336-.48333 3.6529.3347 4.7762 1.3878-.4583 2.7164-1.81736 3.3802-3.65292z"/><path d="m21.3257 4.5126c1.4318-1.40418 2.105-3.13424 1.8866-4.4932861-1.447-.1474069-3.2548.5531431-4.6882 1.9583461-1.4304 1.40301-2.1018 3.13541-1.8855 4.49109 1.4481.1496 3.2565-.55095 4.6871-1.95615z"/><path d="m5.1681 30.9478c-1.25206-1.9066-3.13423-3.0665-4.843592-3.1708-.631728 1.5365-.3466366 3.6777.903802 5.5821 1.25044 1.9056 3.13408 3.0665 4.84359 3.1699.63025-1.5377.34664-3.6779-.9038-5.5812z"/><path d="m251.325 54.8956c2.558-.8069 5.115-.5627 6.714.466-.607 1.7193-2.485 3.3547-5.044 4.1586-2.557.8047-5.115.5627-6.713-.4671.607-1.7182 2.486-3.3569 5.043-4.1575z"/><path d="m253.271 52.1749c-1.254-1.2848-1.872-3.513-1.455-5.878.416-2.3639 1.758-4.2329 3.374-4.9893 1.253 1.2836 1.874 3.5129 1.455 5.8778-.416 2.363-1.759 4.2351-3.374 4.9895z"/><path d="m261.88 45.1494c2.208-1.3804 4.714-1.7475 6.531-1.1309-.086 1.8055-1.408 3.8282-3.616 5.2088-2.207 1.3794-4.713 1.7462-6.53 1.1287.086-1.8065 1.408-3.8261 3.615-5.2066z"/><path d="m260.272 32.6085c1.371 1.0027 2.303 2.99 2.29 5.2581-.012 2.2681-.964 4.2168-2.346 5.1647-1.372-1.0049-2.303-2.9901-2.291-5.2593.013-2.267.965-4.2146 2.347-5.1635z"/><path d="m263.841 28.9214c-1.688-.34-3.43-1.7496-4.453-3.8056-1.026-2.0561-1.059-4.2104-.251-5.6392 1.689.3411 3.431 1.7496 4.454 3.808 1.025 2.0539 1.06 4.209.25 5.6368z"/><path d="m266.313 23.7296c-1.272-1.0093-2.084-2.9407-1.981-5.1098.102-2.1692 1.091-3.9962 2.453-4.8547 1.273 1.0082 2.086 2.9384 1.982 5.1087-.1 2.168-1.091 3.9971-2.454 4.8558z"/><path d="m253.562 9.61904c1.556-.15386 3.496.60776 5.028 2.12286 1.53 1.515 2.243 3.3785 2.003 4.8343-1.557.1538-3.496-.6078-5.027-2.1229-1.531-1.5148-2.244-3.3763-2.004-4.83426z"/><path d="m258.193 8.09158c-.663-1.83555-.484-3.65397.333-4.77725 1.389.45614 2.718 1.81724 3.381 3.65397.664 1.83336.484 3.6529-.334 4.7762-1.388-.4583-2.717-1.81736-3.38-3.65292z"/><path d="m250.674 4.5126c-1.431-1.40418-2.105-3.13424-1.886-4.4932861 1.447-.1474069 3.255.5531431 4.688 1.9583461 1.43 1.40301 2.102 3.13541 1.885 4.49109-1.448.1496-3.256-.55095-4.687-1.95615z"/><path d="m266.832 30.9478c1.252-1.9066 3.134-3.0665 4.843-3.1708.632 1.5365.347 3.6777-.903 5.5821-1.251 1.9056-3.134 3.0665-4.844 3.1699-.63-1.5377-.347-3.6779.904-5.5812z"/></g></svg>