<svg fill="none" height="60" viewBox="0 0 272 60" width="272" xmlns="http://www.w3.org/2000/svg" xmlns:xlink="http://www.w3.org/1999/xlink"><linearGradient id="a" gradientUnits="userSpaceOnUse" x1="86.4114" x2="154.747" y1="26.6479" y2="26.6479"><stop offset="0" stop-color="#5ac04a"/><stop offset="1" stop-color="#3e765e"/></linearGradient><g fill="#000"><path d="m52.5183 40.0397v-.9263h-3.5979v1.0124h-2.0388v-7.0286h-3.5979v9.3669h13.8364v2.0042h-13.8364v1.5221h-2.0833v-12.8932h-3.2004v-1.9629h3.2004v-4.7592h2.0833v4.7592h3.5979v-5.2241h2.0388v5.2241h3.5979v-4.9796h2.0628v4.9796h3.31v1.9629h-3.31v6.9425zm0-2.841v-4.098h-3.5979v4.098z"/><path d="m74.5748 35.4816c1.6002 1.5428 4.0125 2.7997 6.4899 3.4368-.4591.4202-1.0759 1.2122-1.3809 1.7425-1.446-.4614-2.8509-1.1674-4.1221-2.0042v7.2938h-2.1039v-7.6485h1.6242c-1.0965-.8162-2.1039-1.7838-2.8715-2.8204h-2.3472c-.7881 1.0125-1.7989 1.9836-2.916 2.7997h1.8195v1.412c0 2.0937-.5276 4.7833-4.8451 6.4569-.2399-.5303-.9217-1.2776-1.3809-1.6736 3.7281-1.3018 4.1461-3.306 4.1461-4.8488v-1.1467c-1.3603.947-2.8509 1.7184-4.362 2.2694-.3084-.5304-.8977-1.2776-1.3603-1.6978 2.3472-.6818 4.78-2.0042 6.4042-3.5711h-3.9679v-8.9915h15.1727v8.9915h-3.9919zm-9.166-5.3102h4.4717v-2.0042h-4.4717zm0 3.6366h4.4717v-2.049h-4.4717zm11.0506-5.6408h-4.5162v2.0042h4.5162zm0 3.5918h-4.5162v2.049h4.5162z"/><path d="m171.027 24.5428c-.037.2101-.061.4718-.075.6337-.038 1.25-.199 4.7971-.74 6.0127-.261.5716-.679.8437-1.432.8437-.665 0-1.395-.0482-2.012-.0861l-.147-1.3017c.63.0861 1.281.1481 1.788.1481.371 0 .569-.1102.703-.4202.418-.8678.579-3.671.579-5.0071h-3.156c-.456 3.4471-1.679 5.3412-3.8 6.8426l-1.134-.9298c.445-.2342.987-.6198 1.419-1.04 1.195-1.1295 1.949-2.6275 2.258-4.8728h-1.875c-.455 0-1.035.0138-1.504.0482v-1.2879c.469.0378 1.025.0757 1.504.0757h1.988c.024-.3719.037-.7679.037-1.1777 0-.2859-.037-.7921-.085-1.0779h1.442c-.024.2858-.048.7438-.061 1.04-.014.4201-.038.8299-.062 1.2156h2.662c.322 0 .603-.0379.85-.0757l.85.4201z"/><path d="m183.375 21.9052v10.8477h-1.22v-.6061h-7.819v.6061h-1.158v-10.8477h10.201zm-1.22 9.174v-8.1064h-7.819v8.1064zm-.579-1.9078v.9539h-6.575v-.9539h2.676v-1.8355h-2.183v-.978h2.183v-1.5014h-2.505v-1.0159h6.154v1.0159h-2.577v1.5014h2.306v.978h-2.306v1.8355h1.703c-.222-.3857-.692-.9436-1.096-1.3499l.726-.396c.418.3857.912.9435 1.148 1.2879l-.754.458h1.097z"/><path d="m166.41 44.3919c-1.679.7679-3.492 1.5496-4.859 2.1316l-.418-1.2018c.47-.1722 1.049-.3961 1.679-.644l-.233-7.4487 1.196-.0483.209 7.0149c.716-.2962 1.443-.6061 2.159-.9161l.27 1.1158zm5.267 3.485c-.531-.8299-1.566-2.0594-2.553-3.1372-.925 1.3775-2.221 2.4174-4.009 3.1854-.161-.248-.631-.7817-.925-1.0159 4.094-1.5256 5.376-4.5112 5.883-9.7319l1.258.124c-.285 2.6034-.741 4.6869-1.566 6.3467 1.048 1.0917 2.282 2.4175 2.875 3.2956l-.963.9298zm-4.674-6.3089c-.322-.8437-1.11-2.1316-1.874-3.0373l1.048-.5097c.802.8919 1.58 2.0938 1.936 2.9513z"/><path d="m184.719 46.1423v1.164h-11.041v-1.164h4.503v-9.4461h1.234v3.6813h4.451v1.1537h-4.451v4.6111z"/></g><path d="m119.406 9.32608-17.113 40.33602h-11.1975l17.1425-37.8083h-21.83v-8.22016h32.994v5.68899zm35.341 21.52652c0 6.2159-1.388 11.013-4.167 14.3844s-6.695 5.0588-11.749 5.0588-9.04-1.6978-11.829-5.0898c-2.789-3.3921-4.184-8.1754-4.184-14.3534v-8.4095c0-6.2158 1.388-11.0129 4.167-14.3843 2.779-3.37139 6.706-5.0588 11.781-5.0588 5.074 0 9.005 1.69774 11.794 5.08979 2.789 3.39201 4.184 8.18911 4.184 14.38431v8.3785zm-10.602-9.7697c0-3.3094-.428-5.7786-1.288-7.4143-.86-1.6323-2.224-2.4485-4.088-2.4485s-3.152.7576-3.978 2.2763c-.829 1.5187-1.275 3.8156-1.337 6.8908v11.7603c0 3.4368.429 5.9473 1.289 7.5382.86 1.591 2.224 2.3865 4.088 2.3865s3.135-.7748 3.995-2.3245c.86-1.5496 1.299-3.9774 1.323-7.2868v-11.3815z" fill="url(#a)"/><path d="m206.914 40.0696h4.736v1.5875h-4.736v2.2694c0 .9918-.198 1.4981-.966 1.7839-.747.2651-1.884.2858-3.618.2651-.065-.5062-.374-1.2569-.638-1.7425 1.251.0448 2.478.0448 2.807.0207.349-.0207.459-.0895.459-.3754v-2.2246h-7.631c1.031.6819 2.193 1.5875 2.806 2.2694l-1.49 1.2776c-.614-.7507-1.953-1.8734-3.05-2.6l1.117-.947h-4.824v-1.5875h13.068v-1.1468c-1.6 0-3.114 0-4.166-.0448-2.258-.0895-3.838-.6405-4.935-1.9629-1.051.706-2.127 1.4119-3.289 2.1833l-.747-1.6736c.877-.4201 1.929-1.0125 2.895-1.6082v-2.9099h-2.741v-1.5635h4.585v4.1876c.788 1.2328 2.282 1.7631 4.211 1.8286 2.567.0895 8.224.0206 11.119-.155-.198.396-.459 1.1226-.548 1.6082-1.141.0448-2.762.0895-4.43.1102v1.1468zm-11.424-10.0039c-.569-.8369-1.819-2.0284-2.916-2.8204l1.337-1.1227c1.096.7507 2.412 1.8734 3.005 2.6895l-1.426 1.257zm7.522-.0448c.089-.2858.154-.6164.219-.9264h-5.832v-1.4326h3.464c-.219-.5062-.548-1.0813-.857-1.5427l1.645-.3754c.439.551.898 1.3224 1.141 1.9181h3.379c.394-.5957.832-1.3878 1.096-1.9388l1.909.3754c-.35.5717-.723 1.102-1.097 1.5634h3.509v1.4326h-6.445c-.13.3306-.264.6406-.374.9264h5.044v6.4776h-10.701v-6.4776h3.903zm4.804 1.0124h-6.799v.8162h6.799zm0 1.7839h-6.799v.8609h6.799zm0 1.8286h-6.799v.8609h6.799z" fill="#000"/><path d="m226.127 27.0432c0 3.9878.504 12.1666 8.858 17.1221-.459.3513-1.295 1.2328-1.645 1.7425-4.979-3.0201-7.322-7.5141-8.398-11.5708-1.625 5.3102-4.366 9.1671-8.419 11.6156-.395-.4202-1.337-1.2776-1.885-1.653 4.715-2.445 7.367-6.7875 8.638-12.7589l1.117.1997c-.154-.9263-.24-1.8286-.284-2.6241h-5.219v-2.0731z" fill="#000"/><g fill="#d4ca86"><path d="m20.6865 54.8956c-2.5592-.8069-5.1178-.5627-6.7174.466.6066 1.7193 2.486 3.3547 5.0462 4.1586 2.5582.8047 5.1174.5627 6.7164-.4671-.6066-1.7182-2.4865-3.3569-5.0452-4.1575z"/><path d="m18.7392 52.1749c1.2549-1.2848 1.8734-3.513 1.456-5.878-.4169-2.3639-1.7593-4.2329-3.3756-4.9893-1.2538 1.2836-1.8751 3.5129-1.4566 5.8778.417 2.363 1.7605 4.2351 3.3762 4.9895z"/><path d="m10.1257 45.1494c-2.20912-1.3804-4.71638-1.7475-6.53488-1.1309.086 1.8055 1.40876 3.8282 3.61805 5.2088 2.2087 1.3794 4.71533 1.7462 6.53433 1.1287-.0865-1.8065-1.4088-3.8261-3.6175-5.2066z"/><path d="m11.7348 32.6085c-1.3724 1.0027-2.30451 2.99-2.29193 5.2581.01199 2.2681.96473 4.2168 2.34783 5.1647 1.3728-1.0049 2.3045-2.9901 2.2919-5.2593-.0126-2.267-.9653-4.2146-2.3478-5.1635z"/><path d="m8.16334 28.9214c1.68913-.34 3.43156-1.7496 4.45546-3.8056 1.0267-2.0561 1.0593-4.2104.2516-5.6392-1.6903.3411-3.43314 1.7496-4.45704 3.808-1.02552 2.0539-1.05987 4.209-.25002 5.6368z"/><path d="m5.69008 23.7296c1.27332-1.0093 2.08524-2.9407 1.98206-5.1098-.10169-2.1692-1.09139-3.9962-2.45441-4.8547-1.27347 1.0082-2.08702 2.9384-1.98326 5.1087.10066 2.168 1.09199 3.9971 2.45561 4.8558z"/><path d="m18.4483 9.61904c-1.5571-.15386-3.4983.60776-5.0304 2.12286-1.5316 1.515-2.2446 3.3785-2.005 4.8343 1.5581.1538 3.4985-.6078 5.0301-2.1229 1.5316-1.5148 2.2451-3.3763 2.0053-4.83426z"/><path d="m13.815 8.09158c.663-1.83555.4838-3.65397-.3336-4.77725-1.3897.45614-2.7191 1.81724-3.3833 3.65397-.6636 1.83336-.4836 3.6529.3348 4.7762 1.3887-.4583 2.7179-1.81736 3.3821-3.65292z"/><path d="m21.3373 4.5126c1.4326-1.40418 2.1061-3.13424 1.8876-4.4932861-1.4478-.1474069-3.2565.5531431-4.6908 1.9583461-1.4311 1.40301-2.1028 3.13541-1.8864 4.49109 1.4489.1496 3.2582-.55095 4.6896-1.95615z"/><path d="m5.17091 30.9478c-1.25275-1.9066-3.13593-3.0665-4.846226-3.1708-.632071 1.5365-.3468246 3.6777.904296 5.5821 1.25111 1.9056 3.13578 3.0665 4.84622 3.1699.63059-1.5377.34682-3.6779-.90429-5.5812z"/><path d="m251.313 54.8956c2.56-.8069 5.118-.5627 6.718.466-.607 1.7193-2.486 3.3547-5.046 4.1586-2.559.8047-5.118.5627-6.717-.4671.607-1.7182 2.487-3.3569 5.045-4.1575z"/><path d="m253.261 52.1749c-1.255-1.2848-1.874-3.513-1.456-5.878.417-2.3639 1.759-4.2329 3.375-4.9893 1.254 1.2836 1.875 3.5129 1.457 5.8778-.417 2.363-1.76 4.2351-3.376 4.9895z"/><path d="m261.87 45.1494c2.209-1.3804 4.717-1.7475 6.535-1.1309-.086 1.8055-1.409 3.8282-3.618 5.2088-2.209 1.3794-4.715 1.7462-6.534 1.1287.086-1.8065 1.409-3.8261 3.617-5.2066z"/><path d="m260.269 32.6085c1.373 1.0027 2.305 2.99 2.292 5.2581-.012 2.2681-.964 4.2168-2.348 5.1647-1.372-1.0049-2.304-2.9901-2.291-5.2593.012-2.267.965-4.2146 2.347-5.1635z"/><path d="m263.832 28.9214c-1.689-.34-3.431-1.7496-4.455-3.8056-1.027-2.0561-1.059-4.2104-.252-5.6392 1.691.3411 3.433 1.7496 4.457 3.808 1.026 2.0539 1.06 4.209.25 5.6368z"/><path d="m266.31 23.7296c-1.273-1.0093-2.085-2.9407-1.982-5.1098.102-2.1692 1.091-3.9962 2.454-4.8547 1.274 1.0082 2.087 2.9384 1.984 5.1087-.101 2.168-1.092 3.9971-2.456 4.8558z"/><path d="m253.552 9.61904c1.557-.15386 3.498.60776 5.03 2.12286 1.532 1.515 2.245 3.3785 2.005 4.8343-1.558.1538-3.498-.6078-5.03-2.1229-1.532-1.5148-2.245-3.3763-2.005-4.83426z"/><path d="m258.185 8.09158c-.663-1.83555-.484-3.65397.334-4.77725 1.389.45614 2.719 1.81724 3.383 3.65397.664 1.83336.484 3.6529-.335 4.7762-1.389-.4583-2.718-1.81736-3.382-3.65292z"/><path d="m250.659 4.5126c-1.433-1.40418-2.107-3.13424-1.888-4.4932861 1.448-.1474069 3.256.5531431 4.691 1.9583461 1.431 1.40301 2.103 3.13541 1.886 4.49109-1.449.1496-3.258-.55095-4.689-1.95615z"/><path d="m266.829 30.9478c1.253-1.9066 3.136-3.0665 4.846-3.1708.632 1.5365.347 3.6777-.904 5.5821-1.251 1.9056-3.136 3.0665-4.846 3.1699-.631-1.5377-.347-3.6779.904-5.5812z"/></g></svg>