<svg fill="none" height="60" viewBox="0 0 272 60" width="272" xmlns="http://www.w3.org/2000/svg" xmlns:xlink="http://www.w3.org/1999/xlink"><linearGradient id="a" gradientUnits="userSpaceOnUse" x1="108.058" x2="204.248" y1="28.5471" y2="28.5471"><stop offset="0" stop-color="#5ac04a"/><stop offset="1" stop-color="#3e765e"/></linearGradient><g fill="#000"><path d="m45.7605 20.7322c-.1441 1.5255-.7034 2.7136-1.6814 3.5677-.9779.854-2.2784 1.281-3.9015 1.281-1.1358 0-2.1343-.2686-2.999-.8093-.8648-.5406-1.5304-1.3086-2.0006-2.3003-.4701-.9918-.7137-2.1489-.7343-3.4644v-1.3362c0-1.3465.2368-2.5345.7138-3.5642.4769-1.0297 1.1598-1.8183 2.0485-2.3761.8888-.5579 1.9182-.8334 3.0849-.8334 1.5716 0 2.8377.427 3.7951 1.281.9574.8541 1.5167 2.0628 1.6711 3.6262h-2.4637c-.1167-1.0262-.4152-1.7666-.8956-2.2246-.4804-.4546-1.1805-.6818-2.1069-.6818-1.0775 0-1.901.396-2.481 1.1846-.5799.7886-.8715 1.9457-.8853 3.4747v1.2673c0 1.5462.2746 2.7239.827 3.5367.5525.8127 1.3589 1.219 2.4226 1.219.9711 0 1.702-.2204 2.1892-.6577.4873-.4374.7996-1.1674.93-2.1902h2.4637z"/><path d="m59.3348 18.6135c0 1.4016-.2402 2.6276-.7241 3.6848-.4838 1.0572-1.1735 1.8699-2.0691 2.4347s-1.9285.8506-3.0952.8506c-1.1666 0-2.1823-.2824-3.0848-.8506-.9025-.5648-1.6025-1.374-2.0932-2.4209-.4941-1.0469-.7412-2.2557-.748-3.6228v-.8058c0-1.3947.2471-2.6241.7377-3.6917.4907-1.0675 1.1873-1.8837 2.0829-2.4484.8956-.5648 1.925-.8506 3.0849-.8506 1.1598 0 2.1892.2789 3.0848.8402.8956.5579 1.5888 1.3637 2.0794 2.4141.4907 1.0503.7378 2.2728.7447 3.6675v.7955zm-2.4741-.7472c0-1.5841-.2985-2.7963-.8956-3.6435-.5971-.8471-1.4412-1.2673-2.5392-1.2673-1.0981 0-1.9045.4202-2.5084 1.2604-.6039.8403-.9128 2.0318-.9231 3.5677v.8231c0 1.5703.3054 2.7859.9162 3.6434s1.455 1.2845 2.5393 1.2845 1.9387-.4201 2.5289-1.257c.5902-.8368.8853-2.0627.8853-3.6709v-.7473z"/><path d="m70.9914 25.3846h-9.5771v-1.6392l4.7456-5.1931c.6863-.7645 1.1736-1.405 1.4618-1.9181.2917-.5131.4358-1.0297.4358-1.5462 0-.6819-.1922-1.2294-.573-1.6496-.3809-.4201-.8956-.6267-1.5407-.6267-.7687 0-1.3657.2341-1.7912.7059s-.6349 1.1158-.6349 1.9354h-2.3779c0-.8713.1956-1.653.5902-2.3521.3946-.6956.9573-1.2397 1.6917-1.6254.7343-.3857 1.5784-.5785 2.5392-.5785 1.3829 0 2.4741.3478 3.2736 1.0469.7995.6956 1.1976 1.6598 1.1976 2.8927 0 .7128-.1991 1.4601-.6005 2.2418-.4015.7817-1.0569 1.6702-1.9697 2.6654l-3.4829 3.7399h6.6124v1.9044z"/><path d="m39.6721 42.7227c-.6073.1963-1.2318.3926-1.8358.5923v4.9934c0 .823-.1612 1.2707-.6416 1.5393-.4804.2514-1.177.3031-2.3197.3031-.0343-.3926-.2333-1.1089-.4461-1.5394.7138.0172 1.3726.0172 1.5682 0 .2333 0 .3225-.0551.3225-.303v-4.5285c-.6965.2135-1.3554.4133-1.9456.6095l-.374-1.6116c.6417-.1619 1.4446-.3926 2.3196-.644v-3.4024h-2.0691v-1.5393h2.0691v-3.454h1.5167v3.454h1.7844v1.5393h-1.7844v2.9547l1.6231-.4821.2127 1.5221zm2.9785-9.0225h1.4789v7.5004c0 3.5435-.3911 6.7668-3.5515 8.9502-.2676-.3238-.8201-.861-1.1769-1.1089 1.4617-.9849 2.2818-2.2005 2.7279-3.5642-.875.3409-1.7466.6611-2.5324.9504l-.6416-1.4326c.947-.2514 2.2132-.6439 3.5309-1.0744.0892-.6612.1441-1.343.1613-2.0421h-2.6388v-1.4843h2.6388v-2.2005h-2.7829v-1.5049h2.7829v-2.9891zm7.9026 12.0667h-3.2633v4.3494h-1.5716v-16.4161h1.5716v2.9891h2.9613v1.5049h-2.9613v2.2005h2.7657v1.4843h-2.7657v2.3624h3.2633v1.5221z"/><path d="m67.2135 42.7275v7.3936h-1.7122v-1.0572h-10.5414v1.0917h-1.6779v-7.4281h1.6779v4.7075h4.2996v-5.7819h-5.2981v-6.2469h1.6574v4.6352h3.6407v-6.1952h1.6951v6.1952h3.8158v-4.6559h1.7466v6.2676h-5.5658v5.7819h4.5501v-4.7075z"/><path d="m86.1056 48.4497v1.2707h-16.0728v-1.2707h7.1889v-.8609h-5.6722v-1.1296h5.6722v-.8058h-5.2261v-4.4768h12.2364v4.4768h-5.4044v.8058h5.7613v1.1296h-5.7613v.8609zm-.0721-7.9481h-15.9286v-1.219h15.9286zm-2.2818-1.8975h-11.4335v-4.3321h11.4335zm-10.1845 4.3494h3.6579v-.823h-3.6579zm3.6579 1.7529v-.8403h-3.6579v.8403zm4.852-9.5253h-8.153v.8058h8.153zm0 1.684h-8.153v.823h8.153zm.5353 5.262h-3.7814v.823h3.7814zm0 1.7356h-3.7814v.8402h3.7814z"/><path d="m90.2479 45.6015c-.1613 1.1639-.4461 2.3692-.827 3.1613-.1853-.1378-.6417-.3478-.8784-.4339.3706-.7439.6039-1.8355.7274-2.8996l.9746.1722zm2.2853-3.3094c.5079.8058 1.0123 1.8596 1.1873 2.5414l-.8785.4202c-.048-.1998-.1235-.434-.223-.6957l-.9128.062v5.107h-1.0259v-5.045c-.7035.0379-1.3589.0758-1.9285.1102l-.0995-1.0159.8647-.0241c.2333-.2962.4701-.6199.7172-.9677-.3844-.5441-1.0123-1.2156-1.5579-1.7356l.5559-.768c.1098.0999.223.1998.3328.2962.3844-.6818.7893-1.5738 1.0123-2.2418l1.0363.3719c-.4461.8437-.9642 1.8217-1.4069 2.4898.2334.2479.4461.4959.604.7197.4804-.7438.9264-1.5118 1.249-2.1557l.9745.4201c-.7034 1.1295-1.6299 2.4932-2.4569 3.5194l1.6437-.0619c-.1613-.3479-.3329-.6819-.5182-.9918l.827-.3582zm.3088 3.0752c.3329.7438.6657 1.7115.803 2.3417l-.9128.3237c-.1098-.644-.446-1.6254-.7549-2.3796zm6.9658-4.315c-.2093 5.4652-.3706 7.4006-.8887 8.0342-.2951.4098-.6039.52-1.0878.5716-.4186.062-1.1735.0483-1.901.0138-.024-.334-.1613-.8299-.3843-1.1536.803.062 1.5441.0757 1.8392.0757.2608 0 .3947-.0482.5319-.21.3946-.396.5936-2.2315.7549-6.7807h-3.7677c-.3328.6337-.7034 1.2019-1.0877 1.6599-.2231-.1997-.7412-.5338-1.0123-.6956.9402-1.0056 1.7054-2.6172 2.1378-4.2392l1.1735.272c-.1853.644-.4186 1.288-.6794 1.8975h4.3716v.5579zm-3.7917 5.5168c-.2471-.7576-.9265-1.9594-1.5819-2.8513l.9265-.458c.6657.8437 1.3966 2.0214 1.6677 2.7893z"/></g><path d="m137.036 33.2581h4.664v8.2201h-4.664v9.7698h-10.616v-9.7698h-17.734l-.631-6.512 18.365-29.65371v-.09643h10.616v28.03864zm-18.869 0h8.253v-14.1605l-.663 1.0745zm28.821-4.4975 2.803-23.54454h26.806v8.28214h-18.176l-1.04 9.143c.755-.4442 1.747-.8368 2.975-1.1743 1.229-.3375 2.43-.5097 3.607-.5097 4.557 0 8.057 1.3534 10.503 4.0636 2.447 2.7067 3.669 6.5086 3.669 11.3952 0 2.9512-.656 5.6236-1.97 8.0135-1.314 2.3934-3.157 4.2323-5.528 5.5168-2.375 1.2845-5.178 1.9285-8.411 1.9285-2.875 0-5.576-.5958-8.094-1.7839-2.519-1.1881-4.495-2.8204-5.923-4.8969-1.427-2.0731-2.131-4.4183-2.11-7.0286h10.648c.106 1.6805.641 3.0167 1.605 4.005.965.9884 2.238 1.4843 3.813 1.4843 3.568 0 5.356-2.6517 5.356-7.9516 0-4.9003-2.186-7.3488-6.55-7.3488-2.478 0-4.327.7989-5.546 2.3968l-8.441-1.9939zm34.787 2.7102c0-1.5117.491-2.7343 1.476-3.6641.981-.9298 2.302-1.3947 3.953-1.3947 1.65 0 2.999.4615 3.97 1.3879.971.9263 1.458 2.1764 1.458 3.757v1.2122c0 1.5118-.487 2.7309-1.458 3.6503-.971.9195-2.285 1.3775-3.936 1.3775-1.65 0-2.961-.458-3.963-1.3706-.999-.9126-1.5-2.1661-1.5-3.7571v-1.1949zm3.638 1.2914c0 .5786.161 1.0504.487 1.4119.322.3616.772.5441 1.342.5441 1.173 0 1.76-.7472 1.76-2.2384v-1.0021c0-.5785-.158-1.0537-.47-1.4291-.313-.3719-.755-.5613-1.325-.5613-.569 0-.985.1825-1.307.5441-.323.3616-.487.854-.487 1.4773zm2.899 16.6503-2.632-1.3292 11.914-19.1367 2.632 1.3293zm5.061-4.1703c0-1.5256.495-2.7481 1.483-3.6641s2.302-1.3775 3.946-1.3775 2.989.4546 3.97 1.3637c.982.9092 1.476 2.1764 1.476 3.8019v1.1777c0 1.5256-.488 2.7481-1.459 3.6641s-2.288 1.3775-3.953 1.3775c-1.664 0-2.961-.458-3.963-1.3706-.999-.9126-1.5-2.1661-1.5-3.7571v-1.2122zm3.621 1.2914c0 .5234.178.9849.535 1.3775.357.396.793.5923 1.307.5923 1.085 0 1.671-.5131 1.761-1.5359l.017-1.7219c0-.5888-.161-1.0675-.487-1.4291-.323-.3616-.766-.5441-1.325-.5441s-.968.1687-1.29.5097c-.323.3409-.498.7989-.518 1.3774v1.3706z" fill="url(#a)"/><path d="m211.059 13.6566c-.22-1.1227-.834-2.8859-1.448-4.20825l1.692-.57165c.638 1.3017 1.297 2.996 1.557 4.1221l-1.801.6612zm8.5 12.1218c0 .9918-.199 1.5875-.879 1.8734-.659.3306-1.647.3753-3.229.3512-.065-.5303-.329-1.3878-.569-1.894 1.008.0447 2.021.0447 2.305.0447.309-.0206.419-.1102.419-.4201v-2.6h-5.336v4.9348h-1.932v-14.0606h3.535v-5.99547h2.021v5.99547h3.668v11.7671zm-7.292-9.8524v1.8733h5.336v-1.8733zm5.336 5.4651v-1.8527h-5.336v1.8527zm-.659-8.2649c.569-1.1915 1.252-3.0855 1.582-4.45268l2.065.50622c-.614 1.54276-1.338 3.30596-1.931 4.40796l-1.713-.4615zm6.677 9.6527h-1.976v-12.1425h1.976zm4.897-14.34644v17.23224c0 1.2777-.329 1.8734-1.077 2.204-.79.3306-2.107.396-4.108.396-.11-.5716-.439-1.5427-.724-2.1144 1.472.0654 2.855.0654 3.315.0448.394 0 .569-.1309.569-.5304v-17.23224h2.022z" fill="#000"/><path d="m212.812 41.9747c-.748-.6818-2.306-1.6323-3.579-2.1833l1.143-1.498c1.252.5062 2.834 1.3224 3.623 2.0283zm1.297 2.7998c-.789 2.4243-1.822 5.1552-2.79 7.2937l-1.846-1.0572c.879-1.7632 2.107-4.6938 2.985-7.2938l1.648 1.0573zm-.285-8.5714c-.748-.706-2.285-1.6978-3.558-2.3142l1.163-1.4532c1.252.5303 2.834 1.4119 3.603 2.1385l-1.208 1.6323zm15.129 3.2853c-.659 2.8858-1.602 5.3756-2.855 7.4935.419 1.894.923 3.0407 1.472 3.0649.374 0 .639-1.1468.769-3.2612.309.396 1.143.9022 1.448 1.0572-.46 3.7261-1.383 4.6283-2.217 4.6077-1.273-.0207-2.196-1.257-2.875-3.4162-1.033 1.2776-2.217 2.3796-3.579 3.306-.264-.3513-.988-1.0366-1.362-1.3431 1.777-1.0572 3.205-2.4691 4.371-4.1875-.504-2.4898-.813-5.7097-1.009-9.3669h-6.214v4.1428c0 3.2405-.309 7.8688-2.285 10.9096-.309-.3099-1.119-.8609-1.537-1.0572 1.822-2.841 2.021-6.8771 2.021-9.8524v-5.9507h7.95c-.044-1.0125-.089-2.0731-.11-3.151h1.867c.021 1.0572.045 2.1144.089 3.151h3.095c-.593-.706-1.756-1.6323-2.745-2.2694l1.098-1.0366c1.033.5958 2.262 1.5221 2.876 2.2488l-1.078 1.0572h1.033v1.8079h-4.193c.155 2.4898.35 4.7833.614 6.7015.68-1.4981 1.208-3.151 1.582-4.959l1.778.31zm-6.259 1.0124h-4.961v-1.5428h4.961zm-3.534 7.4935v1.2776h-1.407v-7.249h4.962v5.9714h-3.558zm0-4.4286v2.9099h2.131v-2.9099z" fill="#000"/><path d="m234.976 49.6332 2.244-2.2521.199.1963-2.244 2.2521 2.244 2.2522-.199.1997-2.244-2.2521-2.251 2.259-.196-.1997 2.251-2.2591-2.244-2.2521.196-.1963zm-1.428.1963c0 .279-.229.5131-.511.5131-.281 0-.511-.2307-.511-.5131s.23-.5131.511-.5131c.282 0 .511.2307.511.5131zm1.428-1.4326c-.278 0-.511-.2307-.511-.5131 0-.2823.23-.5131.511-.5131s.511.2308.511.5131c0 .2824-.23.5131-.511.5131zm0 2.8687c.278 0 .511.2307.511.5131 0 .2823-.23.5131-.511.5131s-.511-.2308-.511-.5131c0-.2824.23-.5131.511-.5131zm1.427-1.4326c0-.279.23-.5131.512-.5131.281 0 .511.2307.511.5131s-.23.5131-.511.5131c-.282 0-.512-.2307-.512-.5131z" fill="#000"/><g fill="#d4ca86"><path d="m20.716 54.8956c-2.5629-.8069-5.1251-.5627-6.727.466.6075 1.7193 2.4895 3.3547 5.0534 4.1586 2.5618.8047 5.1247.5627 6.7259-.4671-.6074-1.7182-2.49-3.3569-5.0523-4.1575z"/><path d="m18.7658 52.1749c1.2567-1.2848 1.8761-3.513 1.458-5.878-.4174-2.3639-1.7618-4.2329-3.3804-4.9893-1.2555 1.2836-1.8777 3.5129-1.4586 5.8778.4176 2.363 1.763 4.2351 3.381 4.9895z"/><path d="m10.1442 45.1494c-2.21231-1.3804-4.72314-1.7475-6.54422-1.1309.08612 1.8055 1.41076 3.8282 3.62319 5.2088 2.21184 1.3794 4.72203 1.7462 6.54363 1.1287-.0866-1.8065-1.4108-3.8261-3.6226-5.2066z"/><path d="m11.7473 32.6085c-1.3743 1.0027-2.30775 2.99-2.29515 5.2581.01201 2.2681.96605 4.2168 2.35115 5.1647 1.3748-1.0049 2.3078-2.9901 2.2952-5.2593-.0126-2.267-.9667-4.2146-2.3512-5.1635z"/><path d="m8.17929 28.9214c1.69152-.34 3.43641-1.7496 4.46181-3.8056 1.0281-2.0561 1.0607-4.2104.252-5.6392-1.6928.3411-3.43809 1.7496-4.46344 3.808-1.02698 2.0539-1.06137 4.209-.25037 5.6368z"/><path d="m5.6981 23.7296c1.27513-1.0093 2.08821-2.9407 1.98488-5.1098-.10183-2.1692-1.09294-3.9962-2.4579-4.8547-1.27528 1.0082-2.08999 2.9384-1.98608 5.1087.1008 2.168 1.09354 3.9971 2.4591 4.8558z"/><path d="m18.4745 9.61904c-1.5593-.15386-3.5033.60776-5.0375 2.12286-1.5338 1.515-2.2479 3.3785-2.0079 4.8343 1.5603.1538 3.5034-.6078 5.0372-2.1229 1.5338-1.5148 2.2483-3.3763 2.0082-4.83426z"/><path d="m13.8346 8.09158c.6639-1.83555.4844-3.65397-.3342-4.77725-1.3916.45614-2.7229 1.81724-3.3881 3.65397-.6645 1.83336-.48424 3.6529.3354 4.7762 1.3906-.4583 2.7217-1.81736 3.3869-3.65292z"/><path d="m21.3719 4.5126c1.4346-1.40418 2.1091-3.13424 1.8903-4.4932861-1.4499-.1474069-3.2612.5531431-4.6975 1.9583461-1.4331 1.40301-2.1058 3.13541-1.8891 4.49109 1.4509.1496 3.2628-.55095 4.6963-1.95615z"/><path d="m5.17826 30.9478c-1.25452-1.9066-3.14039-3.0665-4.853114-3.1708-.63297 1.5365-.3473181 3.6777.905574 5.5821 1.2529 1.9056 3.14025 3.0665 4.85312 3.1699.63149-1.5377.34732-3.6779-.90558-5.5812z"/><path d="m251.284 54.8956c2.563-.8069 5.125-.5627 6.727.466-.608 1.7193-2.49 3.3547-5.054 4.1586-2.561.8047-5.124.5627-6.726-.4671.608-1.7182 2.49-3.3569 5.053-4.1575z"/><path d="m253.234 52.1749c-1.257-1.2848-1.876-3.513-1.458-5.878.417-2.3639 1.762-4.2329 3.38-4.9893 1.256 1.2836 1.878 3.5129 1.459 5.8778-.417 2.363-1.763 4.2351-3.381 4.9895z"/><path d="m261.856 45.1494c2.212-1.3804 4.723-1.7475 6.544-1.1309-.086 1.8055-1.411 3.8282-3.623 5.2088-2.212 1.3794-4.722 1.7462-6.544 1.1287.087-1.8065 1.411-3.8261 3.623-5.2066z"/><path d="m260.252 32.6085c1.375 1.0027 2.308 2.99 2.295 5.2581-.012 2.2681-.966 4.2168-2.351 5.1647-1.374-1.0049-2.307-2.9901-2.295-5.2593.013-2.267.967-4.2146 2.351-5.1635z"/><path d="m263.821 28.9214c-1.692-.34-3.436-1.7496-4.462-3.8056-1.028-2.0561-1.061-4.2104-.252-5.6392 1.693.3411 3.438 1.7496 4.464 3.808 1.027 2.0539 1.061 4.209.25 5.6368z"/><path d="m266.302 23.7296c-1.275-1.0093-2.088-2.9407-1.985-5.1098.102-2.1692 1.093-3.9962 2.458-4.8547 1.275 1.0082 2.09 2.9384 1.986 5.1087-.101 2.168-1.094 3.9971-2.459 4.8558z"/><path d="m253.525 9.61904c1.56-.15386 3.504.60776 5.038 2.12286 1.534 1.515 2.248 3.3785 2.008 4.8343-1.561.1538-3.504-.6078-5.038-2.1229-1.533-1.5148-2.248-3.3763-2.008-4.83426z"/><path d="m258.165 8.09158c-.664-1.83555-.484-3.65397.335-4.77725 1.391.45614 2.723 1.81724 3.388 3.65397.664 1.83336.484 3.6529-.336 4.7762-1.39-.4583-2.721-1.81736-3.387-3.65292z"/><path d="m250.628 4.5126c-1.434-1.40418-2.109-3.13424-1.89-4.4932861 1.45-.1474069 3.261.5531431 4.698 1.9583461 1.433 1.40301 2.105 3.13541 1.889 4.49109-1.451.1496-3.263-.55095-4.697-1.95615z"/><path d="m266.822 30.9478c1.254-1.9066 3.14-3.0665 4.853-3.1708.633 1.5365.347 3.6777-.906 5.5821-1.253 1.9056-3.14 3.0665-4.853 3.1699-.631-1.5377-.347-3.6779.906-5.5812z"/></g></svg>