<svg clip-rule="evenodd" fill-rule="evenodd" height="60" stroke-linejoin="round" stroke-miterlimit="2" viewBox="0 0 280 60" width="280" xmlns="http://www.w3.org/2000/svg" xmlns:xlink="http://www.w3.org/1999/xlink"><linearGradient id="a" gradientUnits="userSpaceOnUse" x1="135.068" x2="242.248" y1="30.0335" y2="30.0335"><stop offset="0" stop-color="#5ac04a"/><stop offset="1" stop-color="#3e765e"/></linearGradient><path d="m53.952 35.45v15.665h-1.784v-.878h-11.414v.878h-1.694v-15.665zm-1.784 13.248v-11.709h-11.414v11.709zm-.845-2.759v1.378h-9.596v-1.378h3.906v-2.648h-3.186v-1.415h3.186v-2.166h-3.653v-1.467h8.983v1.467h-3.764v2.166h3.366v1.415h-3.366v2.648h2.483c-.326-.554-1.008-1.36-1.604-1.952l1.063-.572c.613.554 1.334 1.36 1.673 1.863l-1.098.661zm20.474 3.131c0 .985-.236 1.485-.901 1.753-.665.286-1.783.303-3.366.303-.073-.465-.343-1.236-.575-1.684 1.171.055 2.393.055 2.736.035.343-.017.45-.107.45-.431v-9.756h-4.751c-.035.699-.125 1.433-.288 2.201 1.656 1.484 3.727 3.454 4.772 4.725l-1.368 1.091c-.827-1.091-2.431-2.775-3.923-4.208-.703 1.629-1.964 3.206-4.177 4.494-.214-.358-.793-.95-1.188-1.253 3.744-1.97 4.357-4.763 4.447-7.053h-4.682v11.853h-1.673v-13.461h6.372v-3.007h1.728v3.007h6.393v11.385zm8.284-6.792-1.046 1.594c-.956-.682-2.864-1.897-4.014-2.507l1.025-1.539c1.136.609 3.186 1.863 4.035 2.452zm1.818 4.208c3.006-1.701 5.437-4.102 6.895-6.643l1.08 1.898c-1.603 2.434-4.103 4.724-7.019 6.408-1.818 1.057-4.34 1.915-5.978 2.221l-1.063-1.842c1.998-.341 4.194-1.002 6.085-2.042zm.883-8.165-1.063 1.539c-.918-.661-2.843-1.932-3.962-2.558l1.025-1.54c1.115.627 3.152 1.953 3.997 2.559zm19.829 9.895c.468 0 .918-.055 1.278-.107v1.863c-.377-.034-.973-.055-1.278-.055h-9.956c-.416 0-.901.017-1.368.055v-1.863c.45.055.956.107 1.368.107h3.944v-6.23h-3.079c-.342 0-.955.017-1.333.055v-1.79c.395.055.991.089 1.313.089h8.263c.45 0 .935-.034 1.333-.089v1.79c-.415-.034-.918-.055-1.333-.055h-3.314v6.23zm18.663-10.616c-.163.197-.451.537-.596.751-.776 1.305-2.483 3.581-4.412 4.941l-1.493-1.198c1.566-.913 3.152-2.686 3.675-3.705h-9.884c-.703 0-1.333.055-2.106.106v-1.987c.665.09 1.403.162 2.106.162h10.064c.415 0 1.226-.055 1.513-.124zm-7.273 2.38c0 4.673-.27 8.109-5.004 10.527l-1.656-1.343c.523-.179 1.154-.465 1.729-.878 2.573-1.646 2.988-3.902 2.988-6.874 0-.482-.017-.912-.107-1.432zm-69.788-16.956h-6.376l-.081-1.467 6.385-9.96h2.522v9.484h1.851v1.943h-1.851v3.31h-2.45zm0-8.202-.234.399-3.671 5.86h3.905zm11.419 8.202h-6.375l-.082-1.467 6.386-9.96h2.522v9.484h1.851v1.943h-1.851v3.31h-2.451zm0-8.202-.234.399-3.67 5.86h3.904zm24.209 6.703v1.865h-7.31v4.581h-1.999v-4.581h-9.476v-1.865h3.353v-5.472h6.123v-2.861h-4.769c-.896 1.534-1.937 2.902-2.999 3.938-.375-.331-1.208-.953-1.687-1.243 1.916-1.638 3.582-4.27 4.54-7.027l1.958.518c-.25.643-.542 1.327-.813 1.949h12.058v1.865h-6.289v2.861h5.81v1.803h-5.81v3.669zm-13.495 0h4.186v-3.669h-4.186zm26.636-5.141-1.875.995c-.541-1.409-1.874-3.565-3.165-5.078l1.77-.85c1.354 1.492 2.666 3.503 3.27 4.933zm-3.333 3.856.459 1.865c-2.833 1.285-5.894 2.591-8.206 3.565l-.708-2.01c.792-.29 1.77-.663 2.833-1.078l-.396-12.458 2.02-.083.354 11.733c1.208-.498 2.437-1.016 3.644-1.534zm10.975 6.135-1.624 1.555c-.896-1.389-2.645-3.441-4.311-5.244-1.562 2.3-3.748 4.042-6.768 5.327-.271-.415-1.062-1.306-1.562-1.7 6.914-2.55 9.08-7.545 9.934-16.272l2.124.208c-.479 4.353-1.25 7.835-2.645 10.613 1.77 1.824 3.853 4.042 4.852 5.513zm11.017-1.347h8.954v1.948h-18.638v-1.948h7.601v-15.795h2.083v6.156h7.518v1.928h-7.518z"/><path d="m170.027 50.558h-10.034l-14.833-25.9v25.9h-10.092v-41.62h10.092l14.806 25.899v-25.899h10.061zm4.713-15.752c0-3.085.603-5.837 1.812-8.247 1.208-2.411 2.94-4.263 5.201-5.562 2.262-1.294 4.915-1.942 7.963-1.942 4.658 0 8.326 1.436 11.01 4.301 2.684 2.869 4.024 6.77 4.024 11.705v.345c0 4.821-1.347 8.647-4.038 11.477-2.695 2.831-6.338 4.246-10.937 4.246-4.6 0-7.983-1.319-10.668-3.96-2.684-2.638-4.131-6.216-4.339-10.734zm9.687.6c0 2.858.45 4.955 1.351 6.288.9 1.332 2.234 2.001 3.997 2.001 3.449 0 5.212-2.638 5.288-7.917v-.972c0-5.544-1.784-8.319-5.347-8.319-3.239 0-4.994 2.393-5.261 7.173l-.028 1.742zm30.588 5.802c1.535 0 2.809.455 3.824 1.357 1.015.906 1.524 2.063 1.524 3.471 0 1.409-.509 2.569-1.524 3.475s-2.289 1.357-3.824 1.357c-1.534 0-2.833-.458-3.837-1.371-1.008-.916-1.51-2.066-1.51-3.457 0-1.392.502-2.545 1.51-3.458 1.004-.916 2.286-1.37 3.837-1.37zm27.229 9.346h-9.718v-30.758l-9.545 2.772v-7.318l18.37-6.316h.89v41.62z" fill="url(#a)" fill-rule="nonzero"/><path d="m20.825 54.895c2.575.801 4.468 2.439 5.078 4.157-1.609 1.03-4.186 1.272-6.761.467-2.577-.803-4.469-2.439-5.079-4.158 1.61-1.029 4.185-1.273 6.762-.466zm-1.952-2.719c-1.626-.755-2.979-2.627-3.398-4.99-.422-2.365.204-4.594 1.466-5.877 1.627.756 2.978 2.625 3.398 4.989.42 2.365-.203 4.593-1.466 5.878zm-8.67-7.03c2.224 1.381 3.555 3.4 3.642 5.207-1.831.617-4.355.251-6.578-1.129-2.224-1.38-3.555-3.403-3.642-5.208 1.831-.617 4.355-.25 6.578 1.13zm1.596-12.537c1.392.949 2.351 2.897 2.364 5.164.013 2.269-.925 4.254-2.307 5.259-1.393-.948-2.352-2.896-2.364-5.164-.012-2.269.926-4.256 2.307-5.259zm-3.572-3.688c-.815-1.427-.78-3.583.252-5.636 1.031-2.059 2.785-3.467 4.487-3.808.813 1.428.78 3.583-.253 5.639-1.031 2.056-2.785 3.465-4.486 3.805zm-2.449-5.187c-1.373-.859-2.371-2.688-2.472-4.856-.105-2.17.714-4.1 1.996-5.108 1.372.858 2.369 2.685 2.471 4.854.104 2.169-.713 4.101-1.995 5.11zm12.787-14.113c.242 1.458-.476 3.32-2.018 4.834-1.542 1.515-3.495 2.277-5.064 2.123-.241-1.456.477-3.319 2.019-4.834s3.496-2.277 5.063-2.123zm-4.681-1.531c-.669 1.835-2.007 3.194-3.405 3.653-.824-1.124-1.005-2.943-.337-4.777.669-1.836 2.007-3.197 3.406-3.653.823 1.123 1.003 2.941.336 4.777zm7.603-3.577c-1.44 1.405-3.262 2.105-4.72 1.956-.218-1.356.458-3.088 1.899-4.491 1.443-1.406 3.264-2.106 4.722-1.959.22 1.359-.458 3.089-1.901 4.494zm-16.282 26.435c1.26 1.903 1.545 4.044.911 5.581-1.722-.103-3.619-1.264-4.879-3.17-1.259-1.904-1.546-4.045-.91-5.582 1.722.105 3.617 1.265 4.878 3.171z" fill="#d4ca86"/><path d="m259.207 54.895c2.576-.807 5.152-.563 6.762.466-.611 1.719-2.503 3.355-5.08 4.158-2.575.805-5.151.563-6.761-.467.611-1.718 2.503-3.356 5.079-4.157zm1.92-2.719c-1.263-1.285-1.886-3.513-1.466-5.878.42-2.364 1.771-4.233 3.398-4.989 1.262 1.283 1.888 3.512 1.467 5.877-.42 2.363-1.773 4.235-3.399 4.99zm8.67-7.03c2.223-1.38 4.747-1.747 6.578-1.13-.087 1.805-1.418 3.828-3.642 5.208-2.223 1.38-4.747 1.746-6.578 1.129.087-1.807 1.418-3.826 3.642-5.207zm-1.596-12.537c1.381 1.003 2.319 2.99 2.307 5.259-.012 2.268-.971 4.216-2.364 5.164-1.382-1.005-2.32-2.99-2.307-5.259.013-2.267.972-4.215 2.364-5.164zm3.572-3.688c-1.701-.34-3.455-1.749-4.485-3.805-1.034-2.056-1.067-4.211-.254-5.639 1.702.341 3.456 1.749 4.487 3.808 1.032 2.053 1.067 4.209.252 5.636zm2.535-5.187c-1.282-1.009-2.099-2.941-1.995-5.11.102-2.169 1.099-3.996 2.471-4.854 1.282 1.008 2.101 2.938 1.996 5.108-.101 2.168-1.099 3.997-2.472 4.856zm-12.873-14.113c1.567-.154 3.521.608 5.063 2.123s2.26 3.378 2.019 4.834c-1.569.154-3.522-.608-5.064-2.123-1.542-1.514-2.26-3.376-2.018-4.834zm4.697-1.531c-.667-1.836-.487-3.654.336-4.777 1.399.456 2.737 1.817 3.406 3.653.668 1.834.486 3.653-.337 4.777-1.398-.459-2.736-1.818-3.405-3.653zm-7.619-3.577c-1.443-1.405-2.121-3.135-1.901-4.494 1.458-.147 3.279.553 4.722 1.959 1.441 1.403 2.117 3.135 1.899 4.491-1.458.149-3.279-.551-4.72-1.956zm16.282 26.435c1.261-1.906 3.156-3.066 4.878-3.171.636 1.537.349 3.678-.91 5.582-1.26 1.906-3.157 3.067-4.879 3.17-.634-1.537-.349-3.678.911-5.581z" fill="#d4ca86"/><g fill-rule="nonzero"><path d="m248.694 48.011 2.244-2.252.199.196-2.244 2.253 2.244 2.252-.199.2-2.244-2.253-2.251 2.259-.196-.199 2.251-2.259-2.244-2.253.196-.196zm-1.427.197c0 .279-.23.513-.512.513-.281 0-.511-.231-.511-.513 0-.283.23-.513.511-.513.282 0 .512.23.512.513zm1.427-1.433c-.278 0-.511-.231-.511-.513s.23-.513.511-.513.511.231.511.513-.23.513-.511.513zm0 2.869c.278 0 .511.23.511.513 0 .282-.23.513-.511.513s-.511-.231-.511-.513c0-.283.23-.513.511-.513zm1.427-1.433c0-.279.23-.513.512-.513.281 0 .511.231.511.513s-.23.513-.511.513c-.282 0-.512-.231-.512-.513z"/><path d="m252.528 51.129h3.36v-.76h-1.152v-4.968h-.696c-.336.208-.728.352-1.28.448v.584h1.056v3.936h-1.288z"/></g></svg>