<svg fill="none" height="14" viewBox="0 0 20 14" width="20" xmlns="http://www.w3.org/2000/svg"><path clip-rule="evenodd" d="m19.9903.857785c.0744.546145-.2874 1.052135-.8081 1.130155-1.4394.21569-2.8927 1.01098-4.3039 2.16384-1.4051 1.14792-2.7095 2.60183-3.8478 4.04062-1.04496 1.32091-1.93048 2.6037-2.6193 3.6016-.06067.0879-.11981.1735-.17739.2568-.34755.5027-.65717.9461-.89832 1.2472-.11337.1415-.2561.309-.40978.4346-.06932.0567-.2184.1709-.42565.23-.2527.072-.66034.0683-.98296-.2701-.34835-.3653-.6535-.8371-.91977-1.2487l-.02286-.0354c-.28439-.4396-.55921-.8644-.89024-1.2664-.64261-.7805-1.48009-1.45437-2.866425-1.6621-.520692-.07802-.8824966-.58401-.80811191-1.13016.07438471-.54615.55678991-.92564 1.07748691-.84762 1.94695.29174 3.17316 1.28295 4.03859 2.334.40458.49138.73332.99968 1.00527 1.42028.00984.0152.01961.0303.0293.0453.03941.0609.07724.1192.11367.175.12256-.1729.26146-.3726.41784-.5988.0577-.0834.11731-.1698.1788-.2589.68681-.99507 1.60699-2.32827 2.69406-3.70237 1.18319-1.49555 2.58699-3.06964 4.14319-4.34101 1.5501-1.26641 3.3111-2.281676 5.2049-2.565453.5207-.0780211 1.0031.30147 1.0775.847618z" fill="#3e765e" fill-rule="evenodd"/></svg>