<svg width="300px" height="52px" version="1.1" xmlns="http://www.w3.org/2000/svg"
  xmlns:xlink="http://www.w3.org/1999/xlink" xml:space="preserve" xmlns:serif="http://www.serif.com/"
  style="fill-rule:evenodd;clip-rule:evenodd;stroke-linejoin:round;stroke-miterlimit:2;">
  <g transform="matrix(1,0,0,1,-430,-540)">
    <g transform="matrix(1.11315,0,0,1.09977,-67.9088,-74.1421)">
      <g transform="matrix(1,0,0,1,432.063,543.168)">
        <path
          d="M85.598,31.773L88.97,31.773L84.199,40.694L84.199,46.052L81.221,46.052L81.221,40.694L76.283,31.773L79.798,31.773L82.764,37.992L85.598,31.773ZM90.716,31.773L93.742,31.773L93.742,40.539C93.742,41.519 93.861,42.237 94.089,42.691C94.447,43.493 95.237,43.887 96.444,43.887C97.652,43.887 98.429,43.493 98.788,42.691C99.015,42.237 99.135,41.519 99.135,40.539L99.135,31.773L102.172,31.773L102.172,40.551C102.172,42.07 101.933,43.254 101.467,44.091C100.594,45.645 98.92,46.41 96.444,46.41C93.969,46.41 92.295,45.633 91.422,44.091C90.956,43.241 90.716,42.058 90.716,40.551L90.716,31.773ZM115.064,39.881C114.226,40.575 113.031,40.922 111.488,40.922L108.51,40.922L108.51,46.052L105.545,46.052L105.545,31.773L111.679,31.773C113.09,31.773 114.215,32.144 115.064,32.874C115.901,33.615 116.319,34.751 116.319,36.294C116.319,37.98 115.901,39.176 115.064,39.869L115.064,39.881ZM112.791,34.739C112.409,34.416 111.883,34.261 111.201,34.261L108.51,34.261L108.51,38.47L111.201,38.47C111.883,38.47 112.409,38.303 112.791,37.956C113.174,37.609 113.354,37.071 113.354,36.33C113.354,35.588 113.162,35.062 112.791,34.739ZM129.701,44.784C128.624,45.896 127.058,46.447 125.025,46.447C122.992,46.447 121.426,45.896 120.349,44.784C118.902,43.421 118.185,41.46 118.185,38.889C118.185,36.318 118.902,34.309 120.349,32.993C121.426,31.881 122.992,31.331 125.025,31.331C127.058,31.331 128.624,31.881 129.701,32.993C131.136,34.309 131.865,36.27 131.865,38.889C131.865,41.508 131.148,43.421 129.701,44.784ZM127.835,42.608C128.529,41.735 128.876,40.503 128.876,38.889C128.876,37.274 128.529,36.043 127.835,35.17C127.142,34.297 126.197,33.854 125.025,33.854C123.853,33.854 122.896,34.297 122.203,35.158C121.497,36.031 121.15,37.274 121.15,38.877C121.15,40.479 121.497,41.723 122.203,42.596C122.908,43.469 123.853,43.899 125.025,43.899C126.197,43.899 127.142,43.457 127.835,42.596L127.835,42.608ZM142.891,33.268C144.039,32.096 145.51,31.498 147.28,31.498C149.659,31.498 151.393,32.288 152.493,33.866C153.103,34.751 153.426,35.636 153.474,36.533L150.496,36.533C150.305,35.851 150.066,35.325 149.767,34.978C149.229,34.356 148.452,34.045 147.411,34.045C146.371,34.045 145.51,34.488 144.9,35.361C144.29,36.234 143.979,37.477 143.979,39.08C143.979,40.682 144.302,41.878 144.948,42.679C145.593,43.481 146.419,43.875 147.423,43.875C148.428,43.875 149.229,43.528 149.767,42.847C150.066,42.476 150.305,41.926 150.508,41.197L153.474,41.197C153.223,42.751 152.565,44.019 151.513,44.999C150.461,45.98 149.109,46.458 147.471,46.458C145.438,46.458 143.836,45.8 142.676,44.485C141.516,43.158 140.93,41.352 140.93,39.044C140.93,36.557 141.587,34.631 142.915,33.28L142.891,33.268ZM166.987,44.784C165.911,45.896 164.344,46.447 162.311,46.447C160.278,46.447 158.712,45.896 157.635,44.784C156.188,43.421 155.471,41.46 155.471,38.889C155.471,36.318 156.188,34.309 157.635,32.993C158.712,31.881 160.278,31.331 162.311,31.331C164.344,31.331 165.911,31.881 166.987,32.993C168.422,34.309 169.151,36.27 169.151,38.889C169.151,41.508 168.434,43.421 166.987,44.784ZM165.121,42.608C165.815,41.735 166.162,40.503 166.162,38.889C166.162,37.274 165.815,36.043 165.121,35.17C164.428,34.297 163.483,33.854 162.311,33.854C161.139,33.854 160.183,34.297 159.489,35.158C158.783,36.031 158.437,37.274 158.437,38.877C158.437,40.479 158.795,41.723 159.489,42.596C160.195,43.469 161.139,43.899 162.311,43.899C163.483,43.899 164.428,43.457 165.121,42.596L165.121,42.608ZM180.619,32.144C181.146,32.371 181.588,32.706 181.959,33.137C182.258,33.495 182.497,33.902 182.676,34.332C182.856,34.775 182.939,35.277 182.939,35.839C182.939,36.521 182.772,37.179 182.425,37.836C182.09,38.494 181.516,38.96 180.727,39.223C181.385,39.487 181.851,39.869 182.126,40.348C182.401,40.838 182.545,41.579 182.545,42.584L182.545,43.54C182.545,44.198 182.569,44.629 182.616,44.868C182.688,45.239 182.88,45.514 183.167,45.681L183.167,46.04L179.878,46.04C179.782,45.729 179.723,45.466 179.687,45.274C179.615,44.88 179.567,44.461 179.555,44.043L179.531,42.715C179.531,41.807 179.364,41.197 179.065,40.898C178.766,40.599 178.192,40.443 177.367,40.443L174.461,40.443L174.461,46.04L171.543,46.04L171.543,31.761L178.371,31.761C179.34,31.785 180.093,31.905 180.619,32.132L180.619,32.144ZM174.449,34.261L174.449,38.099L177.654,38.099C178.287,38.099 178.766,38.016 179.089,37.86C179.651,37.585 179.938,37.059 179.938,36.258C179.938,35.397 179.663,34.811 179.125,34.512C178.814,34.345 178.359,34.261 177.749,34.261L174.449,34.261ZM195.46,39.881C194.623,40.575 193.427,40.922 191.884,40.922L188.919,40.922L188.919,46.052L185.953,46.052L185.953,31.773L192.088,31.773C193.499,31.773 194.635,32.144 195.472,32.874C196.309,33.615 196.727,34.751 196.727,36.294C196.727,37.98 196.309,39.176 195.472,39.869L195.46,39.881ZM193.188,34.739C192.805,34.416 192.279,34.261 191.597,34.261L188.907,34.261L188.907,38.47L191.597,38.47C192.279,38.47 192.805,38.303 193.188,37.956C193.57,37.609 193.75,37.071 193.75,36.33C193.75,35.588 193.558,35.062 193.188,34.739ZM209.547,44.784C208.47,45.896 206.904,46.447 204.871,46.447C202.838,46.447 201.271,45.896 200.195,44.784C198.748,43.421 198.031,41.46 198.031,38.889C198.031,36.318 198.748,34.309 200.195,32.993C201.271,31.881 202.838,31.331 204.871,31.331C206.904,31.331 208.47,31.881 209.547,32.993C210.982,34.309 211.711,36.27 211.711,38.889C211.711,41.508 210.994,43.421 209.547,44.784ZM207.681,42.608C208.375,41.735 208.722,40.503 208.722,38.889C208.722,37.274 208.375,36.043 207.681,35.17C206.988,34.297 206.043,33.854 204.859,33.854C203.675,33.854 202.73,34.297 202.037,35.158C201.331,36.031 200.984,37.274 200.984,38.877C200.984,40.479 201.331,41.723 202.037,42.596C202.742,43.469 203.687,43.899 204.859,43.899C206.031,43.899 206.976,43.457 207.681,42.596L207.681,42.608ZM223.167,32.144C223.694,32.371 224.136,32.706 224.507,33.137C224.806,33.495 225.045,33.902 225.224,34.332C225.404,34.775 225.487,35.277 225.487,35.839C225.487,36.521 225.32,37.179 224.973,37.836C224.626,38.494 224.064,38.96 223.275,39.223C223.933,39.487 224.399,39.869 224.674,40.348C224.949,40.838 225.081,41.579 225.081,42.584L225.081,43.54C225.081,44.198 225.105,44.629 225.153,44.868C225.236,45.239 225.416,45.514 225.703,45.681L225.703,46.04L222.414,46.04C222.318,45.729 222.259,45.466 222.223,45.274C222.151,44.88 222.103,44.461 222.091,44.043L222.091,42.715C222.055,41.807 221.9,41.197 221.601,40.898C221.302,40.599 220.728,40.443 219.903,40.443L216.985,40.443L216.985,46.04L214.067,46.04L214.067,31.761L220.895,31.761C221.876,31.785 222.617,31.905 223.144,32.132L223.167,32.144ZM216.997,34.261L216.997,38.099L220.214,38.099C220.848,38.099 221.326,38.016 221.649,37.86C222.211,37.585 222.498,37.059 222.498,36.258C222.498,35.397 222.223,34.811 221.673,34.512C221.374,34.345 220.907,34.261 220.297,34.261L216.997,34.261ZM231.801,31.773L235.186,31.773L240.232,46.052L237.003,46.052L236.058,43.122L230.797,43.122L229.828,46.052L226.707,46.052L231.801,31.773ZM231.61,40.659L235.269,40.659L233.464,35.038L231.61,40.659ZM250.408,31.773L250.408,34.297L246.139,34.297L246.139,46.052L243.138,46.052L243.138,34.297L238.845,34.297L238.845,31.773L250.408,31.773ZM254.917,46.052L251.951,46.052L251.951,31.773L254.917,31.773L254.917,46.052ZM268.741,44.784C267.665,45.896 266.098,46.447 264.065,46.447C262.032,46.447 260.466,45.896 259.389,44.784C257.942,43.421 257.225,41.46 257.225,38.889C257.225,36.318 257.942,34.309 259.389,32.993C260.466,31.881 262.032,31.331 264.065,31.331C266.098,31.331 267.665,31.881 268.741,32.993C270.176,34.309 270.905,36.27 270.905,38.889C270.905,41.508 270.188,43.421 268.741,44.784ZM266.875,42.608C267.569,41.735 267.916,40.503 267.916,38.889C267.916,37.274 267.569,36.043 266.875,35.17C266.182,34.297 265.237,33.854 264.053,33.854C262.869,33.854 261.924,34.297 261.231,35.158C260.525,36.031 260.179,37.274 260.179,38.877C260.179,40.479 260.525,41.723 261.231,42.596C261.936,43.469 262.881,43.899 264.053,43.899C265.225,43.899 266.17,43.457 266.875,42.596L266.875,42.608ZM273.165,31.773L276.298,31.773L281.967,41.735L281.967,31.773L284.741,31.773L284.741,46.052L281.763,46.052L275.952,35.923L275.952,46.052L273.165,46.052L273.165,31.773Z"
          style="fill:rgb(35,24,21);" />
      </g>
      <g transform="matrix(1,0,0,1,432.063,543.168)">
        <path
          d="M47.582,20.329C49.006,17.292 52.318,15.869 55.391,15.414C59.577,14.601 63.152,17.101 65.161,20.449C66.931,24.288 66.202,29.561 63.236,32.635C61.191,34.751 58.273,34.907 55.475,34.907C51.971,34.368 48.443,32.096 46.829,28.712C45.717,26.631 46.207,23.678 47.176,21.717L47.594,20.329L47.582,20.329Z"
          style="fill:rgb(239,126,0);fill-rule:nonzero;" />
      </g>
      <g transform="matrix(1,0,0,1,432.063,543.168)">
        <path
          d="M21.202,25.914C24.24,24.718 28.389,23.414 31.498,25.148C32.001,25.567 32.838,25.495 33.113,26.189C28.114,26.464 22.853,27.385 20.317,32.264C19.588,34.069 19.241,36.533 20.58,38.147C24.084,42.608 29.119,46.494 35.038,44.533C37.765,43.648 40.647,41.842 41.615,38.924C42.309,35.086 41.998,30.578 38.422,28.042C36.545,26.344 34.309,25.543 32.084,24.73C31.654,24.383 31.391,23.845 31.582,23.343C31.929,21.848 33.615,22.075 34.775,21.764C36.736,22.075 38.47,23.068 40.228,23.845C43.911,26.344 46.028,30.267 46.53,34.5C47.224,37.8 46.686,41.268 44.605,43.768C42.106,46.004 39.379,47.881 36.222,48.611C32.611,49.149 28.724,48.683 25.615,47.152C21.92,45.119 18.081,42.034 15.809,38.315C14.697,36.126 15.462,33.4 15.929,31.163C16.778,28.891 19.074,26.894 21.19,25.938"
          style="fill:rgb(35,24,21);fill-rule:nonzero;" />
      </g>
      <g transform="matrix(1,0,0,1,432.063,543.168)">
        <path
          d="M27.193,54.148L29.131,54.148L26.404,59.254L26.404,62.315L24.694,62.315L24.694,59.254L21.872,54.148L23.881,54.148L25.579,57.699L27.205,54.148L27.193,54.148Z"
          style="fill:rgb(35,24,21);fill-rule:nonzero;" />
      </g>
      <g transform="matrix(1,0,0,1,432.063,543.168)">
        <path
          d="M31.474,54.148L33.208,54.148L33.208,59.158C33.208,59.72 33.268,60.127 33.412,60.39C33.615,60.844 34.069,61.071 34.763,61.071C35.457,61.071 35.899,60.844 36.102,60.39C36.234,60.127 36.306,59.72 36.306,59.158L36.306,54.148L38.039,54.148L38.039,59.17C38.039,60.043 37.908,60.713 37.633,61.203C37.131,62.088 36.174,62.53 34.763,62.53C33.352,62.53 32.395,62.088 31.881,61.203C31.618,60.725 31.474,60.043 31.474,59.17L31.474,54.148Z"
          style="fill:rgb(35,24,21);fill-rule:nonzero;" />
      </g>
      <g transform="matrix(1,0,0,1,432.063,543.168)">
        <path
          d="M46.626,58.775C46.147,59.17 45.466,59.373 44.581,59.373L42.883,59.373L42.883,62.315L41.185,62.315L41.185,54.148L44.688,54.148C45.502,54.148 46.135,54.363 46.626,54.781C47.104,55.2 47.343,55.858 47.343,56.742C47.343,57.711 47.104,58.393 46.626,58.787L46.626,58.775ZM45.322,55.834C45.107,55.654 44.808,55.559 44.413,55.559L42.871,55.559L42.871,57.962L44.413,57.962C44.808,57.962 45.107,57.867 45.322,57.663C45.537,57.472 45.645,57.161 45.645,56.731C45.645,56.3 45.537,56.001 45.322,55.822L45.322,55.834Z"
          style="fill:rgb(35,24,21);fill-rule:nonzero;" />
      </g>
      <g transform="matrix(1,0,0,1,432.063,543.168)">
        <path
          d="M55.714,61.586C55.092,62.219 54.207,62.542 53.035,62.542C51.864,62.542 50.978,62.219 50.357,61.586C49.532,60.808 49.113,59.684 49.113,58.214C49.113,56.743 49.532,55.595 50.357,54.841C50.978,54.207 51.864,53.885 53.035,53.885C54.207,53.885 55.092,54.207 55.714,54.841C56.539,55.595 56.946,56.719 56.946,58.214C56.946,59.708 56.539,60.797 55.714,61.586ZM54.65,60.342C55.044,59.84 55.248,59.134 55.248,58.214C55.248,57.293 55.044,56.587 54.65,56.085C54.255,55.583 53.717,55.332 53.035,55.332C52.354,55.332 51.816,55.583 51.421,56.085C51.014,56.587 50.811,57.293 50.811,58.214C50.811,59.134 51.014,59.84 51.421,60.342C51.828,60.844 52.366,61.095 53.035,61.095C53.705,61.095 54.255,60.844 54.65,60.342Z"
          style="fill:rgb(35,24,21);fill-rule:nonzero;" />
      </g>
      <g transform="matrix(1,0,0,1,432.063,543.168)">
        <path
          d="M58.034,56.444C58.034,55.224 59.027,54.231 60.246,54.231C61.466,54.231 62.459,55.224 62.459,56.444C62.459,57.663 61.466,58.656 60.246,58.656C59.027,58.656 58.034,57.663 58.034,56.444ZM59.134,54.973L60.45,54.973C60.665,54.973 60.844,55.009 60.988,55.068C61.251,55.188 61.394,55.415 61.394,55.75C61.394,55.929 61.359,56.061 61.287,56.181C61.215,56.288 61.119,56.384 60.988,56.444C61.107,56.492 61.191,56.551 61.239,56.623C61.299,56.695 61.323,56.814 61.335,56.994L61.335,57.376C61.347,57.484 61.359,57.568 61.37,57.628C61.394,57.723 61.442,57.783 61.502,57.807L61.502,57.867L61.024,57.867C61.024,57.867 61,57.807 60.988,57.771C60.988,57.735 60.976,57.651 60.964,57.544L60.94,57.066C60.94,56.874 60.868,56.755 60.737,56.683C60.665,56.647 60.545,56.635 60.39,56.635L59.517,56.635L59.517,57.879L59.122,57.879L59.122,54.985L59.134,54.973ZM60.414,56.3C60.593,56.3 60.737,56.264 60.844,56.193C60.952,56.121 61,55.989 61,55.798C61,55.595 60.928,55.451 60.785,55.379C60.701,55.344 60.605,55.32 60.474,55.32L59.541,55.32L59.541,56.312L60.426,56.312L60.414,56.3ZM57.711,56.444C57.711,57.843 58.847,58.979 60.258,58.979C61.669,58.979 62.806,57.843 62.806,56.444C62.806,55.045 61.669,53.897 60.258,53.897C58.847,53.897 57.711,55.033 57.711,56.444Z"
          style="fill:rgb(35,24,21);fill-rule:nonzero;" />
      </g>
    </g>
  </g>
</svg>
