<svg width="234px" height="52px" version="1.1" xmlns="http://www.w3.org/2000/svg"
  xmlns:xlink="http://www.w3.org/1999/xlink" xml:space="preserve" xmlns:serif="http://www.serif.com/"
  style="fill-rule:evenodd;clip-rule:evenodd;stroke-linejoin:round;stroke-miterlimit:2;">
  <g transform="matrix(1,0,0,1,-420,-390)">
    <g transform="matrix(1.10371,0,0,1.1061,420.013,390)">
      <path
        d="M11.86,38.656L13.783,38.656L11.076,43.731L11.076,46.774L9.379,46.774L9.379,43.731L6.577,38.656L8.572,38.656L10.257,42.186L11.872,38.656L11.86,38.656Z"
        style="fill:rgb(35,24,21);fill-rule:nonzero;" />
      <path
        d="M16.109,38.656L17.831,38.656L17.831,43.636C17.831,44.195 17.89,44.599 18.033,44.86C18.234,45.312 18.686,45.538 19.374,45.538C20.063,45.538 20.502,45.312 20.704,44.86C20.834,44.599 20.905,44.195 20.905,43.636L20.905,38.656L22.627,38.656L22.627,43.648C22.627,44.516 22.496,45.181 22.223,45.669C21.725,46.548 20.775,46.988 19.374,46.988C17.973,46.988 17.023,46.548 16.513,45.669C16.252,45.193 16.109,44.516 16.109,43.648L16.109,38.656Z"
        style="fill:rgb(35,24,21);fill-rule:nonzero;" />
      <path
        d="M31.139,43.268C30.664,43.66 29.987,43.862 29.109,43.862L27.423,43.862L27.423,46.786L25.737,46.786L25.737,38.667L29.216,38.667C30.023,38.667 30.652,38.881 31.139,39.298C31.614,39.714 31.851,40.367 31.851,41.247C31.851,42.21 31.614,42.887 31.139,43.28L31.139,43.268ZM29.845,40.344C29.631,40.165 29.334,40.07 28.943,40.07L27.411,40.07L27.411,42.459L28.943,42.459C29.334,42.459 29.631,42.364 29.845,42.162C30.058,41.972 30.165,41.663 30.165,41.235C30.165,40.807 30.058,40.51 29.845,40.332L29.845,40.344Z"
        style="fill:rgb(35,24,21);fill-rule:nonzero;" />
      <path
        d="M40.161,46.061C39.544,46.691 38.666,47.012 37.502,47.012C36.339,47.012 35.46,46.691 34.843,46.061C34.024,45.288 33.608,44.171 33.608,42.709C33.608,41.247 34.024,40.106 34.843,39.357C35.46,38.727 36.339,38.406 37.502,38.406C38.666,38.406 39.544,38.727 40.161,39.357C40.981,40.106 41.384,41.223 41.384,42.709C41.384,44.195 40.981,45.288 40.161,46.061ZM39.105,44.825C39.497,44.326 39.698,43.624 39.698,42.709C39.698,41.794 39.497,41.092 39.105,40.593C38.713,40.094 38.179,39.844 37.502,39.844C36.826,39.844 36.291,40.094 35.9,40.593C35.496,41.092 35.294,41.794 35.294,42.709C35.294,43.624 35.496,44.326 35.9,44.825C36.303,45.324 36.837,45.574 37.502,45.574C38.167,45.574 38.713,45.324 39.105,44.825Z"
        style="fill:rgb(35,24,21);fill-rule:nonzero;" />
      <path
        d="M42.476,40.938C42.476,39.725 43.461,38.739 44.672,38.739C45.883,38.739 46.868,39.725 46.868,40.938C46.868,42.15 45.883,43.137 44.672,43.137C43.461,43.137 42.476,42.15 42.476,40.938ZM43.568,39.476L44.874,39.476C45.088,39.476 45.266,39.512 45.408,39.571C45.669,39.69 45.812,39.916 45.812,40.248C45.812,40.427 45.776,40.558 45.705,40.676C45.634,40.783 45.539,40.878 45.408,40.938C45.527,40.985 45.61,41.045 45.657,41.116C45.717,41.188 45.74,41.306 45.752,41.485L45.752,41.865C45.764,41.972 45.776,42.055 45.788,42.115C45.812,42.21 45.859,42.269 45.919,42.293L45.919,42.352L45.444,42.352C45.444,42.352 45.42,42.293 45.408,42.257C45.408,42.222 45.396,42.138 45.384,42.031L45.361,41.556C45.361,41.366 45.289,41.247 45.159,41.176C45.088,41.14 44.969,41.128 44.815,41.128L43.948,41.128L43.948,42.364L43.556,42.364L43.556,39.488L43.568,39.476ZM44.838,40.795C45.016,40.795 45.159,40.76 45.266,40.688C45.372,40.617 45.42,40.486 45.42,40.296C45.42,40.094 45.349,39.951 45.206,39.88C45.123,39.844 45.028,39.821 44.898,39.821L43.972,39.821L43.972,40.807L44.85,40.807L44.838,40.795ZM42.155,40.938C42.155,42.329 43.283,43.458 44.684,43.458C46.085,43.458 47.213,42.329 47.213,40.938C47.213,39.547 46.085,38.406 44.684,38.406C43.283,38.406 42.155,39.535 42.155,40.938Z"
        style="fill:rgb(35,24,21);fill-rule:nonzero;" />
      <path
        d="M92.704,26.388C92.052,27.922 89.654,32.688 87.707,34.875L85.997,32.439C88.217,29.8 89.748,26.9 90.651,24.724L92.693,26.388L92.704,26.388ZM87.398,18.698C88.929,19.256 89.974,19.815 91.636,21.063L90.081,23.334C88.716,22.157 87.837,21.622 86.033,20.849L87.398,18.698ZM88.668,12.065C90.912,13.016 92.099,13.896 92.811,14.407L91.351,16.677C89.737,15.405 88.941,14.894 87.279,14.145L88.668,12.065ZM106.214,33.52L96.836,33.52L96.836,34.887L94.2,34.887L94.2,15.262L99.222,15.262C99.709,14.312 100.219,12.6 100.373,11.994L103.128,12.267C103.009,12.635 102.249,14.68 102.024,15.274L108.695,15.274L108.695,34.899L106.214,34.899L106.214,33.52ZM106.214,24.986L96.836,24.986L96.836,31.108L106.214,31.108L106.214,24.986ZM96.836,17.664L96.836,22.692L106.214,22.692L106.214,17.664L96.836,17.664ZM124.567,18.199C123.926,19.839 123.415,20.564 122.952,21.277L120.519,19.863C120.709,19.613 120.982,19.28 121.195,18.936L118.228,18.936L118.228,20.956C119.059,22.442 120.448,23.928 121.575,25.081L120.044,27.28C119.308,26.424 118.88,25.723 118.239,24.546L118.239,35.018L115.925,35.018L115.925,23.667C115.295,25.842 114.31,27.958 113.052,29.836L111.924,26.757C113.847,24.142 114.951,21.17 115.58,18.924L112.411,18.924L112.411,16.511L115.925,16.511L115.925,12.101L118.239,12.101L118.239,16.511L121.207,16.511L121.207,18.9C121.896,17.83 122.573,16.535 123.475,12.897L126.015,13.266C125.873,13.955 125.671,14.752 125.362,15.786L127.238,15.786L127.238,12.101L129.648,12.101L129.648,15.786L134.788,15.786L134.788,18.199L129.648,18.199L129.648,21.622L135.275,21.622L135.275,24.059L130.42,24.059C132.129,27.185 133.423,28.647 135.667,30.478L134.396,33.164C133.494,32.332 131.203,30.264 129.648,26.84L129.648,35.018L127.238,35.018L127.238,26.912C125.754,29.325 124.163,31.108 121.73,32.986L120.139,30.739C122.288,29.301 124.674,27.304 126.549,24.059L121.207,24.059L121.207,21.622L127.226,21.622L127.226,18.199L124.567,18.199ZM158.113,15.952L160.728,15.952L160.728,18.389L153.415,18.389C153.51,20.243 153.807,25.247 155.291,28.885C155.409,29.158 156.513,31.868 157.534,31.868C158.365,31.868 158.757,29.336 158.9,28.207L161.143,29.479C160.799,31.357 160.146,34.947 157.95,34.947C156.49,34.947 151.468,33.259 150.886,18.401L138.018,18.401L138.018,15.964L150.815,15.964C150.815,15.429 150.744,12.719 150.72,12.089L153.308,12.089C153.308,13.598 153.284,14.989 153.332,15.964L157.736,15.964C156.573,15.084 155.564,14.502 154.104,13.765L155.564,11.863C156.81,12.445 158.318,13.325 159.493,14.181L158.113,15.952ZM138.006,31.595C139.324,31.428 142.612,31.012 143.17,30.941L143.17,23.856L138.421,23.856L138.421,21.443L150.174,21.443L150.174,23.856L145.687,23.856L145.687,30.62C148.488,30.204 149.984,29.919 150.934,29.717L150.934,32.011C146.957,32.89 141.306,33.722 138.433,34.091L138.018,31.595L138.006,31.595ZM168.587,19.685C166.735,20.861 165.619,21.349 164.562,21.788L163.126,19.447C167.044,18.08 171.614,15.084 173.68,11.934L176.481,11.934C178.262,14.716 182.18,17.474 187.011,19.352L185.444,21.788C184.423,21.277 183.011,20.564 181.527,19.613L181.527,21.004L168.587,21.004L168.587,19.685ZM180.173,18.686C177.538,16.832 175.686,14.704 175.104,14.05C174.131,15.227 172.813,16.713 170.083,18.686L180.173,18.686ZM183.117,35.161C182.821,34.626 182.678,34.353 182.12,33.521C178.784,33.865 173.324,34.257 164.812,34.424L164.444,31.88C164.954,31.88 167.174,31.88 167.934,31.856C168.563,30.656 169.786,28.005 170.296,26.175L164.028,26.175L164.028,23.809L185.99,23.809L185.99,26.175L173.288,26.175C172.457,28.148 171.507,30.228 170.688,31.785C175.247,31.69 175.757,31.666 180.636,31.417C179.437,29.836 178.832,29.004 177.763,27.922L179.841,26.65C180.601,27.387 183.379,30.145 185.492,33.675L183.129,35.137L183.117,35.161ZM195.356,34.982L192.84,34.982L192.84,25.568C191.38,26.935 190.643,27.375 189.896,27.839L188.827,25.342C191.949,23.512 194.335,20.873 195.451,18.21L189.16,18.21L189.16,15.821L192.84,15.821L192.84,12.017L195.356,12.017L195.356,15.821L198.206,15.821L198.206,18.21C197.79,19.137 197.232,20.362 195.748,22.335C196.995,23.75 197.576,24.166 199.155,25.342L197.992,27.66C196.84,26.733 196.187,26.079 195.356,25.093L195.356,34.982ZM203.666,12.017L206.219,12.017L206.219,18.923L211.43,18.923L211.43,21.539L206.219,21.539L206.219,31.571L212,31.571L212,34.186L197.529,34.186L197.529,31.571L203.666,31.571L203.666,21.539L198.574,21.539L198.574,18.923L203.666,18.923L203.666,12.017ZM64.688,12.113L64.688,12.101L67.311,12.398C67.193,13.301 66.991,14.882 65.946,17.64L65.946,34.983L63.489,34.983L63.489,22.597C62.61,23.988 62.266,24.332 61.684,24.938L60.568,21.872C61.91,20.41 64.011,17.07 64.688,12.113ZM81.688,28.659L83.979,29.479C83.955,30.62 83.813,32.367 83.492,33.509C83.385,33.925 83.136,34.911 81.545,34.911L78.067,34.911C76.678,34.911 76.191,34.329 76.191,32.688L76.191,21.051L78.506,21.051L78.506,31.785C78.506,32.308 78.566,32.462 78.993,32.462L80.809,32.462C80.999,32.462 81.32,32.462 81.427,31.975L81.427,31.904C81.474,31.559 81.569,30.917 81.688,28.683L81.688,28.659ZM80.204,17.212L80.204,17.176C79.373,16.083 78.067,14.823 77.023,14.098L76.999,14.098L77.023,14.074L78.566,12.505L78.578,12.505C80.359,13.634 82.056,15.441 82.056,15.441L82.056,15.465L80.204,17.212ZM83.421,17.509L83.409,17.521L83.409,19.958L75.099,19.958C74.85,23.666 74.315,26.317 73.389,28.552C72.416,30.894 70.98,32.879 68.724,34.983L68.688,34.995L68.688,34.971L66.801,32.688L66.825,32.688C70.647,29.848 72.178,26.507 72.642,19.946L67.311,19.946L67.311,17.509L72.713,17.509L72.713,12.089L75.194,12.089L75.194,17.509L83.421,17.509Z"
        style="fill:rgb(35,24,21);" />
      <path
        d="M32.089,5.039C33.501,2.02 36.79,0.605 39.841,0.154C43.996,-0.655 47.545,1.83 49.54,5.158C51.297,8.974 50.573,14.216 47.628,17.27C45.598,19.375 42.702,19.529 39.924,19.529C36.446,18.994 32.943,16.736 31.341,13.372C30.237,11.303 30.724,8.367 31.685,6.418L32.1,5.039L32.089,5.039Z"
        style="fill:rgb(239,126,0);fill-rule:nonzero;" />
      <path
        d="M5.912,10.603C8.927,9.414 13.047,8.119 16.133,9.842C16.632,10.258 17.463,10.187 17.736,10.876C12.774,11.15 7.55,12.065 5.034,16.915C4.309,18.71 3.965,21.158 5.295,22.763C8.773,27.197 13.771,31.06 19.647,29.11C22.354,28.231 25.215,26.436 26.177,23.536C26.865,19.72 26.557,15.239 23.007,12.719C21.143,11.031 18.923,10.235 16.715,9.426C16.288,9.081 16.026,8.547 16.217,8.047C16.561,6.561 18.235,6.787 19.386,6.478C21.333,6.787 23.054,7.774 24.799,8.547C28.456,11.031 30.557,14.93 31.056,19.138C31.744,22.418 31.21,25.866 29.144,28.35C26.663,30.573 23.957,32.439 20.823,33.164C17.237,33.699 13.379,33.235 10.293,31.714C6.624,29.693 2.814,26.626 0.558,22.93C-0.546,20.754 0.214,18.044 0.677,15.821C1.52,13.563 3.799,11.578 5.9,10.627"
        style="fill:rgb(35,24,21);fill-rule:nonzero;" />
    </g>
  </g>
</svg>
