<svg clip-rule="evenodd" fill-rule="evenodd" stroke-linejoin="round" stroke-miterlimit="2" viewBox="0 0 36 36" xmlns="http://www.w3.org/2000/svg"><g fill-rule="nonzero"><path d="m0-4.094c.659-1.407 2.19-2.064 3.613-2.278 1.941-.374 3.596.781 4.522 2.331.819 1.78.48 4.218-.89 5.643-.944.978-2.298 1.05-3.596 1.05-1.619-.249-3.256-1.3-4.004-2.867-.517-.96-.286-2.33.16-3.239z" fill="#f57e25" transform="matrix(1.22331610275 0 0 1.22779756693 21.909794587 12.4705058545)"/><g fill="#231f20"><path d="m0-8.829c1.406-.551 3.328-1.156 4.769-.354.232.196.623.159.748.479-2.313.125-4.752.552-5.928 2.812-.337.838-.498 1.977.126 2.725 1.62 2.063 3.951 3.861 6.693 2.954 1.263-.411 2.597-1.246 3.044-2.599.319-1.779.177-3.862-1.48-5.037-.869-.783-1.904-1.157-2.936-1.531-.195-.159-.319-.409-.23-.641.159-.693.943-.587 1.476-.73.908.143 1.71.605 2.528.962 1.708 1.157 2.687 2.971 2.918 4.93.321 1.529.072 3.132-.889 4.289-1.156 1.032-2.42 1.905-3.88 2.243-1.672.249-3.471.036-4.911-.676-1.711-.943-3.49-2.368-4.539-4.094-.518-1.015-.161-2.278.053-3.311.392-1.05 1.458-1.975 2.438-2.421" transform="matrix(1.22331610275 0 0 1.22779756693 6.97431178105 21.4604228609)"/><path d="m0-3.782h.896l-1.266 2.363v1.419h-.789v-1.419l-1.308-2.363h.931l.784 1.647z" transform="matrix(1.22331610275 0 0 1.22779756693 10.362895783 31.3122737269)"/><path d="m0-3.88h.805v2.322c0 .26.029.45.09.57.096.212.304.318.625.318.318 0 .525-.106.621-.318.062-.12.091-.31.091-.57v-2.322h.804v2.325c0 .402-.062.715-.188.938-.231.411-.674.617-1.328.617-.655 0-1.098-.206-1.332-.617-.125-.223-.188-.536-.188-.938z" transform="matrix(1.22331610275 0 0 1.22779756693 12.789975445 31.4325925827)"/><path d="m0-2.216c-.101-.084-.24-.126-.421-.126h-.712v1.114h.712c.181 0 .32-.046.421-.136.099-.091.149-.235.149-.432 0-.196-.05-.336-.149-.42zm.603 1.362c-.222.185-.538.277-.948.277h-.788v1.36h-.785v-3.782h1.624c.374 0 .672.097.895.293.223.194.334.497.334.905 0 .447-.111.763-.332.947" transform="matrix(1.22331610275 0 0 1.22779756693 20.6301790645 30.3509141563)"/><path d="m0 1.97c.183-.232.276-.56.276-.985 0-.424-.093-.751-.276-.984-.185-.232-.434-.348-.746-.348-.313 0-.564.116-.75.346-.186.232-.278.56-.278.986 0 .425.092.753.278.985.186.23.437.347.75.347.312 0 .561-.117.746-.347zm.493.575c-.286.294-.7.44-1.239.44-.54 0-.954-.146-1.239-.44-.383-.361-.575-.881-.575-1.56 0-.693.192-1.212.575-1.56.285-.295.699-.44 1.239-.44.539 0 .953.145 1.239.44.381.348.573.867.573 1.56 0 .679-.192 1.199-.573 1.56" transform="matrix(1.22331610275 0 0 1.22779756693 25.9124795635 27.7750093303)"/><path d="m0-.001c0 .652.527 1.177 1.178 1.177.65 0 1.176-.525 1.176-1.177 0-.648-.526-1.176-1.176-1.176-.651 0-1.178.528-1.178 1.176m1.252-.069.197-.05.071-.185c0-.096-.033-.161-.101-.196l-.144-.027h-.432v.458zm-.59-.614h.609c.1 0 .183.014.248.045.124.057.186.163.186.317l-.05.196-.138.125.118.083.044.169.005.18.014.115.059.081v.03h-.223l-.016-.044-.008-.106-.012-.224-.094-.176-.159-.025h-.402v.575h-.181zm-.508.683c0-.564.458-1.023 1.024-1.023.564 0 1.023.459 1.023 1.023 0 .566-.459 1.025-1.023 1.025-.566 0-1.024-.459-1.024-1.025" transform="matrix(1.22331610275 0 0 1.22779756693 27.6471152845 27.9739065706)"/></g></g></svg>