<svg fill="none" height="180" viewBox="0 0 300 180" width="300" xmlns="http://www.w3.org/2000/svg" xmlns:xlink="http://www.w3.org/1999/xlink"><clipPath id="a"><path d="m101.961 45.4945h96.0784v88.022h-96.0784z"/></clipPath><path d="m0 0h300v180h-300z" fill="#f5f7f6"/><g clip-path="url(#a)"><path d="m120.983 102.481c-9.101 8.438-10.704 19.302-10.041 31.036h-8.733c-.036-.087-.193-.259-.199-.445-.241-8.728.217-17.339 4.086-25.375 3.502-7.278 8.661-13 15.424-17.1974 6.961-4.3208 14.646-5.9134 22.68-6.0183 5.46-.0679 10.927-.0432 16.387.0123 1.158.0124 1.64-.2592 1.549-1.537-.108-1.5184-.024-3.0493-.024-4.5492-.289-.0988-.422-.1914-.56-.1914-8.462.1914-16.924.2655-25.374.6358-4.225.1852-8.24 1.5864-12.109 3.3394-.621.284-1.26.5185-2.188.9012 1.061-3.7591 2.694-6.8331 4.768-9.6417 3.803-5.1479 8.721-8.9133 14.549-11.2836 4.026-1.6357 8.3-2.253 12.657-2.2221 5.865.0432 11.729.0494 17.593 0 7.07-.0556 13.194-2.4197 17.654-8.2467 1.428-1.8641 2.441-4.0677 3.7-6.2097.133.2161.374.5185.507.858 4.496 11.5491 5.768 23.4438 3.881 35.752-1.597 10.4133-5.454 19.8014-11.704 28.1044-5.768 7.666-13.122 13.178-22.349 15.765-6.925 1.938-13.905 2.012-20.703-.402-7.625-2.709-13.706-7.598-17.696-14.894-1.38-2.531-2.423-5.253-3.767-8.197z" fill="#3e765e"/></g></svg>