<svg fill="none" height="180" viewBox="0 0 300 180" width="300" xmlns="http://www.w3.org/2000/svg" xmlns:xlink="http://www.w3.org/1999/xlink"><clipPath id="a"><rect height="40.5495" rx="10" width="29.4118" x="173.531" y="45.4945"/></clipPath><clipPath id="b"><rect height="42.5275" rx="10" width="42.1569" x="166.672" y="91.978"/></clipPath><clipPath id="c"><rect height="89.011" rx="10" width="65.6863" x="91.1836" y="45.4945"/></clipPath><path d="m0 0h300v180h-300z" fill="#f5f7f6"/><g clip-path="url(#a)"><path d="m175.982 69.2308h4.902l8.334 6.9231.98 4.945-1.961 1.978-5.392-.4945-5.392-6.4285z" fill="#fff"/><path d="m188.237 86.044c-8.119 0-14.706-6.8111-14.706-15.2061 0-7.2229 9.973-20.7737 12.761-24.4168.459-.594 1.141-.9266 1.876-.9266h.138c.735 0 1.417.3326 1.877.9266 2.788 3.6431 12.76 17.1939 12.76 24.4168 0 8.395-6.587 15.2061-14.706 15.2061zm-7.353-13.9389c0-.697-.551-1.2672-1.225-1.2672s-1.226.5702-1.226 1.2672c0 4.9024 3.838 8.8702 8.579 8.8702.674 0 1.225-.5702 1.225-1.2672 0-.6969-.551-1.2672-1.225-1.2672-3.386 0-6.128-2.8353-6.128-6.3358z" fill="#3e765e"/></g><g clip-path="url(#b)"><path d="m200.005 107.308-6.862-6.923-20.589 20.274-3.431 10.879 13.235-4.945z" fill="#fff"/><g fill="#3e765e"><path d="m208.829 100.561c-.045.411-.037.839-.148 1.235-.188.668-.45 1.307-.89 1.874-.794 1.024-1.739 1.901-2.64 2.818-1.604 1.634-3.222 3.251-4.834 4.874-1.901 1.915-3.805 3.824-5.708 5.738-1.578 1.585-3.159 3.171-4.737 4.759-1.811 1.823-3.621 3.647-5.43 5.473-.765.773-1.525 1.553-2.285 2.334-.418.431-.945.709-1.432 1.043-.498.342-1.054.548-1.599.775-.376.158-.786.236-1.181.353-.895.265-1.787.532-2.682.8-.852.256-1.702.518-2.555.767-.749.219-1.501.425-2.25.636-.495.142-.988.308-1.488.42-.895.201-1.599-.251-2.028-.987-.352-.601-.315-1.219-.119-1.863.243-.8.453-1.61.683-2.414.262-.92.532-1.837.8-2.757.166-.575.333-1.147.5-1.722.27-.925.514-1.855.818-2.767.312-.936.702-1.85 1.39-2.58.67-.711 1.363-1.399 2.044-2.096.513-.527 1.024-1.054 1.541-1.578 1.223-1.238 2.449-2.476 3.672-3.714.598-.604 1.191-1.213 1.79-1.82 2.69-2.719 5.382-5.436 8.072-8.155.919-.928 1.832-1.858 2.748-2.786 1.758-1.7807 3.519-3.5613 5.279-5.3447.175-.1764.329-.3796.522-.532.254-.2006.532-.3744.813-.5348.516-.2968 1.051-.5561 1.62-.7352.212-.0669.442-.0963.665-.0963.548 0 1.104-.0187 1.644.0642.376.0561.736.2486 1.088.409.439.2006.884.4038 1.249.7353.413.3743.826.7486 1.221 1.1417.837.8368 1.673 1.6737 2.481 2.5373.267.2861.474.639.664.9866.196.3582.371.7326.487 1.1229.106.3503.127.7299.17 1.096.018.158.002.321.002.484.014 0 .027 0 .04.003zm-31.061 17.555c.04.104.074.174.095.246.09.326.18.65.265.976.204.775.429 1.548.601 2.331.087.399.254.634.667.661.021 0 .042.01.064.016.881.232 1.76.465 2.642.7.196.051.392.107.585.169.103.034.191.04.275-.041.252-.238.514-.467.758-.713 1.983-2.011 3.96-4.03 5.941-6.04 2.766-2.808 5.536-5.61 8.305-8.414.238-.241.238-.302.005-.559-.018-.021-.039-.04-.058-.059-1.509-1.532-3.021-3.061-4.533-4.591-.066-.066-.161-.112-.251-.149-.037-.016-.109.002-.14.032-.096.083-.18.179-.268.267-.823.834-1.647 1.666-2.467 2.5-1.618 1.647-3.233 3.299-4.853 4.944-1.809 1.834-3.625 3.66-5.436 5.491-.736.746-1.472 1.492-2.195 2.228zm-3.13 3.759c-.084.013-.135.008-.169.027-.36.192-.752.337-.919.775-.264.685-.397 1.404-.574 2.11-.029.117-.056.238-.093.353-.135.422-.278.839-.408 1.262-.214.703-.415 1.411-.624 2.114-.064.217-.149.428-.21.647-.071.252.016.34.263.281.142-.035.288-.067.431-.109.715-.214 1.427-.434 2.142-.642.421-.123.847-.217 1.265-.345.739-.225 1.47-.487 2.214-.695.548-.153.905-.492 1.152-.984.074-.152.045-.249-.112-.291-.463-.132-.932-.249-1.398-.38-.312-.088-.627-.166-.926-.289-.487-.2-.93-.481-1.139-1-.166-.412-.307-.839-.431-1.267-.138-.479-.244-.965-.371-1.447-.013-.05-.066-.088-.09-.117z"/><path d="m193.019 109.132c-.035.342-.156.661-.403.917-.521.543-1.048 1.078-1.575 1.615-1.387 1.417-2.777 2.837-4.164 4.254-.636.647-1.279 1.286-1.907 1.941-.283.297-.638.447-1.011.567-.069.021-.154.019-.225.005-.628-.128-1.025-.502-1.178-1.133-.096-.396.061-.722.294-1.014.214-.267.45-.516.691-.762.791-.805 1.586-1.601 2.382-2.401 1.592-1.596 3.193-3.187 4.777-4.791.431-.438.916-.618 1.49-.417.209.072.395.254.548.428.191.214.268.494.281.797z"/></g></g><g clip-path="url(#c)"><path d="m99.517 48.4615-6.8627 6.4286.9804 69.7249 8.8233 6.429h28.432l23.039-25.22v-50.9339l-6.373-6.4286z" fill="#fff"/><g fill="#3e765e"><path d="m91.1836 89.9565c0-10.3984 0-20.7968.0055-31.1952 0-1.1324.0549-2.2704.1098-3.4029.0165-.3068.1263-.608.1922-.9149.3019-1.4057.807-2.7223 1.647-3.8938 1.0377-1.4504 2.3115-2.6163 3.8323-3.5535 1.3012-.8033 2.7067-1.1213 4.1676-1.2942 1.015-.1227 2.042-.2008 3.063-.2008 13.622-.0112 27.249-.0168 40.87 0 1.658 0 3.289.3179 4.848.8981 1.532.5634 2.756 1.5732 3.876 2.7614.923.9762 1.653 2.064 2.147 3.308.675 1.6848.922 3.4587.922 5.2606.011 15.9267.017 31.8534-.005 47.7797 0 1.78-.324 3.526-1.329 5.055-.263.401-.571.781-.906 1.126-5.045 5.166-10.091 10.326-15.142 15.481-1.762 1.796-3.53 3.587-5.331 5.35-1.131 1.11-2.504 1.829-4.074 1.885-2.855.095-5.721.084-8.581.089-6.408.012-12.815.006-19.222 0-1.093 0-2.152-.161-3.2173-.507-.9937-.324-1.9326-.709-2.7726-1.294-.7522-.53-1.4549-1.161-2.0863-1.836-1.9656-2.108-2.9428-4.675-2.9648-7.559-.0494-6.582-.0384-13.165-.0494-19.748 0-4.5294 0-9.0648 0-13.5945zm5.4903.0725v33.175c0 1.384.3569 2.656 1.2134 3.749.6643.848 1.5208 1.434 2.5367 1.735 1.169.352 2.377.352 3.59.346 6.111-.022 12.222-.011 18.333-.006.329 0 .659.012.993 0 .56-.022.692-.161.72-.736.005-.151.005-.301.005-.452 0-5.874.011-11.754 0-17.628 0-1.523.269-2.962.89-4.34.829-1.841 2.278-3.029 4.024-3.888.313-.156.653-.274.994-.357 1.515-.385 3.063-.407 4.617-.407 5.287.005 10.574.011 15.862 0 .988 0 .993-.224.993-.921 0-13.8849 0-27.7699-.005-41.6548 0-.8424-.06-1.6903-.159-2.5271-.088-.7698-.099-1.5731-.615-2.2426-.302-.3905-.5-.8758-.851-1.2049-.45-.4184-1.005-.7197-1.521-1.0544-.132-.0836-.297-.1227-.45-.1562-1.181-.2231-2.372-.2622-3.569-.2622-13.863.0112-27.726.0056-41.589.0112-.33 0-.665 0-.988.0446-.884.1339-1.7464.2566-2.5425.7978-.6533.4462-1.2078.8925-1.6196 1.5954-.291.5021-.5381.9651-.593 1.5508-.0494.5133-.247 1.0153-.247 1.5286-.0165 11.1012-.011 22.2081-.011 33.3093zm32.9251 38.793c.05.028.105.056.154.084.324-.246.681-.452.966-.737 1.856-1.863 3.701-3.743 5.546-5.617 2.772-2.829 5.539-5.668 8.317-8.496 1.362-1.384 2.746-2.745 4.096-4.14.774-.797 1.521-1.629 2.251-2.471.28-.323.187-.535-.236-.563-.587-.034-1.18-.006-1.773-.006-5.326 0-10.646 0-15.972 0-.373 0-.752 0-1.125.011-1.164.028-2.279 1.133-2.251 2.343.022 1.043-.011 2.087-.011 3.13v14.392c0 .692.022 1.378.038 2.07z"/><path d="m110.415 95.4949c-1.796.0669-3.19-1.9135-2.553-3.548.115-.2901.318-.5634.532-.7921 1.62-1.6792 3.251-3.3471 4.887-5.0095 5.1-5.1881 10.201-10.3761 15.301-15.5641 2.378-2.4155 4.76-4.8255 7.138-7.2465.609-.6193 1.301-.9595 2.185-.9763.736-.0167 1.241.3849 1.696.8424.72.7252.967 1.6289.588 2.6107-.159.4073-.417.8089-.725 1.1213-2.191 2.2649-4.403 4.5019-6.61 6.75-3.421 3.4754-6.847 6.9397-10.256 10.4151-3.278 3.336-6.545 6.6887-9.817 10.0246-.313.318-.653.6137-.999.8982-.412.3403-.879.5355-1.367.4742z"/><path d="m104.87 78.8879c-.933-.1116-1.68-.5802-2.19-1.3947-.335-.5299-.659-1.1101-.428-1.7572.164-.4686.378-.9651.708-1.3165 1.433-1.5286 2.904-3.0069 4.376-4.5019 3.909-3.9719 7.812-7.9494 11.732-11.9102.385-.3849.808-.7754 1.291-1.0041.895-.424 1.762-.2845 2.547.3793.593.5021.862 1.1771 1.104 1.88.022.0614.038.145.016.2008-.219.6583-.373 1.3277-.911 1.8633-1.796 1.7795-3.547 3.6037-5.32 5.4055-2.174 2.2147-4.349 4.4238-6.523 6.6385-1.532 1.5564-3.058 3.1128-4.59 4.6748-.494.5021-1.076.8089-1.806.8424z"/></g></g></svg>