<svg fill="none" height="180" viewBox="0 0 300 180" width="300" xmlns="http://www.w3.org/2000/svg" xmlns:xlink="http://www.w3.org/1999/xlink"><clipPath id="a"><path d="m101.961 41.5385h96.0784v96.9231h-96.0784z"/></clipPath><path d="m0 0h300v180h-300z" fill="#f5f7f6"/><g clip-path="url(#a)"><ellipse cx="149.51" cy="89.5055" fill="#fff" rx="43.6275" ry="44.011"/><path d="m150.003 41.5385c-26.533 0-48.042 21.6978-48.042 48.4645 0 26.767 21.509 48.465 48.042 48.465 26.534 0 48.042-21.698 48.042-48.465 0-26.7667-21.514-48.4645-48.042-48.4645zm17.225 87.1015c-1.205.516-2.446 1.003-3.747 1.434-2.591.863-5.145 1.489-7.658 1.89-1.904.268-3.85.42-5.826.42-8.67 0-16.737-2.668-23.437-7.227-.036-.024-.072-.048-.108-.079-.223-.152-.44-.316-.663-.474-1.892-1.392-3.735-2.954-5.525-4.71-.126-.122-.247-.255-.373-.377-7.356-7.634-11.899-18.039-11.905-29.4957 0-.0243 0-.0487 0-.073 0-.6442.018-1.2885.048-1.9266 0-.1034.006-.2067.012-.31.03-.5592.072-1.1183.127-1.6714.036-.3647.072-.7294.12-1.094.006-.0669.018-.1337.024-.2006.344-2.6499.934-5.1904 1.765-7.5608.549.9603.989 1.6836 1.38 2.4433 1.886 3.6588 4.796 5.9927 8.748 7.0746 3.422.936 6.808 1.9935 10.206 3.0024 4.597 1.3675 6.682 4.218 6.718 9.0742.018 2.6686.06 5.3366.193 8.0046.084 1.69.928 3.081 2.374 3.896 3.102 1.744 4.169 4.394 3.922 7.84-.115 1.574.12 3.167.072 4.747-.078 2.638 3.723 5.014 6.567 3.835 3.091-1.288 5.182-3.476 6.073-6.643 1.235-4.382 3.898-7.36 7.815-9.524 4.681-2.577 6.048-7.439 4.898-12.6783-1.031-4.6799-5.477-8.1078-10.339-8.205-2.693-.0547-5.386-.0122-8.085-.0122-2.808 0-5.405-.7111-7.815-2.1759-1.958-1.1912-3.958-2.3217-5.91-3.5251-2.645-1.6289-2.832-4.9838-.416-6.9348 1.838-1.483 3.868-2.0239 6.17-1.3007 1.584.4984 3.169 1.009 4.778 1.3919 1.946.468 3.343-.0912 4.217-1.5256.886-1.4465.759-3.1969-.404-4.6799-.699-.8874-1.47-1.7079-2.211-2.5648-2.633-3.045-2.627-6.6796.024-9.6942.838-.9481 1.687-1.878 2.507-2.8444 2.144-2.5284 2.404-5.0932.849-8.0288-.072-.1337-.12-.2796-.211-.5045 1.41.073 2.808.2188 4.175.4316.091.0121.181.0304.272.0486.367.0608.729.1276 1.09.1945 1.265.2431 2.494.5409 3.699.8752.151.0425.302.0851.452.1276.265.079.53.158.795.2371 10.303 3.3002 18.894 10.5085 24.064 19.8927-1.434.5591-2.754 1.0818-4.079 1.5863-4.446 1.7139-5.868 4.6252-4.452 9.2201.921 2.9842 1.879 5.9501 2.813 8.9283.789 2.5162 2.338 4.2058 4.953 4.8622 1.855.462 3.681 1.0333 5.639 1.5985-.205 1.5559-.494 3.0875-.868 4.5826-.446 1.708-.97 3.355-1.554 4.947-3.989 10.418-11.935 18.854-21.979 23.43z" fill="#3e765e"/></g></svg>