<svg fill="none" height="108" viewBox="0 0 110 108" width="110" xmlns="http://www.w3.org/2000/svg" xmlns:xlink="http://www.w3.org/1999/xlink"><linearGradient id="a" gradientUnits="userSpaceOnUse" x1="0" x2="140.246" y1="0" y2="21.7834"><stop offset="0" stop-color="#4ac071"/><stop offset="1" stop-color="#3e765e"/></linearGradient><g fill="url(#a)"><path d="m6.59599 1.54286v5.01428h3.104v-5.01428c0-.852431-.69452-1.54286-1.552-1.54286s-1.552.690429-1.552 1.54286z"/><path d="m9.69999 6.55714h5.04421c.8575 0 1.552.69043 1.552 1.54286s-.6945 1.54286-1.552 1.54286h-5.04399z"/><path d="m28.3255 9.64247v5.01433h3.104v-5.01433c0-.85243-.6945-1.54286-1.552-1.54286-.8574 0-1.552.69043-1.552 1.54286z"/><path d="m31.4295 14.6568h5.0443c.8574 0 1.552.6904 1.552 1.5428s-.6946 1.5429-1.552 1.5429h-5.044z"/><path d="m10.6708 21.7929v5.0142h3.104v-5.0142c0-.8525-.6945-1.5429-1.552-1.5429s-1.552.6904-1.552 1.5429z"/><path d="m73.3644 50.8554c.2481.4106.4979.824.7542 1.2387h.0043c5.212-12.3454 14.52-18.5439 28.1581-18.8108-2.388 14.6612-10.7877 23.1541-25.2169 25.8315l.498 2.0971c.4087 1.7208.8161 3.4364 1.2192 5.1388l.0235.0061.009.0024.0196.0055c.0182.0052.035.0103.0508.015.0626.0189.1084.0328.1523.027.4282-.0646.852-.1292 1.2716-.2109 6.9032-1.3215 13.0235-4.2658 18.1532-9.0525 7.5437-7.0379 11.2367-15.832 11.5357-26.0682.091-3.1725-1.808-5.2774-5.009-5.385-6.7862-.2281-13.4125.4864-19.615 3.5426-7.0372 3.4609-12.526 8.5187-16.3193 15.3543.277.3763.5557.7475.8329 1.1168.636.8471 1.2644 1.6843 1.8488 2.5507.5671.8437 1.0943 1.7161 1.629 2.6009z"/><path clip-rule="evenodd" d="m62.1487 82.2239c.8619.0828 1.735.1667 2.622.2635v1.2441c0 1.3025-.0001 2.6051-.0003 3.9076v.0108c-.0007 5.2066-.0014 10.4132.009 15.6201 0 .637.0649 1.291.2119 1.911.4672 2.002 2.4135 3.172 4.4291 2.716 2.007-.456 3.0364-1.903 3.0364-4.322.0086-10.1583.013-20.3213 0-30.4843-.0043-5.2731-.8348-10.3955-2.9931-15.251-2.2059-4.9717-5.1731-9.4312-9.3686-12.948-5.2898-4.438-11.3149-7.4124-18.2354-8.3939-3.5294-.4993-7.0805-.7963-10.6316-.3529-2.0804.2582-3.6851 1.9628-3.8538 4.0419-.3763 4.6532-.3417 9.3236.7656 13.8692 2.4221 9.922 7.8028 17.7906 16.7432 23.0766 3.6505 2.1566 7.526 3.7406 11.7129 4.4337 1.8165.2988 3.6576.4756 5.5527.6576zm-27.123-38.4471c-1.4533 17.6141 13.3695 31.7416 29.6369 30.73 1.436-18.3674-14.0528-31.7287-29.6369-30.73z" fill-rule="evenodd"/><path d="m13.7748 26.8071h5.0442c.8575 0 1.552.6905 1.552 1.5429s-.6945 1.5429-1.552 1.5429h-5.044z"/><path d="m13.775 34.9074v-5.0145l-3.104.0002v5.0143c0 .8524.6945 1.5428 1.552 1.5428s1.552-.6904 1.552-1.5428z"/><path d="m10.671 29.8931h-5.04422c-.85748 0-1.552-.6904-1.552-1.5429 0-.8524.69452-1.5428 1.552-1.5428l5.04402-.0003z"/><path d="m31.4298 22.757v-5.0145l-3.104.0002v5.0143c0 .8524.6945 1.5428 1.552 1.5428.8574 0 1.552-.6904 1.552-1.5428z"/><path d="m28.3258 17.7427h-5.0443c-.8574 0-1.552-.6904-1.552-1.5429 0-.8524.6946-1.5428 1.552-1.5428l5.044-.0002z"/><path d="m9.70021 14.6574v-5.01454l-3.10399.00022v5.01432c0 .8524.69452 1.5428 1.552 1.5428s1.55199-.6904 1.55199-1.5428z"/><path d="m6.59622 9.64308h-5.04422c-.857481 0-1.552-.69043-1.552-1.54286s.694519-1.54285 1.552-1.54285l5.04399-.00023z"/></g></svg>