<svg fill="none" height="20" viewBox="0 0 16 20" width="16" xmlns="http://www.w3.org/2000/svg" xmlns:xlink="http://www.w3.org/1999/xlink"><clipPath id="a"><path d="m0 0h16v20h-16z"/></clipPath><g clip-path="url(#a)"><path d="m2.66667 0c-1.47084 0-2.66667 1.12109-2.66667 2.5v15c0 1.3789 1.19583 2.5 2.66667 2.5h10.66663c1.4709 0 2.6667-1.1211 2.6667-2.5v-11.25h-5.3333c-.73753 0-1.33337-.55859-1.33337-1.25v-5zm8.00003 0v5h5.3333zm-1.6667 9.0625v3.9883l1.2917-1.211c.3916-.3671 1.025-.3671 1.4125 0 .3875.3672.3916.961 0 1.3243l-3.00003 2.8125c-.39167.3671-1.025.3671-1.4125 0l-3-2.8125c-.39167-.3672-.39167-.961 0-1.3243.39166-.3632 1.025-.3671 1.4125 0l1.29166 1.211v-3.9883c0-.51953.44584-.9375 1-.9375.55417 0 1 .41797 1 .9375z" fill="#fff"/></g></svg>