<svg fill="none" height="130" viewBox="0 0 110 130" width="110" xmlns="http://www.w3.org/2000/svg" xmlns:xlink="http://www.w3.org/1999/xlink"><linearGradient id="a" gradientUnits="userSpaceOnUse" x1="0" x2="141.276" y1="0" y2="18.2291"><stop offset="0" stop-color="#4ac071"/><stop offset="1" stop-color="#3e765e"/></linearGradient><g fill="url(#a)"><path d="m17.3098 41.9132-.001-.0001c.453-.0223.8337-.0963 1.1456-.3465l.031-.0248c.3316-.2649.6685-.534.9645-.8344 6.5293-6.6265 13.0586-13.2566 19.5807-19.8905.1453-.1467.2941-.2908.4429-.435.573-.555 1.1472-1.1112 1.5337-1.8254.1562-.2913.2834-.6748.247-.9956-.0981-.8482-.5559-1.4824-1.3371-1.8548-.6177-.2914-1.2353-.295-1.7731.129-.6031.4757-1.1772 1.0067-1.7222 1.5525-1.1262 1.1276-2.2437 2.2658-3.3609 3.4036l-.0017.0016-.001.0011c-.5076.517-1.0152 1.0339-1.5234 1.5497l-.0027.0027c-3.5018 3.5539-7.0035 7.1077-10.5016 10.6652l-.6121.6225c-1.4279 1.4519-2.8571 2.9052-4.2749 4.3667-.2652.2729-.5014.5974-.6795.9367-.3379.6379-.2252 1.2759.149 1.8695.4104.6524.9986 1.0211 1.6958 1.1062l-.0026.0001z"/><path d="m10.9718 26.845c.2071 1.0288 1.2462 1.8142 2.1037 1.8142.6468-.0073 1.1736-.3318 1.6024-.7633 3.786-3.8276 7.5612-7.67 11.3327-11.5124.1546-.1585.3135-.3135.4724-.4686.5548-.5413 1.1104-1.0835 1.486-1.7771.1563-.2876.2907-.66.2544-.9735-.1127-.9255-.6214-1.6004-1.4934-1.9322-.2616-.0996-.5741-.1254-.8575-.1107-.5414.0222-.9483.3614-1.3298.7154-.4506.4204-.8902.8518-1.3226 1.2906l-.0031.0031c-3.5052 3.5538-7.0068 7.1038-10.4975 10.6686-.1246.1281-.2529.2529-.3814.3778-.4152.4037-.8315.8085-1.1229 1.3295-.2398.4241-.3415.8518-.2434 1.3386z"/><path clip-rule="evenodd" d="m.00029065 30.0019.0002907 5.2037c0 8.4259 0 16.8519.01090035 25.2705 0 .5596.0355252 1.1165.0710271 1.673l.0161756.2556c.0581346.9956.3124766 1.9543.6976216 2.8615.574084 1.3459 1.431574 2.4817 2.576114 3.4072.70125.5679 1.47881.9698 2.27817 1.3386 1.14453.5236 2.3799.6269 3.60801.6269 5.1314.0134 10.2609.0112 15.3912.009h.009c1.925-.0008 3.8501-.0017 5.7755-.0017.7194 0 1.4352-.0221 2.151-.0442.7231-.0221 1.4316-.1696 2.0856-.4646.8466-.3835 1.5842-.9514 2.2382-1.6152 3.499-3.5437 6.9944-7.0947 10.4861-10.6495 1.046-1.0652 2.0738-2.1525 3.1016-3.2398l.0008-.0009c.5123-.5421.8872-1.1917 1.1742-1.8702.3597-.8407.505-1.7479.505-2.666.0025-8.6744.0017-17.3472.0009-26.0205v-.0324c-.0004-4.3422-.0009-8.6846-.0009-13.0274 0-.1751.0011-.3503.0021-.5256.0055-.90962.0109-1.82163-.1292-2.73046-.1272-.81494-.3198-1.61513-.6286-2.36369-.3343-.81494-.7449-1.61144-1.3916-2.23832-.0436-.04131-.0779-.09205-.1122-.1428-.0086-.01268-.0172-.02536-.0259-.03789-.4505-.60844-1.0355-1.08413-1.6605-1.475-.7085-.4425-1.4534-.818629-2.2709-1.058317-.9483-.276563-1.9003-.4351261-2.874-.4351261-11.1874-.01106253-22.3748-.01106253-33.56216 0-.64675 0-1.29714.0590002-1.93663.1622501-.62495.099563-1.2499.239689-1.83852.460939-.66129.247063-1.32984.531004-1.90029.936624-.46779.33462-.87439.76018-1.27912 1.18378-.11709.12256-.23408.245-.3523.36498-.28341.28394-.57772.57894-.77392.92556-.37425.66007-.712156 1.33857-.93743 2.07976-.301576 1.00669-.49778176 2.02444-.49778176 3.06801-.00872016 6.9383-.00813893 13.8743-.00755759 20.8117zm6.51505935 31.4588v-26.0818l.00363-.0037v-26.05963c0-.69325.10537-1.357.51232-1.93963l.01284-.01987c.025-.03899.05117-.0798.08526-.10181l.02756-.01803c.41961-.27443.84146-.55033 1.36768-.57198.1045-.00454.20962-.01344.31485-.02236.15087-.01277.30197-.02557.45181-.02557 11.2382-.00369 22.4801-.00369 33.7184.00368.3887 0 .8066.01107 1.159.15119.6686.2655 1.279.649 1.3698 1.48976.0111.10309.0234.20639.0358.30984l.0002.00184c.04.33626.0803.67423.0803 1.01213.0073 12.67474.0073 25.34944.0073 38.02414v.0199c0 .0874-.0004.1744-.0008.2613v.0012c-.0008.1727-.0016.3454.0008.5193.0036.1216-.04.1843-.1708.1733-.0435-.0025-.0885-.0017-.1342-.0009-.023.0005-.0461.0009-.0693.0009-.8332 0-1.6666-.0005-2.5001-.0009h-.0034c-2.5022-.0014-5.0054-.0028-7.5066.0083-.5559.0036-1.13.0258-1.6641.1585-.9556.2397-1.7259.7781-2.3291 1.6004-.6104.8334-.832 1.7626-.8357 2.7546-.0109 2.6303-.0095 5.2585-.0081 7.8862.0004.8756.0009 1.7512.0009 2.6269 0 .0382.0002.0731.0004.1049.001.182.0015.2647-.039.3002-.0332.0293-.0941.027-.2052.0229-.0489-.0018-.1075-.004-.1777-.004h-.0536c-6.9257.0037-13.8549.0074-20.78057 0-.59589 0-1.19177-.059-1.72589-.3798-.54138-.3282-.78119-.8481-.89019-1.4455-.0436-.2471-.0545-.5052-.0545-.7559z" fill-rule="evenodd"/><path d="m75.1271 101.264h.0011-.0036z"/><path d="m76.2727 100.917c-.3119.25-.6925.324-1.1456.347-.6971-.085-1.2853-.454-1.6957-1.106-.3743-.5942-.4869-1.2321-.149-1.8701.178-.3392.4142-.6637.6795-.9366 1.4172-1.4608 2.8455-2.9132 4.2728-4.3645l.003-.0032.6111-.6215c3.4918-3.551 6.9871-7.0984 10.4825-10.6458l.0218-.0222c.5088-.5163 1.0169-1.0337 1.525-1.5512 1.1176-1.1382 2.2355-2.2767 3.362-3.4048.545-.5457 1.1191-1.0767 1.7223-1.5524.5377-.4241 1.1554-.4204 1.7731-.1291.7812.3725 1.239 1.0067 1.3371 1.8548.0363.3209-.0908.7044-.2471.9957-.3865.7142-.9607 1.2704-1.5336 1.8254-.1488.1442-.2976.2883-.443.435-6.522 6.6339-13.0513 13.264-19.5806 19.8905-.296.3-.633.57-.9646.834z"/><path d="m70.8939 88.0098c-.8575 0-1.8967-.7854-2.1038-1.8142-.0981-.4868.0037-.9145.2435-1.3386.2913-.5209.7076-.9258 1.1228-1.3294.1285-.1249.2569-.2498.3814-.3779 3.4913-3.5654 6.9935-7.116 10.4993-10.6703l.0014-.0014c.4323-.4388.872-.8702 1.3225-1.2906.3816-.354.7885-.6933 1.3299-.7154.2834-.0147.5959.0111.8575.1106.872.3319 1.3807 1.0067 1.4933 1.9323.0364.3134-.0981.6859-.2543.9735-.3756.6936-.9312 1.2357-1.4859 1.777-.159.155-.318.3102-.4726.4687-3.7715 3.8424-7.5466 7.6848-11.3327 11.5124-.4287.4314-.9556.7559-1.6023.7633z"/><path clip-rule="evenodd" d="m57.8189 94.5562c0 8.4258 0 16.8518.0109 25.2708 0 .559.0356 1.116.0711 1.673l.0161.255c.0582.996.3125 1.955.6977 2.862.5741 1.346 1.4315 2.481 2.5761 3.407.7012.568 1.4788.97 2.2781 1.339 1.1446.523 2.38.626 3.6081.626 5.1347.014 10.2675.012 15.4012.009 1.9247 0 3.8494-.001 5.7745-.001.7194 0 1.4352-.022 2.151-.044.723-.023 1.4316-.17 2.0856-.465.8466-.384 1.5842-.951 2.2382-1.615 3.499-3.544 6.9945-7.095 10.4865-10.65 1.046-1.065 2.074-2.153 3.103-3.241.512-.542.886-1.191 1.173-1.87.36-.84.505-1.747.505-2.666.003-8.685.002-17.3684.001-26.0525 0-4.3422-.001-8.6846-.001-13.0274 0-.1752.001-.3506.002-.526.006-.9096.011-1.8213-.129-2.7301-.127-.8149-.32-1.6151-.629-2.3637-.334-.8149-.744-1.6114-1.391-2.2383-.044-.0413-.078-.092-.112-.1428-.009-.0127-.018-.0253-.026-.0379-.451-.6084-1.036-1.0841-1.661-1.475-.708-.4425-1.453-.8186-2.271-1.0583-.948-.2766-1.9-.4351-2.874-.4351-11.1871-.0111-22.3744-.0111-33.5618 0-.6468 0-1.2971.059-1.9366.1622-.625.0996-1.2499.2397-1.8385.461-.6613.247-1.3299.531-1.9003.9366-.4678.3346-.8744.7602-1.2792 1.1838-.1171.1225-.234.2449-.3523.3649-.2834.284-.5777.579-.7739.9256-.3742.6601-.7121 1.3386-.9374 2.0798-.3016 1.0067-.4978 2.0244-.4978 3.068-.0087 6.9353-.0081 13.8682-.0076 20.8026zm6.5148 26.2548v-26.0815l.0036-.0037v-26.0597c0-.6932.1054-1.357.5124-1.9396l.0128-.0199c.025-.0389.0512-.0797.0853-.1018l.0275-.018c.4196-.2744.8415-.5503 1.3677-.572.1045-.0045.2096-.0134.3148-.0223.1506-.0128.3022-.0256.4519-.0256 11.2382-.0037 22.4801-.0037 33.7183.0037.389 0 .807.011 1.159.1512.669.2655 1.279.649 1.37 1.4897.011.1027.023.2056.035.3087l.001.003c.04.3363.08.6742.08 1.0121.007 12.6814.007 25.3627.007 38.0437v.262c-.001.173-.002.346 0 .52.004.122-.04.185-.17.173-.044-.002-.089-.001-.134 0-.023 0-.047 0-.07 0-.833 0-1.666 0-2.499 0h-.006c-2.5018-.002-5.0044-.003-7.5049.008-.556.004-1.13.026-1.6642.158-.9556.24-1.7259.778-2.329 1.601-.6104.833-.8321 1.762-.8357 2.754-.0109 2.631-.0095 5.259-.0082 7.887.0005.875.0009 1.751.0009 2.626 0 .039.0002.074.0004.106.0011.182.0015.264-.0389.3-.0333.029-.0942.027-.2052.022-.0489-.001-.1075-.004-.1777-.004-6.9435.004-13.8907.008-20.8342 0-.5959 0-1.1918-.059-1.7259-.379-.5414-.329-.7812-.848-.8902-1.446-.0436-.247-.0545-.505-.0545-.756z" fill-rule="evenodd"/><path d="m69.8599 28.1519c1.2644-.6059 2.6787-.9498 4.1829-.9459 5.3569-.0013 9.6971 4.348 9.6958 9.7161l-.0047 1.473-2.1551-2.1596c-.7583-.7599-1.984-.7596-2.7427.0007-.7588.7603-.7591 1.9886-.0007 2.7485l5.4798 5.4914c.7584.7599 1.984.7596 2.7428-.0007l5.4868-5.4984c.7588-.7603.7591-1.9886.0007-2.7485-.7583-.76-1.984-.7596-2.7427.0007l-2.1948 2.1993.0047-1.5074c.0019-7.5154-6.0735-13.6035-13.5732-13.6016-2.0913.0005-4.0752.4773-5.854 1.3323-.9686.4641-1.3717 1.6237-.9134 2.5899.4583.9661 1.6196 1.3738 2.5839.914z"/><path d="m33.9787 101.583c1.5042.004 2.9185-.34 4.1829-.945l.0039-.004c.9643-.46 2.1256-.052 2.5839.914s.0552 2.126-.9135 2.59c-1.7787.855-3.7626 1.331-5.8539 1.332-7.4997.002-13.5751-6.0863-13.5732-13.6017l.0047-1.5074-2.1948 2.1993c-.7587.7604-1.9844.7607-2.7427.0007-.7584-.7599-.7581-1.9881.0007-2.7485l5.4868-5.4984c.7588-.7603 1.9844-.7606 2.7428-.0006l5.4798 5.4913c.7584.7599.758 1.9882-.0007 2.7485s-1.9844.7606-2.7427.0007l-2.1551-2.1596-.0047 1.473c-.0013 5.3682 4.3389 9.7177 9.6958 9.7157z"/></g></svg>