<svg fill="none" height="16" viewBox="0 0 16 16" width="16" xmlns="http://www.w3.org/2000/svg"><path clip-rule="evenodd" d="m8 16c4.4183 0 8-3.5817 8-8 0-4.41828-3.5817-8-8-8-4.41828 0-8 3.58172-8 8 0 4.4183 3.58172 8 8 8zm-1.85355-4.9755c-.19527.2232-.19527.585 0 .8081.19526.2232.51184.2232.7071 0l3-3.42854c.09377-.10716.14645-.25251.14645-.40406s-.05268-.2969-.14645-.40406l-3-3.42857c-.19526-.22316-.51184-.22316-.7071 0-.19527.22315-.19527.58496 0 .80812l2.64644 3.02451z" fill="#3e765e" fill-rule="evenodd"/></svg>