<svg fill="none" height="36" viewBox="0 0 36 36" width="36" xmlns="http://www.w3.org/2000/svg" xmlns:xlink="http://www.w3.org/1999/xlink"><clipPath id="a"><path d="m0 0h36v36h-36z"/></clipPath><g clip-path="url(#a)" fill="#fff"><path d="m10.1761 14.6226c2.4966 4.9848 6.1851 8.7281 11.2274 11.2036.6326-.7618 1.254-1.5199 1.8847-2.2704.4726-.5625.9396-1.1324 1.4442-1.6648.6401-.6772 1.4385-.8069 2.2801-.4552 2.5249 1.0553 5.046 2.1237 7.5577 3.2129 1.1599.5041 1.6343 1.5218 1.3463 2.8235-.4915 2.2121-.9961 4.4205-1.512 6.627-.3069 1.3149-1.1673 1.9375-2.5136 1.8999-4.0387-.111-7.9625-.7976-11.715-2.3325-3.1689-1.2961-6.027-3.1019-8.6592-5.2821-3.3515-2.7746-5.94794-6.1568-7.98518-9.9735-1.57406-2.9476-2.603975-6.0946-3.080335-9.40156-.235356-1.63654-.335146-3.29377-.44435134-4.94535-.08096236-1.22458.56108834-2.11433 1.73409634-2.39837 2.32344-.56056 4.65628-1.092902 6.99289-1.6026735 1.14665-.2501825 2.12758.2539455 2.60208 1.3393235 1.077 2.46421 2.1314 4.93782 3.1651 7.42084.4707 1.12864.209 2.00899-.7758 2.83859-1.0525.8878-2.12 1.7588-3.1801 2.6372-.1186.0978-.2316.2013-.3709.3217zm11.5381 12.5956c-.2486-.1147-.4595-.2125-.6703-.3103-1.8302-.8446-3.521-1.9075-5.0479-3.2242-2.9279-2.5263-5.2532-5.5228-6.9967-8.9746-.14874-.2972-.12803-.4421.13557-.6527 1.28033-1.029 2.54183-2.0843 3.80903-3.1283.7117-.5869.8359-1.1004.4763-1.93747-.5441-1.26409-1.0864-2.52817-1.6324-3.79225-.4839-1.11924-.9603-2.24224-1.4554-3.35584-.2919-.65649-.66469-.83708-1.34439-.69223-.61193.12979-1.22197.26147-1.83201.40255-1.67573.38562-3.35147.76936-5.02343 1.16814-.74749.17871-1.0544.52106-1.0431 1.17944.03766 2.44539.30125 4.8701.86046 7.25156.67406 2.863 1.76046 5.5717 3.25167 8.1112 2.08996 3.559 4.71465 6.6533 8.0002 9.1721 5.5412 4.2493 11.8149 6.3637 18.7833 6.4709.7494.0113 1.0958-.19 1.2615-.8559.5724-2.3213 1.1278-4.6463 1.6644-6.9769.1563-.681-.0376-1.091-.6364-1.3525-2.5079-1.0948-5.0215-2.1764-7.5389-3.2449-.563-.2388-1.0261-.0808-1.4084.3857-.5554.6772-1.1146 1.3525-1.6738 2.0259-.6477.7806-1.2954 1.5594-1.9393 2.3344z"/><path d="m21.7138 27.2176c.6439-.775 1.2916-1.5537 1.9393-2.3344.5592-.6753 1.1184-1.3487 1.6738-2.0259.3823-.4665.8454-.6245 1.4084-.3856 2.5193 1.0703 5.0329 2.15 7.5389 3.2448.5969.2615.7927.6716.6364 1.3525-.5366 2.3288-1.092 4.6557-1.6644 6.9769-.1657.6678-.5121.8691-1.2615.8559-6.9684-.1072-13.2421-2.2215-18.7833-6.4709-3.28743-2.5206-5.91023-5.615-8.00019-9.1721-1.49121-2.5395-2.57761-5.2482-3.25167-8.1112-.55921-2.38144-.82469-4.80426-.86046-7.25154-.00942-.6565.29749-1.00073 1.04309-1.17943 1.67197-.39879 3.3477-.78253 5.02343-1.16815.61005-.14108 1.22009-.27276 1.83201-.40255.68159-.14484 1.05249.03574 1.34439.69223.4952 1.1136.9734 2.2366 1.4554 3.35584.5441 1.26408 1.0864 2.52816 1.6324 3.79225.3615.83707.2354 1.35065-.4763 1.93755-1.2672 1.0458-2.5287 2.0992-3.80903 3.1282-.26171.2107-.28431.3555-.13556.6527 1.74159 3.4537 4.06699 6.4502 6.99669 8.9746 1.5251 1.3168 3.2177 2.3796 5.0479 3.2242.2108.0978.4217.1956.6703.3104z"/></g></svg>