<svg fill="none" height="100" viewBox="0 0 104 100" width="104" xmlns="http://www.w3.org/2000/svg" xmlns:xlink="http://www.w3.org/1999/xlink"><linearGradient id="a" gradientUnits="userSpaceOnUse" x1="0" x2="132.463" y1="0" y2="21.0076"><stop offset="0" stop-color="#4ac071"/><stop offset="1" stop-color="#3e765e"/></linearGradient><g fill="url(#a)"><path d="m67.6838 26.5561c1.2394 1.8906 2.4787 3.7813 3.9354 6.0066h-.0054c-.6956-.2324-1.3515-.4537-1.9801-.6657-1.4542-.4906-2.7621-.9318-4.0752-1.3471-1.7938-.5683-3.5658-.6373-5.1476.5842-1.56 1.2055-2.0927 2.8095-1.7285 4.7054.3914 2.0288 1.8916 3.0698 3.7017 3.6699 5.9031 1.9438 11.8171 3.8504 17.7528 5.7039 3.3049 1.0357 5.9248-.4355 6.6369-3.7282 1.3154-6.0864 2.5602-12.1886 3.7778-18.2909.337-1.6835-.0055-3.2927-1.4242-4.4505-3.12-2.5386-7.3653-.9241-8.1426 3.075-.1485.7712-.2961 1.5424-.4482 2.3372-.204 1.0661-.4162 2.1747-.6498 3.3827-.1625-.2332-.3001-.4276-.4211-.5985-.1986-.2805-.3522-.4975-.4975-.7186l-.0043-.0067c-3.7274-5.7389-7.4548-11.4778-11.1659-17.22196-3.3864-5.24188-8.0393-8.51341-14.5186-8.9435947-4.8486-.3186553-9.2352.8922347-12.8825 4.1265847-2.8429 2.52085-4.7799 5.69843-6.7124 8.86857-.4248.6969-.8494 1.3934-1.2834 2.0826-.8425 1.333-.9023 2.8519-.0544 4.2912 1.9841 3.383 6.4304 3.4361 8.6536.0743.5678-.8567 1.1112-1.7293 1.6544-2.6016.632-1.0148 1.2637-2.0291 1.9331-3.0173.6197-.9135 1.3046-1.8323 2.1525-2.5333 3.9246-3.2397 9.4309-2.27842 12.3987 2.1615 1.9674 2.9448 3.8945 5.9092 5.8224 8.8748.9059 1.3935 1.8119 2.7873 2.7224 4.1795z"/><path d="m13.9539 40.8198c.6495-.2053 1.3185-.4168 2.0168-.6337-.113.1895-.2126.358-.3032.5111-.2275.3847-.3979.6728-.5792.9556-1.1051 1.7135-2.2065 3.4286-3.3077 5.1434-2.88514 4.493-5.76942 8.9846-8.71597 13.4395-2.32102 3.5052-3.353791 7.2069-2.9950391 11.4078.5707421 6.713 5.7998291 13.0968 12.4693091 14.8387 4.3694 1.14 8.8167.9564 13.2422.7738.6671-.0276 1.3336-.0551 1.9994-.078 2.8754-.0956 4.7127-2.374 4.555-4.8064-.1739-2.6289-2.234-4.4718-5.2127-4.5302-1.7298-.0313-3.4577-.0257-5.186-.0202-1.2097.0038-2.4198.0077-3.6306-.0011-.8099-.0053-1.6362-.0318-2.4189-.2071-4.604-1.0356-8.54482-6.713-4.7725-12.4329 2.9552-4.4811 5.8866-8.9753 8.8181-13.4697l.0008-.0012c1.2687-1.945 2.5374-3.8901 3.8081-5.8343.1308-.1971.277-.3842.4827-.6476.0936-.1197.1995-.2552.3218-.4145.1744.9351.3413 1.8217.5031 2.681.2011 1.0682.3942 2.0942.584 3.1185.5653 3.0166 3.0385 4.9232 5.8759 4.3974 2.2232-.4089 4.3812-2.528 3.631-5.9641-.7986-3.6341-1.5316-7.2802-2.2645-10.926-.4591-2.2842-.9184-4.5688-1.3936-6.8497-.1522-.7223-.4186-1.4605-.7991-2.0925-1.223-2.0394-3.4571-2.6979-6.1694-1.8057-5.7781 1.896-11.5453 3.8239-17.31255 5.7517-.59792.2018-1.17953.4621-1.72853.7595-2.08185 1.1312-2.87546 3.792-1.77746 5.8473 1.20128 2.2465 3.47338 3.1175 6.24012 2.3209 1.31442-.3763 2.62132-.7895 4.01862-1.2313z"/><path d="m59.9448 88.8093c1.027.8743 2.0538 1.7485 3.0526 2.6552 1.8808 1.7101 2.3754 3.8079 1.4513 5.7358-1.5056 3.1337-5.0062 3.7437-7.9197 1.2852-2.423-2.0452-4.8131-4.1324-7.2031-6.2194l-.0008-.0007c-1.1163-.9748-2.2326-1.9495-3.3521-2.92-.4225-.3667-.8476-.7302-1.2725-1.0936-.7999-.684-1.5993-1.3676-2.3803-2.0717-2.2829-2.05-2.3101-5.1941-.0054-7.2122 4.7073-4.1319 9.4417-8.2319 14.1979-12.3107 2.0873-1.7845 4.2561-1.9863 6.1966-.717 2.7994 1.8323 2.9516 5.2684.2936 7.7168-.9679.8923-1.9723 1.7442-3.0361 2.6464-.5253.4456-1.0652.9035-1.6223 1.3846.1878.0229.3488.0472.4927.0689.256.0387.4578.0691.6597.0691 2.3111.0014 4.6226.005 6.9343.0085 6.5502.0101 13.1027.0202 19.6514-.0191 6.501-.0425 10.2842-6.3465 7.1152-11.9177-1.0259-1.8042-2.1899-3.5342-3.3542-5.2646-.6247-.9285-1.2496-1.8572-1.8531-2.7974-1.5166-2.3474-1.4078-4.4824.2609-6.1819 2.1851-2.2252 5.6748-2.1775 7.5012.5311 2.6254 3.8929 5.2994 7.8655 7.1154 12.1408 3.506 8.2478-1.31 19.661-11.9694 22.2156-1.9514.4673-4.0115.701-6.0227.7222-6.0168.058-12.0336.0485-18.0504.039-2.2563-.0035-4.5125-.0071-6.7688-.0071h-1.4404l-.0815.3027v.0054c.4681.4039.9392.805 1.41 1.2058z"/></g></svg>