<svg fill="none" height="97" viewBox="0 0 96 97" width="96" xmlns="http://www.w3.org/2000/svg" xmlns:xlink="http://www.w3.org/1999/xlink"><linearGradient id="a" gradientUnits="userSpaceOnUse" x1="0" x2="122.5" y1="-.000122" y2="18.6797"><stop offset="0" stop-color="#4ac071"/><stop offset="1" stop-color="#3e765e"/></linearGradient><g fill="url(#a)"><path d="m9.60605 19.0568c5.22685-.0107 9.49505-4.3133 9.46825-9.5363-.0214-5.26585-4.2628-9.477454-9.49502-9.52026578-5.93373-.04816322-9.58072321 4.79491578-9.57536786 9.54701578.01071066 4.75745 3.66841786 9.61125 9.60213786 9.50955z"/><path d="m67.0535 11.3383c-1.4085-1.40744-2.6723-1.62685-4.0862-.7224-1.2263.7813-1.6226 2.5044-.83 3.7353.257.4013.5837.7652.9264 1.1024 8.8203 8.8246 9.6129 9.6166 18.4385 18.4358.1379.1409.274.2837.4404.4583l.001.001.0007.0008.0107.0112c.1149.1205.2443.2563.3987.417-1.1525 0-2.2786-.0006-3.387-.0012h-.0797c-2.2111-.0012-4.3527-.0023-6.4942.0012-1.6816 0-2.7741.7385-3.149 2.0818-.5569 1.9961.8087 3.639 3.0793 3.6497 2.8119.0096 5.6258.0077 8.4392.0057h.0011c1.8745-.0012 3.7494-.0025 5.6229-.0004.2856 0 .5712.0012.8568.0024.5711.0024 1.1427.0047 1.7138-.0024 2.0136-.0375 3.1864-1.2094 3.1917-3.2216.0072-2.8364.0048-5.6753.0024-8.5134v-.0047c-.0012-1.417-.0024-2.8343-.0024-4.2505 0-.3899.0018-.7798.0035-1.1697.0044-.9744.0088-1.9497-.0142-2.9242-.0321-1.3325-.7497-2.3707-1.8422-2.756-1.1193-.396-2.517-.1498-3.1115.7867-.4337.685-.7122 1.5787-.7337 2.3868-.0618 2.1052-.0511 4.2104-.0404 6.3176v.0027c.0042.8112.0083 1.6227.0083 2.4347v1.0596c-.1021-.0948-.1934-.1788-.2767-.2553-.2224-.2045-.3868-.3557-.5427-.5154z"/><path d="m44.7439 35.1813c-.0053 5.2444-4.2575 9.5149-9.4896 9.5202-5.9338.0964-9.5861-4.7735-9.5861-9.5256.0053-4.7521 3.6577-9.5898 9.5914-9.531 5.2322.0536 9.4843 4.2973 9.4843 9.5364z"/><path d="m9.6748 70.3495c5.2-.0321 9.5325-4.4578 9.404-9.6059-.1339-5.3354-4.3111-9.4293-9.56466-9.4507-5.92837-.0214-9.5592967 4.8752-9.50574317 9.6113.05355347 4.7788 3.72732317 9.5737 9.66640317 9.4399z"/><path d="m70.4068 86.3994c.1178 5.1588-4.2039 9.5684-9.4093 9.5952v.0053c-5.9391.1285-9.6129-4.6718-9.6611-9.4507-.0482-4.736 3.5827-9.6326 9.5111-9.6059 5.2536.0215 9.4415 4.126 9.5593 9.4561z"/><path d="m35.2489 95.9945c5.2322 0 9.479-4.2597 9.495-9.5149.0161-5.2337-4.2521-9.4881-9.4789-9.5416-5.9337-.0589-9.5915 4.7681-9.5968 9.5256 0 4.7521 3.647 9.6219 9.5754 9.5309z"/><path d="m19.0822 86.4419c.0482 5.2123-4.2361 9.5363-9.45754 9.5523-5.93372.1124-9.5967814-4.7307-9.6128474-9.4935-.02142139-4.7467 3.6255674-9.6059 9.5592974-9.563 5.23749.0374 9.46289 4.2276 9.51109 9.5042z"/><path d="m0 35.2603c.117818 5.5066 4.17717 9.3276 9.54323 9.4453 5.32327.1178 9.42537-4.2383 9.47357-9.6112.0482-5.4585-4.236-9.4454-9.5057-9.4186-5.4089.0268-9.4789679 4.0082-9.5111 9.5845z"/><path d="m60.8739 51.293c5.275-.1123 9.4468 4.2009 9.4575 9.4828.1714 5.5709-4.2093 9.4614-9.495 9.5845-5.2054.1231-9.5218-4.2758-9.5004-9.4881.0161-5.5977 4.1558-9.4614 9.5379-9.5792z"/><path d="m44.6635 60.7918c-.0053-5.2872-4.145-9.5898-9.4415-9.4935-5.366.0964-9.5271 3.9494-9.5539 9.5578-.0268 5.2176 4.2629 9.6058 9.4843 9.5042 5.2697-.1071 9.6718-3.9869 9.5111-9.5685z"/><path d="m86.4844 76.9391c5.2643.1017 9.6718 3.9815 9.5111 9.5631-.0053 5.2926-4.1397 9.5898-9.4361 9.4988-5.3607-.0963-9.5325-3.9493-9.5593-9.5577-.0214-5.2177 4.2575-9.6059 9.4843-9.5042z"/></g></svg>