<svg fill="none" height="20" viewBox="0 0 24 20" width="24" xmlns="http://www.w3.org/2000/svg"><path d="m0 0h20v20h-20z" fill="#fff"/><g clip-rule="evenodd" fill-rule="evenodd"><path d="m19 1h-18v18h18zm-19-1v20h20v-20z" fill="#000"/><path d="m23.99 2.85858c.0781.54673-.3018 1.05326-.8486 1.13137-1.5114.21592-3.0374 1.01206-4.5191 2.16616-1.4754 1.14915-2.8451 2.60462-4.0402 4.04499-1.0973 1.3223-2.0271 2.6065-2.7504 3.6054-.0637.088-.1258.1737-.1862.2571-.365.5033-.6901.9471-.9433 1.2485-.119.1417-.2689.3094-.4302.4352-.0728.0567-.2294.171-.44698.2301-.26534.0721-.69337.0685-1.03213-.2703-.36576-.3658-.68618-.838-.96576-1.2501l-.024-.0354c-.29862-.4401-.58719-.8653-.93477-1.2678-.67474-.7813-1.55411-1.4559-3.00978-1.6638-.54674-.0782-.92663-.5847-.84853-1.1314.07811-.54675.58464-.92665 1.13137-.84855 2.04433.29205 3.33187 1.28435 4.24058 2.33655.42481.4918.76999 1.0008 1.05555 1.4218.01033.0152.02058.0303.03076.0453.04138.061.0811.1194.11935.1752.12869-.173.27454-.373.43874-.5994.0606-.0835.1232-.17.1877-.2592.7212-.9962 1.6874-2.3308 2.8288-3.70637 1.2424-1.49716 2.7164-3.07294 4.3504-4.34567 1.6277-1.26777 3.4767-2.28413 5.4653-2.56821.5467-.0781 1.0532.30179 1.1314.84853z" fill="#3e765e"/></g></svg>