<svg width="16" height="20" viewBox="0 0 16 20" fill="none" xmlns="http://www.w3.org/2000/svg">
  <path fill-rule="evenodd" clip-rule="evenodd"
    d="M9.85885 19.8517C10.0471 19.654 10.0471 19.3334 9.85885 19.1356L1.16348 10L9.85885 0.864358C10.0471 0.666625 10.0471 0.346034 9.85885 0.148302C9.67064 -0.0494329 9.3655 -0.0494329 9.1773 0.148302L0.141154 9.64197C0.0507754 9.73693 -1.60134e-09 9.86571 0 10C1.60136e-09 10.1343 0.0507754 10.2631 0.141154 10.358L9.1773 19.8517C9.3655 20.0494 9.67064 20.0494 9.85885 19.8517Z"
    fill="black" />
  <path fill-rule="evenodd" clip-rule="evenodd"
    d="M15.8588 19.8517C16.0471 19.654 16.0471 19.3334 15.8588 19.1356L7.16348 10L15.8588 0.864357C16.0471 0.666625 16.0471 0.346034 15.8588 0.148301C15.6706 -0.0494337 15.3655 -0.0494336 15.1773 0.148301L6.14115 9.64197C6.05077 9.73693 6 9.86571 6 10C6 10.1343 6.05077 10.2631 6.14115 10.358L15.1773 19.8517C15.3655 20.0494 15.6706 20.0494 15.8588 19.8517Z"
    fill="black" />
</svg>
