<svg fill="none" height="20" viewBox="0 0 16 20" width="16" xmlns="http://www.w3.org/2000/svg"><g clip-rule="evenodd" fill="#000" fill-rule="evenodd"><path d="m6.14115 19.8517c-.1882-.1977-.1882-.5183 0-.7161l8.69535-9.1356-8.69535-9.135643c-.1882-.197732-.1882-.518323 0-.716056.18821-.1977346.49335-.1977346.68155 0l9.0361 9.493669c.0904.09496.1412.22374.1412.35803 0 .1343-.0508.2631-.1412.358l-9.0361 9.4937c-.1882.1977-.49334.1977-.68155 0z"/><path d="m.141154 19.8517c-.1882043-.1977-.1882043-.5183 0-.7161l8.695366-9.1356-8.695367-9.135643c-.1882041-.197732-.1882041-.518323 0-.716056.188205-.1977347.493345-.1977347.681549 0l9.036148 9.493669c.09037.09496.14115.22374.14115.35803 0 .1343-.05078.2631-.14115.358l-9.036147 9.4937c-.188205.1977-.493344.1977-.681549 0z"/></g></svg>