<svg fill="none" height="20" viewBox="0 0 16 20" width="16" xmlns="http://www.w3.org/2000/svg"><g clip-rule="evenodd" fill="#000" fill-rule="evenodd"><path d="m9.85885 19.8517c.18825-.1977.18825-.5183 0-.7161l-8.69537-9.1356 8.69537-9.135642c.18825-.197733.18825-.518324 0-.716056-.18821-.1977349-.49335-.1977349-.68155 0l-9.036146 9.493668c-.0903786.09496-.141154.22374-.141154.35803 0 .1343.0507754.2631.141154.358l9.036146 9.4937c.1882.1977.49334.1977.68155 0z"/><path d="m15.8588 19.8517c.1883-.1977.1883-.5183 0-.7161l-8.69532-9.1356 8.69532-9.135643c.1883-.197732.1883-.518323 0-.716056-.1882-.1977347-.4933-.1977346-.6815 0l-9.03615 9.493669c-.09038.09496-.14115.22374-.14115.35803 0 .1343.05077.2631.14115.358l9.03615 9.4937c.1882.1977.4933.1977.6815 0z"/></g></svg>