<svg width="240" height="169" viewBox="0 0 240 169" fill="none" xmlns="http://www.w3.org/2000/svg">
  <g clip-path="url(#clip0_3011_31586)">
    <path
      d="M129.811 19.9649C128.71 19.9649 127.671 19.7897 126.725 19.4289C125.778 19.0579 124.966 18.5425 124.266 17.8726C123.567 17.2026 123.022 16.4193 122.631 15.5123C122.25 14.6053 122.055 13.6159 122.055 12.544C122.055 11.4721 122.25 10.4723 122.631 9.5756C123.022 8.6686 123.577 7.88528 124.266 7.21533C124.976 6.54539 125.799 6.03005 126.745 5.67962C127.692 5.30857 128.72 5.12305 129.831 5.12305C131.076 5.12305 132.187 5.33949 133.185 5.78268C134.193 6.20526 135.036 6.83398 135.725 7.66883L133.596 9.63744C133.102 9.08087 132.557 8.65829 131.961 8.39031C131.364 8.10172 130.706 7.95742 129.996 7.95742C129.327 7.95742 128.71 8.0708 128.155 8.28724C127.599 8.50369 127.116 8.8232 126.704 9.23547C126.293 9.64774 125.974 10.1322 125.737 10.6887C125.521 11.2453 125.408 11.874 125.408 12.5543C125.408 13.2345 125.521 13.8632 125.737 14.4198C125.974 14.9764 126.293 15.4608 126.704 15.8731C127.116 16.2853 127.599 16.5945 128.155 16.8213C128.71 17.048 129.327 17.1511 129.996 17.1511C130.706 17.1511 131.364 17.0171 131.961 16.7388C132.557 16.4502 133.102 16.0174 133.596 15.4505L135.725 17.4191C135.046 18.2539 134.193 18.893 133.185 19.3259C132.187 19.7587 131.066 19.9855 129.811 19.9855V19.9649Z"
      fill="#3E765E" />
    <path
      d="M144.624 19.964C143.493 19.964 142.444 19.7785 141.477 19.4074C140.52 19.0364 139.687 18.5211 138.977 17.8511C138.278 17.1812 137.733 16.3978 137.342 15.4908C136.961 14.5838 136.766 13.6047 136.766 12.5328C136.766 11.4609 136.961 10.4817 137.342 9.57472C137.733 8.66772 138.288 7.88441 138.998 7.21446C139.708 6.54452 140.541 6.02918 141.497 5.65813C142.454 5.28709 143.493 5.10156 144.604 5.10156C145.715 5.10156 146.774 5.28709 147.71 5.65813C148.667 6.02918 149.49 6.54452 150.189 7.21446C150.899 7.88441 151.455 8.66772 151.846 9.57472C152.236 10.4611 152.442 11.4506 152.442 12.5328C152.442 13.615 152.247 14.5941 151.846 15.5011C151.455 16.4082 150.899 17.1915 150.189 17.8614C149.49 18.521 148.667 19.0261 147.71 19.3971C146.764 19.7682 145.735 19.9537 144.624 19.9537V19.964ZM144.604 17.1296C145.242 17.1296 145.828 17.0163 146.363 16.7998C146.908 16.5834 147.381 16.2639 147.793 15.8516C148.204 15.4393 148.513 14.9549 148.739 14.3983C148.976 13.8418 149.089 13.213 149.089 12.5328C149.089 11.8525 148.976 11.2238 148.739 10.6672C148.523 10.1107 148.204 9.62626 147.793 9.21399C147.402 8.80171 146.929 8.49251 146.383 8.26576C145.838 8.04931 145.242 7.93594 144.604 7.93594C143.966 7.93594 143.37 8.04931 142.824 8.26576C142.289 8.4822 141.827 8.80171 141.415 9.21399C141.004 9.62626 140.685 10.1107 140.448 10.6672C140.232 11.2238 140.119 11.8525 140.119 12.5328C140.119 13.213 140.232 13.8211 140.448 14.3983C140.685 14.9549 140.993 15.4393 141.395 15.8516C141.806 16.2639 142.279 16.5731 142.824 16.7998C143.37 17.0266 143.966 17.1296 144.604 17.1296Z"
      fill="#3E765E" />
    <path
      d="M154.66 19.2946V18.3051L157.201 15.9037C157.396 15.7181 157.551 15.5635 157.643 15.4192C157.736 15.2749 157.798 15.1409 157.828 15.0276C157.87 14.9039 157.88 14.8008 157.88 14.6978C157.88 14.4298 157.787 14.2339 157.612 14.1C157.437 13.9557 157.18 13.8835 156.831 13.8835C156.553 13.8835 156.296 13.935 156.059 14.0484C155.823 14.1515 155.627 14.3164 155.462 14.5432L154.352 13.832C154.598 13.4506 154.948 13.162 155.401 12.9353C155.853 12.7188 156.368 12.6055 156.964 12.6055C157.448 12.6055 157.88 12.6879 158.24 12.8528C158.61 13.0074 158.898 13.2342 159.094 13.5228C159.299 13.8114 159.402 14.1515 159.402 14.5535C159.402 14.7699 159.371 14.976 159.32 15.1925C159.268 15.3986 159.166 15.6151 159.001 15.8521C158.847 16.0892 158.61 16.3468 158.302 16.6354L156.193 18.6247L155.905 18.0681H159.618V19.3152H154.65L154.66 19.2946Z"
      fill="#3E765E" />
  </g>
  <path
    d="M180.519 15.376C178.705 16.3949 175.779 12.365 175.116 14.3362C174.453 16.3074 176.059 24.261 176.888 26.1685C177.3 27.1167 177.882 27.9839 178.286 28.9353C178.69 29.8868 178.907 30.9808 178.55 31.9509C177.928 33.6391 175.876 34.3258 174.859 35.8096C173.674 37.5378 174.153 39.8654 174.706 41.8862C175.184 43.6279 175.693 45.3854 176.612 46.9401C177.531 48.4949 178.916 49.8486 180.648 50.363C182.852 51.0179 185.208 50.2396 187.333 49.3608C189.376 48.516 191.397 47.5583 193.135 46.1915C194.873 44.8247 196.322 43.0105 196.93 40.8849C197.692 38.2185 197.055 35.3006 195.736 32.8614C194.417 30.4222 192.465 28.3901 190.463 26.4716C187.09 23.2404 183.501 20.2352 179.728 17.4828L180.519 15.376Z"
    fill="black" />
  <path
    d="M207.481 152.188L205.769 168.163L205.691 168.894L186.325 168.818L186.222 168.085L184.172 153.446L207.481 152.188Z"
    fill="#FFE3CF" />
  <path
    d="M177.868 168.054C177.868 168.295 177.866 168.538 177.863 168.784L157.758 168.706L157.693 167.973L156.453 154.077L177.242 151.557C177.242 151.557 177.912 158.927 177.868 168.054Z"
    fill="#FFE3CF" />
  <path
    d="M175.634 43.6751C178.827 47.6977 184.458 48.8633 189.002 46.469C195.488 43.0512 204.344 39.1341 205.909 42.2641C208.429 47.3035 208.429 52.1942 208.429 52.1942L210.949 110.926C210.949 110.926 212.209 134.641 196.459 132.547C180.71 130.454 156.141 139.273 156.141 139.273L158.65 113.254L165.352 103.444L168.066 75.3001L163.385 52.6579L169.055 50.1382C169.055 50.1382 169.685 45.7287 171.575 45.7287C173.465 45.7287 173.921 41.4928 175.583 43.6108C175.6 43.6319 175.617 43.6534 175.634 43.6751Z"
    fill="#3E765E" />
  <path
    d="M209.802 168.909L205.694 168.892L186.327 168.817L183.806 168.807L183.66 168.074L179.764 148.407L179.155 168.057L179.133 168.787L177.867 168.783L157.762 168.705L156.321 168.697L156.316 167.967L156.231 154.078L156.153 141.216L156.141 139.271L156.143 139.268L162.163 127.067L163.919 123.507L164.279 122.776L167.795 115.649L199.613 111.244L200.1 111.176L208.745 109.98L208.808 113.523L208.845 115.535L208.974 122.776L208.989 123.507L209.003 124.342L209.787 168.176L209.802 168.909Z"
    fill="black" />
  <path
    d="M185.039 41.8072C192.306 41.8072 198.196 35.9172 198.196 28.6516C198.196 21.386 192.306 15.4961 185.039 15.4961C177.773 15.4961 171.883 21.386 171.883 28.6516C171.883 35.9172 177.773 41.8072 185.039 41.8072Z"
    fill="#FFE3CF" />
  <path
    d="M199.877 49.2549C196.806 53.635 195.236 59.0468 195.485 64.3901C192.003 62.7037 189.653 59.1406 188.854 55.3558C188.054 51.5711 188.664 47.5971 189.949 43.9484C189.962 43.9119 189.975 43.8755 189.988 43.839C191.939 38.3625 190.126 32.2416 185.413 28.8372C182.234 26.5409 179.477 23.6599 177.361 20.3576C176.166 18.4933 175.15 16.1547 176.043 14.1283C176.865 12.261 178.99 11.3883 180.945 10.8044C185.409 9.47098 190.153 8.71225 194.735 9.55599C199.317 10.3997 203.728 13.0346 205.894 17.1597C208.059 21.2847 207.492 26.9144 203.977 29.9724C205.086 30.3309 205.87 31.5059 205.776 32.6671C205.682 33.8284 204.718 34.8617 203.566 35.0368C204.318 35.0102 204.762 35.9999 204.494 36.7025C204.226 37.4051 203.534 37.8415 202.875 38.2031C201.936 38.7182 200.895 39.2569 200.891 40.6058C200.889 41.1467 201.082 41.6717 201.397 42.1113C202.161 43.1766 203.394 43.6563 204.581 44.1067C202.07 44.8461 200.069 47.0898 199.619 49.6678L199.877 49.2549Z"
    fill="black" />
  <path
    d="M143.776 44.1675C143.417 40.401 145.069 37.1627 147.466 36.9346C149.864 36.7065 152.097 39.5748 152.456 43.3427C152.62 44.8458 152.421 46.3664 151.877 47.7771L153.197 63.7553L145.685 64.2147L145.182 48.4143C144.38 47.1313 143.898 45.6751 143.776 44.1675Z"
    fill="#FFE3CF" />
  <path
    d="M184.701 51.7464C184.701 51.7464 172.428 44.5279 169.902 45.6107C167.375 46.6935 155.103 65.1006 155.103 65.1006L153.974 61.7415L145.357 62.5741C145.357 62.5741 140.304 86.0342 151.493 83.8687C162.683 81.7031 181.091 61.4914 181.091 61.4914L184.701 51.7464Z"
    fill="#3E765E" />
  <path
    d="M70.8438 90.531C70.8438 90.531 77.7731 86.4689 79.6391 90.2355C81.5052 94.002 98.7448 138.936 98.7448 138.936L87.6357 141.099L70.8438 90.531Z"
    fill="#3E765E" />
  <path
    d="M55.724 63.6881L56.0506 64.1531C54.8328 64.856 54.6533 66.6295 55.2243 67.9163C55.7954 69.2032 56.9006 70.157 57.8567 71.1908C58.8127 72.2246 59.6843 73.505 59.5957 74.9108C59.4962 76.4918 58.2071 77.7938 58.0275 79.3683C57.768 81.6608 59.9028 83.6722 59.7968 85.9777C59.7168 87.7382 58.3628 89.1527 57.0196 90.2946C55.9684 91.19 54.8242 92.0897 54.1147 93.2447C53.9201 93.5626 53.7579 93.9022 53.6389 94.2655C53.109 95.9049 53.6086 97.6914 54.2813 99.2767C54.9518 100.862 55.8062 102.411 56.016 104.119C56.2236 105.828 55.5791 107.8 54.0066 108.501C57.1386 108.233 60.1948 107.141 62.7882 105.365C63.0218 105.205 63.2489 105.04 63.4738 104.872C67.1509 102.103 69.7334 98.1045 72.2187 94.2071C72.4242 93.887 72.6275 93.5648 72.833 93.2447C73.3845 92.3774 73.9382 91.5123 74.4919 90.645C76.0709 88.1665 77.6693 85.6511 78.5302 82.8439C79.3218 80.255 79.4559 77.5191 79.7804 74.8307C79.9383 73.5136 80.1459 72.2008 80.1848 70.875C80.2476 68.8355 79.8993 66.7873 79.1899 64.8733C78.4956 62.9917 77.453 61.2377 76.1098 59.7453C74.7342 58.2162 73.0514 56.9726 71.1999 56.0772C69.4068 55.21 67.4558 54.6714 65.4681 54.5222C64.8019 54.4725 64.1379 54.4638 63.4738 54.4941C60.8545 54.6022 58.2654 55.264 55.7478 56.0772C53.8963 56.9726 52.2135 58.2162 50.8379 59.7453C49.4947 61.2377 48.4521 62.9917 47.7578 64.8733C50.1717 63.5843 53.0397 63.1409 55.724 63.6881Z"
    fill="black" />
  <path
    d="M74.4927 87.3485L62.0734 82.4785L61.7589 87.3485L50.8717 89.0529L45.7578 112.185L50.3846 126.551L84.964 127.525L83.7464 122.656C83.7464 122.656 89.3473 116.325 85.938 106.098L85.5594 103.495C84.5695 96.6898 80.4827 90.7271 74.4927 87.3485Z"
    fill="#3E765E" />
  <path
    d="M67.5936 82.2616C73.6859 82.2616 78.6247 77.3232 78.6247 71.2314C78.6247 65.1396 73.6859 60.2012 67.5936 60.2012C61.5013 60.2012 56.5625 65.1396 56.5625 71.2314C56.5625 77.3232 61.5013 82.2616 67.5936 82.2616Z"
    fill="#FFE3CF" />
  <path
    d="M46.765 70.875C46.8039 72.2008 47.0116 73.5136 47.1695 74.8307C47.4939 77.5191 47.628 80.255 48.4197 82.8438C49.2805 85.6511 50.879 88.1665 52.4579 90.645C53.0116 91.5123 53.5654 92.3774 54.1169 93.2447C54.3224 93.5648 54.5257 93.887 54.7312 94.2071C57.2164 98.1045 59.799 102.103 63.476 104.872C63.701 105.04 63.9281 105.205 64.1617 105.365C66.7551 107.141 69.8113 108.233 72.9433 108.501C71.3708 107.8 70.7263 105.828 70.9339 104.119C71.1437 102.411 71.9981 100.862 72.6686 99.2767C73.3413 97.6914 73.8409 95.9049 73.311 94.2655C73.192 93.9022 73.0298 93.5626 72.8351 93.2447C72.1257 92.0897 70.9815 91.1901 69.9303 90.2946C68.5871 89.1527 67.2331 87.7382 67.153 85.9777C67.0471 83.6722 65.5741 84.4443 65.3145 82.1518C65.135 80.5773 63.0348 77.8932 62.9353 76.3123C62.8466 74.9064 63.7096 71.5065 64.6656 70.4727C65.6217 69.4389 64.7435 66.3527 65.3145 65.0658C65.8856 63.7789 72.117 64.856 70.8993 64.1531L71.2259 63.6881C73.9101 63.1409 76.7782 63.5843 79.1921 64.8733C79.7177 65.1523 80.2195 65.4702 80.6953 65.8293C81.8438 63.7313 80.4812 61.069 78.6275 59.5572C76.8128 58.0735 74.5763 57.217 72.3571 56.4622C71.9743 56.3325 71.5893 56.2027 71.2021 56.0772C68.6844 55.264 66.0953 54.6022 63.476 54.4941C62.812 54.4638 62.148 54.4725 61.4818 54.5222C59.494 54.6714 57.543 55.21 55.7499 56.0772C53.8984 56.9726 52.2157 58.2162 50.84 59.7453C49.4968 61.2377 48.4543 62.9917 47.76 64.8733C47.0505 66.7874 46.7023 68.8355 46.765 70.875Z"
    fill="black" />
  <path
    d="M239.319 159.051L223.943 126.746C222.796 124.336 220.329 122.777 217.658 122.777H23.4488C22.7109 122.777 21.9926 122.892 21.3155 123.111C19.6037 123.659 18.1474 124.857 17.2854 126.503L0.804151 157.919C-0.335488 160.088 -0.259984 162.64 1.00629 164.739C2.27012 166.841 4.48859 168.102 6.94081 168.112L156.316 168.698L157.758 168.706L177.863 168.784L179.129 168.789L183.802 168.808L186.322 168.818L205.689 168.893L209.797 168.91L233.007 169H233.036C235.432 169 237.626 167.793 238.912 165.769C240.203 163.736 240.354 161.223 239.319 159.051Z"
    fill="white" />
  <path
    d="M239.319 159.051L223.943 126.746C222.796 124.336 220.329 122.777 217.658 122.777H23.4488C22.7109 122.777 21.9926 122.892 21.3155 123.111C19.6037 123.659 18.1474 124.857 17.2854 126.503L0.804151 157.919C-0.335488 160.088 -0.259984 162.64 1.00629 164.739C2.27012 166.841 4.48859 168.102 6.94081 168.112L156.316 168.698L157.758 168.706L177.863 168.784L179.129 168.789L183.802 168.808L186.322 168.818L205.689 168.893L209.797 168.91L233.007 169H233.036C235.432 169 237.626 167.793 238.912 165.769C240.203 163.736 240.354 161.223 239.319 159.051ZM238.296 165.377C237.144 167.191 235.181 168.27 233.036 168.27H233.009L209.783 168.177L205.767 168.163L186.22 168.085L183.656 168.075L179.151 168.058L177.867 168.053L157.692 167.973L156.311 167.968L6.94319 167.381C4.74916 167.371 2.76203 166.244 1.63214 164.364C0.499754 162.484 0.431622 160.2 1.45194 158.257L17.9331 126.844C18.5273 125.711 19.4332 124.815 20.5169 124.238C21.4008 123.766 22.4041 123.508 23.4488 123.508H217.658C220.049 123.508 222.256 124.903 223.283 127.06L238.659 159.363C239.587 161.311 239.45 163.558 238.296 165.377Z"
    fill="black" />
  <path d="M69.0215 146.154L105.793 132.761L87.407 125.367L50.7578 134.953L69.0215 146.154Z" fill="#E6EBE9" />
  <path d="M125.023 125.941L120.883 139.09L169.343 142.012L165.203 127.159L125.023 125.941Z" fill="#E6EBE9" />
  <path
    d="M67.903 128.192C71.3102 128.53 73.8977 130.562 73.6823 132.73C73.4669 134.898 70.5305 136.381 67.1222 136.043C65.7589 135.926 64.4432 135.485 63.2854 134.756L48.8672 133.142L49.7688 126.393L63.8869 128.7C65.1658 128.212 66.543 128.038 67.903 128.192Z"
    fill="#FFE3CF" />
  <path
    d="M53.4369 90.3939L50.88 89.0547C50.88 89.0547 46.862 89.1764 44.1833 91.8549C41.5046 94.5334 19.8317 125.214 19.8317 125.214C19.8317 125.214 14.4743 133.493 27.8677 134.71C41.2611 135.928 56.1156 135.928 56.1156 135.928L57.3332 125.944L37.1213 123.753L51.275 105.004L53.4369 90.3939Z"
    fill="#3E765E" />
  <path
    d="M196.014 123.259C193.123 125.406 189.672 125.654 188.306 123.814C186.94 121.974 188.177 118.744 191.069 116.597C192.212 115.723 193.548 115.137 194.965 114.885L207.328 105.945L211.4 111.836L198.78 120.024C198.13 121.308 197.181 122.417 196.014 123.259Z"
    fill="#FFE3CF" />
  <path
    d="M203.802 50.4551C203.802 50.4551 213.775 50.77 215.665 57.6993C217.555 64.6285 221.335 79.3978 220.705 99.9046C220.705 99.9046 223.855 113.133 215.665 112.503L204.325 117.543L196.766 107.464L203.065 99.9046L203.802 50.4551Z"
    fill="#3E765E" />
  <g clip-path="url(#clip1_3011_31586)">
    <path
      d="M126.887 38.4888C126.887 44.1762 122.829 48.8773 117.572 49.6032C117.232 46.9298 116.104 44.5166 114.44 42.6292C116.277 39.2047 119.788 36.8867 123.818 36.8867H125.353C126.202 36.8867 126.887 37.6026 126.887 38.4888ZM102.328 41.693C102.328 40.8068 103.014 40.0909 103.863 40.0909H105.398C111.332 40.0909 116.143 45.1124 116.143 51.3055V52.9075V60.9179C116.143 61.8041 115.457 62.52 114.608 62.52C113.759 62.52 113.073 61.8041 113.073 60.9179V52.9075C107.139 52.9075 102.328 47.886 102.328 41.693Z"
      fill="#3E765E" />
  </g>
  <path d="M124.836 1L156.558 25.608" stroke="#3E765E" stroke-width="2" stroke-linecap="round" />
  <path d="M156.562 1L124.84 23.5573" stroke="#3E765E" stroke-width="2" stroke-linecap="round" />
  <defs>
    <clipPath id="clip0_3011_31586">
      <rect width="37.5764" height="14.8418" fill="white" transform="translate(122.055 5.12305)" />
    </clipPath>
    <clipPath id="clip1_3011_31586">
      <rect x="102.328" y="36.8867" width="24.5593" height="25.6333" fill="white" />
    </clipPath>
  </defs>
</svg>
