<svg fill="none" height="168" viewBox="0 0 241 168" width="241" xmlns="http://www.w3.org/2000/svg"><g fill="#ffe3cf"><path clip-rule="evenodd" d="m150.602 138.925 13.206 26.394c1.027.253 1.958.796 2.681 1.564.317.337.589.712.809 1.113h-11.587l-19.227-25.952 1.643-29.362 15.876 4.35z" fill-rule="evenodd"/><path clip-rule="evenodd" d="m205.578 138.925-13.205 26.394c-1.028.253-1.959.796-2.682 1.564-.317.337-.588.712-.808 1.113h11.586l19.227-25.952-1.642-29.362-15.877 4.35z" fill-rule="evenodd"/><path d="m183.579 74.6678c8.194 0 14.837-6.3777 14.837-14.245 0-7.8674-6.643-14.2451-14.837-14.2451s-14.837 6.3777-14.837 14.2451c0 7.8673 6.643 14.245 14.837 14.245z"/></g><path d="m168.877 60.4168s-1.591-2.3061-.979-4.7895c.366-1.41.51-2.8651.428-4.3165.685-2.1514 1.545-4.2471 2.571-6.2677 1.285-2.2469.673-3.193 4.713-3.9026 4.039-.7095 2.387-5.7946 13.037-.2956.359.4846.859.8556 1.436 1.0661.577.2104 1.206.251 1.808.1165 2.203-.4139 2.999 2.5426 2.999 2.5426s1.469-.8279 2.019.3547c.551 1.1826 4.479-.7097 4.479 7.2728s-4.47 15.1129-4.47 15.1129-3.138 9.5672-10.422 8.2073c-7.283-1.36-8.339-.5371-13.342-9.6673-1.024 2.8541-2.597-7.9814-4.277-5.4337z" fill="#000"/><path d="m148.961 92.3029 23.152-12.7209 19.649 1.0456 23.47 13.8508-9.782 60.9096s5.607 6.25-11.339 4.415-44.336-3.324-44.336-3.324-2.203-4.358 2.502-4.97.771-.469.771-.469-2.844-9.102 0-10.877l1.375-18.695z" fill="#3e765e"/><path d="m154.832 93.2872-6.322-.9356-13.393 23.8324 21.761 9.57z" fill="#3e765e"/><path d="m207.797 97.4076 7.696-3.0912 7.654 33.5346-20.772 3.797z" fill="#3e765e"/><path clip-rule="evenodd" d="m150.138 159.987 1.674-6.522 47.63 3.262.978 8.3c.996.237 1.733 1.283 2.252 2.971h-57.664c2.701-6.846 5.13-8.011 5.13-8.011z" fill="#000" fill-rule="evenodd"/><path d="m213.539 32.9365c4.456-.6094 25.546 1.8283 26.438 10.0556.891 8.2274-27.404.8253-25.325-4.3548 1.381-3.4394 19.606.6094 19.012 5.4849-.594 4.8754-17.5 9.4462-16.338 3.9613.839-3.9613 16.412 3.6566 4.456 8.2273" stroke="#000"/><g fill="#3e765e"><path d="m33.0427 80.7126c-3.8328 0-7.6633.0046-11.4961 0-1.2621 0-1.9615-.4448-2.339-1.4789-.088-.2431-.1181-.5205-.1204-.7819-.0116-1.5065-.0301-3.013-.0023-4.5172.0254-1.4927.8661-2.2975 2.3923-2.3388.6924-.0183 1.3872.0229 2.0796-.016.2826-.0161.6021-.1193.8268-.2844 1.0908-.814 2.1491-1.6715 3.233-2.4947 1.6025-1.2176 3.446-1.7633 5.44-1.7771 3.754-.0229 7.5104-.0137 11.2644-.0045.9982.0023 1.8342.3668 2.2279 1.3276.3636.8874.2686 1.761-.4007 2.5085-.4817.5388-1.1208.7039-1.8202.7039-1.8296 0-3.6591-.0046-5.4887.0023-.7063.0023-1.1116.2706-1.2552.7888-.2246.8025.2409 1.5065 1.0792 1.5156 2.8509.0253 5.6994.0184 8.5502 0 .2201 0 .4586-.1673.6531-.3095 2.654-1.9284 5.2988-3.8682 7.9481-5.7989 1.4289-1.041 2.8347-.9952 3.9602.1215s1.1927 2.8731 0 3.9279c-1.114.9882-2.3599 1.832-3.5665 2.7148-2.0889 1.5294-4.1755 3.0611-6.2922 4.5561-1.7068 1.2038-3.6614 1.6372-5.7295 1.6395-3.717.0046-7.434 0-11.151 0z"/><path d="m37.5612 55.6567c-1.202-.1513-2.3483-.1834-3.4345-.4563-4.1755-1.0479-6.8017-3.6825-7.8392-7.8281-.1737-.6948-.2224-1.4286-.2617-2.1485-.0348-.6306.3219-1.0617.9518-1.0709 2.4965-.0389 5.0185-.2201 7.4247.665 4.0296 1.4835 6.5215 4.3199 7.4317 8.4817.1713.7773.2593 1.5844.2732 2.3778.0371 2.192.0325 4.3841.007 6.5762-.0185 1.6922-1.1881 2.6781-2.7605 2.3892-1.0098-.1857-1.7416-.9515-1.7601-1.9719-.0371-2.1348-.0255-4.2695-.0324-6.4043 0-.2224 0-.4471 0-.6122z"/><path d="m41.4633 46.9976c1.6025-1.3941 3.3742-2.3686 5.4168-2.6094 1.9013-.2247 3.8374-.204 5.7573-.2453.6646-.0138 1.0468.4356 1.0305 1.1258-.0625 2.6782-.9634 5.0285-2.8554 6.9752-1.6698 1.7174-3.7054 2.7562-6.07 3.1712-.0532.0092-.1111-.0069-.264-.0161-.1273-3.084-1.0398-5.9227-3.0176-8.4014z"/><path d="m107.602 39.4379c1.258 0 2.517-.0063 3.775.0032.875.0063 1.466.4021 1.383.9625-.107.7124-.685.8929-1.383.8897-1.258-.0063-2.517 0-3.775 0l.031.0317v-1.9188z"/><path d="m107.603 41.2988c.007 1.181.007 2.362.017 3.5431.007.6364-.283 1.143-.995 1.1493-.723.0063-1-.5224-1.01-1.143-.021-1.181-.031-2.3589-.045-3.5399l-.031.0222h2.095z"/><path d="m105.575 39.4329c.013-1.1272.024-2.2544.044-3.3816.014-.8169.415-1.333 1.013-1.3266.606.0063.989.5066.993 1.333 0 1.1271-.011 2.2543-.014 3.3847l.031-.0317c-.698 0-1.397 0-2.095 0l.031.0222z"/><path d="m105.571 41.3036c-1.231-.0032-2.465-.0159-3.696-.0064-.705.0032-1.276-.1773-1.383-.8897-.083-.5636.508-.9562 1.383-.9625 1.231-.0095 2.465-.0095 3.696-.0127l-.031-.0221v1.9187l.031-.0222z"/><path d="m70.6094 64.3074c0-4.9106 0-9.8212.0026-14.7318 0-.5348.0264-1.0722.0527-1.607.0079-.1449.0606-.2871.0922-.432.1449-.6639.3872-1.2856.7902-1.8389.4979-.6849 1.109-1.2355 1.8386-1.6781.6243-.3793 1.2986-.5295 1.9993-.6112.4873-.0579.9799-.0948 1.4698-.0948 6.5353-.0053 13.0731-.0079 19.6084 0 .7955 0 1.5778.1501 2.3259.4241.7349.2661 1.3219.7429 1.8599 1.3041.442.461.793.9747 1.03 1.5622.324.7956.442 1.6333.442 2.4843.005 7.5213.008 15.0426-.002 22.5639 0 .8404-.156 1.665-.638 2.3868-.126.1897-.274.3688-.435.5322-2.4202 2.4395-4.841 4.8763-7.2644 7.3105-.8455.8483-1.6937 1.694-2.5577 2.5264-.5426.5243-1.2011.8641-1.9545.8905-1.3697.0448-2.7447.0395-4.1171.0421-3.074.0053-6.148.0027-9.222 0-.5242 0-1.0326-.0764-1.5436-.2397-.4768-.1528-.9272-.3346-1.3302-.6112-.3609-.2503-.6981-.5479-1.001-.8667-.943-.9958-1.4119-2.2077-1.4224-3.5697-.0237-3.1086-.0185-6.2172-.0237-9.3259 0-2.1391 0-4.2809 0-6.4201zm2.6341.0343v15.6669c0 .6534.1712 1.254.5821 1.7704.3187.4004.7297.677 1.217.8193.561.166 1.1405.166 1.7227.1633 2.9318-.0105 5.8635-.0052 8.7953-.0026.158 0 .3161.0053.4767 0 .2687-.0105.3319-.0764.3451-.3478.0027-.0711.0027-.1422.0027-.2133 0-2.7741.0052-5.5508 0-8.3249 0-.7192.129-1.3988.4267-2.0496.3977-.8693 1.0931-1.4304 1.9308-1.8362.1501-.0737.3134-.129.4768-.1686.727-.1817 1.4698-.1923 2.2152-.1923 2.5367.0027 5.0733.0053 7.61 0 .4741 0 .4768-.1053.4768-.4347 0-6.5571-.0001-13.1142-.0027-19.6713 0-.3978-.029-.7982-.0764-1.1934-.0421-.3635-.0474-.7429-.295-1.059-.1449-.1844-.2397-.4136-.4083-.5691-.216-.1976-.482-.3398-.7296-.4979-.0632-.0395-.1423-.0579-.216-.0737-.5664-.1054-1.138-.1239-1.7122-.1239-6.6511.0053-13.3022.0027-19.9534.0053-.158 0-.3187 0-.4741.0211-.4241.0632-.8377.1212-1.2196.3767-.3135.2108-.5795.4215-.7771.7535-.1396.2371-.2581.4557-.2844.7323-.0238.2424-.1186.4795-.1186.7219-.0079 5.2425-.0052 10.4877-.0052 15.7302zm15.7967 18.3198c.0237.0132.0501.0264.0738.0395.1554-.1159.3266-.2134.4636-.3477.8903-.8799 1.7754-1.7677 2.6604-2.6529 1.3303-1.3357 2.6579-2.6766 3.9907-4.0122.6533-.6534 1.3171-1.2962 1.9651-1.9548.3714-.3767.7296-.7692 1.0799-1.167.1344-.1528.0896-.2529-.1132-.2661-.2819-.0158-.5664-.0027-.8508-.0027-2.5551 0-5.1076 0-7.6627 0-.1791 0-.3608 0-.54.0053-.5584.0132-1.0931.5348-1.0799 1.1065.0105.4926-.0053.9853-.0053 1.4779v6.7968c0 .3267.0105.6507.0184.9774z"/><path d="m79.981 66.5565c-.8415.0307-1.4951-.8776-1.1966-1.6274.054-.133.1492-.2584.2496-.3633.7591-.7702 1.5234-1.5352 2.2903-2.2977 2.3906-2.3796 4.7812-4.7593 7.1719-7.1389 1.1142-1.1079 2.2311-2.2133 3.3453-3.3238.2856-.284.6099-.4401 1.0242-.4477.3448-.0077.5816.1765.7952.3863.3371.3327.4529.7472.2753 1.1975-.0746.1868-.1956.371-.3397.5143-1.0267 1.0389-2.0638 2.0649-3.0983 3.0961-1.6032 1.5941-3.2089 3.183-4.807 4.7771-1.5363 1.5301-3.0674 3.0679-4.6011 4.598-.1467.1459-.3062.2815-.4683.412-.193.1561-.4118.2456-.6408.2175z"/><path d="m77.3406 59.4062c-.4613-.0541-.8303-.2814-1.0827-.6765-.1655-.257-.3256-.5384-.2117-.8523.0814-.2273.1873-.4681.3501-.6386.7082-.7414 1.4355-1.4585 2.1627-2.1837 1.9321-1.9266 3.8615-3.8559 5.799-5.7771.1899-.1867.3989-.3761.6377-.4871.4423-.2056.871-.138 1.2591.184.293.2436.426.571.5454.9119.0108.0298.019.0704.0081.0974-.1085.3193-.1845.644-.4504.9038-.8874.8632-1.753 1.748-2.6295 2.622-1.0746 1.0743-2.1492 2.1458-3.2237 3.2201-.7571.7549-1.5115 1.5099-2.2686 2.2675-.2442.2436-.5319.3924-.8928.4086z"/></g><path d="m127.174 64.7454v-.0031c.011-.4669.017-.9346.017-1.4031v-.0002c.001-1.507-.053-2.9988-.16-4.4754v-.001c-.734-10.4978-4.122-20.6424-9.85-29.4958-.106-.162-.211-.3228-.315-.4811l-.001-.0008c-5.762-8.7605-13.634-15.9558-22.9023-20.93404-9.2687-4.97826-19.6416-7.582191-30.1795-7.575848h-.0002c-35.0223 0-63.40792 28.191988-63.40792 62.964188v.0006c-.017657 11.0404 2.90209 21.8896 8.46391 31.4495l.00028.0005c.36188.6241.73837 1.2441 1.12256 1.8579 3.08467 4.9013 6.83087 9.3593 11.13417 13.2513.6707.606 1.3541 1.198 2.0502 1.775h.0001c6.595 5.476 14.2433 9.563 22.4794 12.011 8.2362 2.447 16.8879 3.205 25.4284 2.226 8.5405-.978 16.7911-3.672 24.2496-7.917 7.4583-4.246 13.9683-9.954 19.1343-16.778l.002-.001c.123-.161.242-.316.356-.473l.003-.004c.056-.076.113-.152.169-.228.039-.052.078-.105.117-.158.238-.324.474-.6531.705-.9822v-.0005c.465-.6587.916-1.3252 1.352-1.9996v-.0003c.439-.6778.865-1.3634 1.277-2.0569.103-.1726.205-.3477.308-.524.203-.3475.403-.7002.601-1.0537.197-.3514.39-.708.578-1.0653l.001-.0008c.19-.3586.377-.718.56-1.0782.093-.1811.183-.3626.271-.5423l.001-.0018c.058-.116.114-.2309.171-.3478.03-.0619.06-.1244.092-.1879.025-.0533.05-.1061.076-.1599.026-.054.052-.109.079-.1646.077-.1609.152-.3246.229-.4918l.001-.0016c.347-.7445.679-1.4977.996-2.2596l.002-.0036c.08-.187.158-.3769.233-.5673l.002-.0035c.155-.3796.307-.7633.454-1.1509l.001-.0014c.074-.1935.142-.3783.219-.5799.072-.1951.143-.3872.211-.5813l.002-.0052c.071-.1919.139-.3868.206-.5804l.001-.0025c.068-.1954.135-.3912.202-.5891.066-.1952.131-.3909.195-.5902v-.0012c.065-.1969.129-.395.191-.5925v-.0019c.055-.1726.11-.3477.165-.5237.193-.6321.376-1.2674.55-1.9059.105-.3938.207-.7884.307-1.1838.253-1.0148.482-2.0383.687-3.0706l.368.073c.041-.2095.081-.4191.12-.631.038-.2095.077-.4191.112-.6286zm0 0c-.005.3034-.014.6075-.026.9128v.0044c-.001.0448-.003.0876-.004.1297-.001.0411-.003.0814-.005.122l-.001.0045c-.007.1688-.014.3353-.021.4994z" stroke="#000" stroke-width=".75"/></svg>