<svg fill="none" height="169" viewBox="0 0 240 169" width="240" xmlns="http://www.w3.org/2000/svg" xmlns:xlink="http://www.w3.org/1999/xlink"><clipPath id="a"><path d="m122.055 5.12305h37.5764v14.8418h-37.5764z"/></clipPath><clipPath id="b"><path d="m102.328 36.8867h24.5593v25.6333h-24.5593z"/></clipPath><g clip-path="url(#a)" fill="#3e765e"><path d="m129.811 19.9649c-1.101 0-2.14-.1752-3.086-.536-.947-.371-1.759-.8864-2.459-1.5563-.699-.67-1.244-1.4533-1.635-2.3603-.381-.907-.576-1.8964-.576-2.9683s.195-2.0717.576-2.9684c.391-.907.946-1.69032 1.635-2.36027.71-.66994 1.533-1.18528 2.479-1.53571.947-.37105 1.975-.55657 3.086-.55657 1.245 0 2.356.21644 3.354.65963 1.008.42258 1.851 1.0513 2.54 1.88615l-2.129 1.96861c-.494-.55657-1.039-.97915-1.635-1.24713-.597-.28859-1.255-.43289-1.965-.43289-.669 0-1.286.11338-1.841.32982-.556.21645-1.039.53596-1.451.94823-.411.41227-.73.89673-.967 1.45323-.216.5566-.329 1.1853-.329 1.8656 0 .6802.113 1.3089.329 1.8655.237.5566.556 1.041.967 1.4533.412.4122.895.7214 1.451.9482.555.2267 1.172.3298 1.841.3298.71 0 1.368-.134 1.965-.4123.596-.2886 1.141-.7214 1.635-1.2883l2.129 1.9686c-.679.8348-1.532 1.4739-2.54 1.9068-.998.4328-2.119.6596-3.374.6596z"/><path d="m144.624 19.964c-1.131 0-2.18-.1855-3.147-.5566-.957-.371-1.79-.8863-2.5-1.5563-.699-.6699-1.244-1.4533-1.635-2.3603-.381-.907-.576-1.8861-.576-2.958s.195-2.0511.576-2.95808c.391-.907.946-1.69031 1.656-2.36026.71-.66994 1.543-1.18528 2.499-1.55633.957-.37104 1.996-.55657 3.107-.55657s2.17.18553 3.106.55657c.957.37105 1.78.88639 2.479 1.55633.71.66995 1.266 1.45326 1.657 2.36026.39.88638.596 1.87588.596 2.95808s-.195 2.0613-.596 2.9683c-.391.9071-.947 1.6904-1.657 2.3603-.699.6596-1.522 1.1647-2.479 1.5357-.946.3711-1.975.5566-3.086.5566zm-.02-2.8344c.638 0 1.224-.1133 1.759-.3298.545-.2164 1.018-.5359 1.43-.9482.411-.4123.72-.8967.946-1.4533.237-.5565.35-1.1853.35-1.8655 0-.6803-.113-1.309-.35-1.8656-.216-.5565-.535-1.04094-.946-1.45321-.391-.41228-.864-.72148-1.41-.94823-.545-.21645-1.141-.32982-1.779-.32982s-1.234.11337-1.78.32982c-.535.21644-.997.53595-1.409.94823-.411.41227-.73.89671-.967 1.45321-.216.5566-.329 1.1853-.329 1.8656 0 .6802.113 1.2883.329 1.8655.237.5566.545 1.041.947 1.4533.411.4123.884.7215 1.429.9482.546.2268 1.142.3298 1.78.3298z"/><path d="m154.66 19.2946v-.9895l2.541-2.4014c.195-.1856.35-.3402.442-.4845.093-.1443.155-.2783.185-.3916.042-.1237.052-.2268.052-.3298 0-.268-.093-.4639-.268-.5978-.175-.1443-.432-.2165-.781-.2165-.278 0-.535.0515-.772.1649-.236.1031-.432.268-.597.4948l-1.11-.7112c.246-.3814.596-.67 1.049-.8967.452-.2165.967-.3298 1.563-.3298.484 0 .916.0824 1.276.2473.37.1546.658.3814.854.67.205.2886.308.6287.308 1.0307 0 .2164-.031.4225-.082.639-.052.2061-.154.4226-.319.6596-.154.2371-.391.4947-.699.7833l-2.109 1.9893-.288-.5566h3.713v1.2471h-4.968z"/></g><path d="m180.519 15.376c-1.814 1.0189-4.74-3.011-5.403-1.0398s.943 9.9248 1.772 11.8323c.412.9482.994 1.8154 1.398 2.7668.404.9515.621 2.0455.264 3.0156-.622 1.6882-2.674 2.3749-3.691 3.8587-1.185 1.7282-.706 4.0558-.153 6.0766.478 1.7417.987 3.4992 1.906 5.0539.919 1.5548 2.304 2.9085 4.036 3.4229 2.204.6549 4.56-.1234 6.685-1.0022 2.043-.8448 4.064-1.8025 5.802-3.1693s3.187-3.181 3.795-5.3066c.762-2.6664.125-5.5843-1.194-8.0235s-3.271-4.4713-5.273-6.3898c-3.373-3.2312-6.962-6.2364-10.735-8.9888z" fill="#000"/><path d="m207.481 152.188-1.712 15.975-.078.731-19.366-.076-.103-.733-2.05-14.639z" fill="#ffe3cf"/><path d="m177.868 168.054c0 .241-.002.484-.005.73l-20.105-.078-.065-.733-1.24-13.896 20.789-2.52s.67 7.37.626 16.497z" fill="#ffe3cf"/><path d="m175.634 43.6751c3.193 4.0226 8.824 5.1882 13.368 2.7939 6.486-3.4178 15.342-7.3349 16.907-4.2049 2.52 5.0394 2.52 9.9301 2.52 9.9301l2.52 58.7318s1.26 23.715-14.49 21.621c-15.749-2.093-40.318 6.726-40.318 6.726l2.509-26.019 6.702-9.81 2.714-28.1439-4.681-22.6422 5.67-2.5197s.63-4.4095 2.52-4.4095 2.346-4.2359 4.008-2.1179c.017.0211.034.0426.051.0643z" fill="#3e765e"/><path d="m209.802 168.909-4.108-.017-19.367-.075-2.521-.01-.146-.733-3.896-19.667-.609 19.65-.022.73-1.266-.004-20.105-.078-1.441-.008-.005-.73-.085-13.889-.078-12.862-.012-1.945.002-.003 6.02-12.201 1.756-3.56.36-.731 3.516-7.127 31.818-4.405.487-.068 8.645-1.196.063 3.543.037 2.012.129 7.241.015.731.014.835.784 43.834z" fill="#000"/><path d="m185.039 41.8072c7.267 0 13.157-5.89 13.157-13.1556s-5.89-13.1555-13.157-13.1555c-7.266 0-13.156 5.8899-13.156 13.1555s5.89 13.1556 13.156 13.1556z" fill="#ffe3cf"/><path d="m199.877 49.2549c-3.071 4.3801-4.641 9.7919-4.392 15.1352-3.482-1.6864-5.832-5.2495-6.631-9.0343-.8-3.7847-.19-7.7587 1.095-11.4074.013-.0365.026-.0729.039-.1094 1.951-5.4765.138-11.5974-4.575-15.0018-3.179-2.2963-5.936-5.1773-8.052-8.4796-1.195-1.8643-2.211-4.2029-1.318-6.2293.822-1.8673 2.947-2.74 4.902-3.3239 4.464-1.33342 9.208-2.09215 13.79-1.24841 4.582.84371 8.993 3.47861 11.159 7.60371 2.165 4.125 1.598 9.7547-1.917 12.8127 1.109.3585 1.893 1.5335 1.799 2.6947-.094 1.1613-1.058 2.1946-2.21 2.3697.752-.0266 1.196.9631.928 1.6657s-.96 1.139-1.619 1.5006c-.939.5151-1.98 1.0538-1.984 2.4027-.002.5409.191 1.0659.506 1.5055.764 1.0653 1.997 1.545 3.184 1.9954-2.511.7394-4.512 2.9831-4.962 5.5611z" fill="#000"/><path d="m143.776 44.1675c-.359-3.7665 1.293-7.0048 3.69-7.2329 2.398-.2281 4.631 2.6402 4.99 6.4081.164 1.5031-.035 3.0237-.579 4.4344l1.32 15.9782-7.512.4594-.503-15.8004c-.802-1.283-1.284-2.7392-1.406-4.2468z" fill="#ffe3cf"/><path d="m184.701 51.7464s-12.273-7.2185-14.799-6.1357c-2.527 1.0828-14.799 19.4899-14.799 19.4899l-1.129-3.3591-8.617.8326s-5.053 23.4601 6.136 21.2946c11.19-2.1656 29.598-22.3773 29.598-22.3773z" fill="#3e765e"/><path d="m70.8438 90.531s6.9293-4.0621 8.7953-.2955c1.8661 3.7665 19.1057 48.7005 19.1057 48.7005l-11.1091 2.163z" fill="#3e765e"/><path d="m55.724 63.6881.3266.465c-1.2178.7029-1.3973 2.4764-.8263 3.7632.5711 1.2869 1.6763 2.2407 2.6324 3.2745.956 1.0338 1.8276 2.3142 1.739 3.72-.0995 1.581-1.3886 2.883-1.5682 4.4575-.2595 2.2925 1.8753 4.3039 1.7693 6.6094-.08 1.7605-1.434 3.175-2.7772 4.3169-1.0512.8954-2.1954 1.7951-2.9049 2.9501-.1946.3179-.3568.6575-.4758 1.0208-.5299 1.6394-.0303 3.4259.6424 5.0112.6705 1.5853 1.5249 3.1343 1.7347 4.8423.2076 1.709-.4369 3.681-2.0094 4.382 3.132-.268 6.1882-1.36 8.7816-3.136.2336-.16.4607-.325.6856-.493 3.6771-2.769 6.2596-6.7675 8.7449-10.6649.2055-.3201.4088-.6423.6143-.9624.5515-.8673 1.1052-1.7324 1.6589-2.5997 1.579-2.4785 3.1774-4.9939 4.0383-7.8011.7916-2.5889.9257-5.3248 1.2502-8.0132.1579-1.3171.3655-2.6299.4044-3.9557.0628-2.0395-.2855-4.0877-.9949-6.0017-.6943-1.8816-1.7369-3.6356-3.0801-5.128-1.3756-1.5291-3.0584-2.7727-4.9099-3.6681-1.7931-.8672-3.7441-1.4058-5.7318-1.555-.6662-.0497-1.3302-.0584-1.9943-.0281-2.6193.1081-5.2084.7699-7.726 1.5831-1.8515.8954-3.5343 2.139-4.9099 3.6681-1.3432 1.4924-2.3858 3.2464-3.0801 5.128 2.4139-1.289 5.2819-1.7324 7.9662-1.1852z" fill="#000"/><path d="m74.4927 87.3485-12.4193-4.87-.3145 4.87-10.8872 1.7044-5.1139 23.1321 4.6268 14.366 34.5794.974-1.2176-4.869s5.6009-6.331 2.1916-16.558l-.3786-2.603c-.9899-6.8052-5.0767-12.7679-11.0667-16.1465z" fill="#3e765e"/><path d="m67.5936 82.2616c6.0923 0 11.0311-4.9384 11.0311-11.0302s-4.9388-11.0302-11.0311-11.0302-11.0311 4.9384-11.0311 11.0302 4.9388 11.0302 11.0311 11.0302z" fill="#ffe3cf"/><path d="m46.765 70.875c.0389 1.3258.2466 2.6386.4045 3.9557.3244 2.6884.4585 5.4243 1.2502 8.0131.8608 2.8073 2.4593 5.3227 4.0382 7.8012.5537.8673 1.1075 1.7324 1.659 2.5997.2055.3201.4088.6423.6143.9624 2.4852 3.8974 5.0678 7.8959 8.7448 10.6649.225.168.4521.333.6857.493 2.5934 1.776 5.6496 2.868 8.7816 3.136-1.5725-.701-2.217-2.673-2.0094-4.382.2098-1.708 1.0642-3.257 1.7347-4.8423.6727-1.5853 1.1723-3.3718.6424-5.0112-.119-.3633-.2812-.7029-.4759-1.0208-.7094-1.155-1.8536-2.0546-2.9048-2.9501-1.3432-1.1419-2.6972-2.5564-2.7773-4.3169-.1059-2.3055-1.5789-1.5334-1.8385-3.8259-.1795-1.5745-2.2797-4.2586-2.3792-5.8395-.0887-1.4059.7743-4.8058 1.7303-5.8396.9561-1.0338.0779-4.12.6489-5.4069.5711-1.2869 6.8025-.2098 5.5848-.9127l.3266-.465c2.6842-.5472 5.5523-.1038 7.9662 1.1852.5256.279 1.0274.5969 1.5032.956 1.1485-2.098-.2141-4.7603-2.0678-6.2721-1.8147-1.4837-4.0512-2.3402-6.2704-3.095-.3828-.1297-.7678-.2595-1.155-.385-2.5177-.8132-5.1068-1.475-7.7261-1.5831-.664-.0303-1.328-.0216-1.9942.0281-1.9878.1492-3.9388.6878-5.7319 1.555-1.8515.8954-3.5342 2.139-4.9099 3.6681-1.3432 1.4924-2.3857 3.2464-3.08 5.128-.7095 1.9141-1.0577 3.9622-.995 6.0017z" fill="#000"/><path d="m239.319 159.051-15.376-32.305c-1.147-2.41-3.614-3.969-6.285-3.969h-194.2092c-.7379 0-1.4562.115-2.1333.334-1.7118.548-3.1681 1.746-4.0301 3.392l-16.481249 31.416c-1.139639 2.169-1.064135 4.721.202139 6.82 1.26383 2.102 3.4823 3.363 5.93452 3.373l149.37519.586 1.442.008 20.105.078 1.266.005 4.673.019 2.52.01 19.367.075 4.108.017 23.21.09h.029c2.396 0 4.59-1.207 5.876-3.231 1.291-2.033 1.442-4.546.407-6.718z" fill="#fff"/><path d="m239.319 159.051-15.376-32.305c-1.147-2.41-3.614-3.969-6.285-3.969h-194.2092c-.7379 0-1.4562.115-2.1333.334-1.7118.548-3.1681 1.746-4.0301 3.392l-16.481249 31.416c-1.139639 2.169-1.064135 4.721.202139 6.82 1.26383 2.102 3.4823 3.363 5.93452 3.373l149.37519.586 1.442.008 20.105.078 1.266.005 4.673.019 2.52.01 19.367.075 4.108.017 23.21.09h.029c2.396 0 4.59-1.207 5.876-3.231 1.291-2.033 1.442-4.546.407-6.718zm-1.023 6.326c-1.152 1.814-3.115 2.893-5.26 2.893h-.027l-23.226-.093-4.016-.014-19.547-.078-2.564-.01-4.505-.017-1.284-.005-20.175-.08-1.381-.005-149.36781-.587c-2.19403-.01-4.18116-1.137-5.31105-3.017-1.132386-1.88-1.200518-4.164-.1802-6.107l16.48116-31.413c.5942-1.133 1.5001-2.029 2.5838-2.606.8839-.472 1.8872-.73 2.9319-.73h194.2092c2.391 0 4.598 1.395 5.625 3.552l15.376 32.303c.928 1.948.791 4.195-.363 6.014z" fill="#000"/><path d="m69.0215 146.154 36.7715-13.393-18.386-7.394-36.6492 9.586z" fill="#e6ebe9"/><path d="m125.023 125.941-4.14 13.149 48.46 2.922-4.14-14.853z" fill="#e6ebe9"/><path d="m67.903 128.192c3.4072.338 5.9947 2.37 5.7793 4.538s-3.1518 3.651-6.5601 3.313c-1.3633-.117-2.679-.558-3.8368-1.287l-14.4182-1.614.9016-6.749 14.1181 2.307c1.2789-.488 2.6561-.662 4.0161-.508z" fill="#ffe3cf"/><path d="m53.4369 90.3939-2.5569-1.3392s-4.018.1217-6.6967 2.8002-24.3516 33.3591-24.3516 33.3591-5.3574 8.279 8.036 9.496c13.3934 1.218 28.2479 1.218 28.2479 1.218l1.2176-9.984-20.2119-2.191 14.1537-18.749z" fill="#3e765e"/><path d="m196.014 123.259c-2.891 2.147-6.342 2.395-7.708.555s-.129-5.07 2.763-7.217c1.143-.874 2.479-1.46 3.896-1.712l12.363-8.94 4.072 5.891-12.62 8.188c-.65 1.284-1.599 2.393-2.766 3.235z" fill="#ffe3cf"/><path d="m203.802 50.4551s9.973.3149 11.863 7.2442c1.89 6.9292 5.67 21.6985 5.04 42.2053 0 0 3.15 13.2284-5.04 12.5984l-11.34 5.04-7.559-10.079 6.299-7.5594z" fill="#3e765e"/><g clip-path="url(#b)"><path d="m126.887 38.4888c0 5.6874-4.058 10.3885-9.315 11.1144-.34-2.6734-1.468-5.0866-3.132-6.974 1.837-3.4245 5.348-5.7425 9.378-5.7425h1.535c.849 0 1.534.7159 1.534 1.6021zm-24.559 3.2042c0-.8862.686-1.6021 1.535-1.6021h1.535c5.934 0 10.745 5.0215 10.745 11.2146v1.602 8.0104c0 .8862-.686 1.6021-1.535 1.6021s-1.535-.7159-1.535-1.6021v-8.0104c-5.934 0-10.745-5.0215-10.745-11.2145z" fill="#3e765e"/></g><g stroke="#3e765e" stroke-linecap="round" stroke-width="2"><path d="m124.836 1 31.722 24.608"/><path d="m156.562 1-31.722 22.5573"/></g></svg>