<svg height="700pt" preserveAspectRatio="xMidYMid meet" viewBox="0 0 700 700" width="700pt" xmlns="http://www.w3.org/2000/svg"><g transform="matrix(.1 0 0 -.1 0 700)"><path d="m5215 6109c-38-4-97-12-130-19-33-6-73-14-90-17-63-11-223-67-300-105-225-112-387-278-445-456-13-37-38-107-57-157-95-246-112-478-48-655 99-275 382-551 691-675 168-67 227-79 389-79 287 2 493 49 644 150 93 63 206 194 279 325 200 355 199 893-1 1192-66 99-201 241-287 304-204 148-422 212-645 192z"/><path d="m2809 5386c-2-2-29-7-59-11-96-11-174-38-206-69-21-21-43-73-48-112-5-36 12-83 39-110 7-7 88-42 180-79 189-74 277-117 385-189 277-184 416-355 489-601 65-219 59-622-11-782-59-136-187-281-331-377-86-57-280-156-307-156-9 0-20-4-25-9-6-5-59-22-120-37-90-22-133-27-240-28-152-1-201 5-319 39-320 93-628 322-917 681-76 94-103 150-125 259-6 29-5 155 1 190 3 17 8 44 11 60 29 161 117 317 255 453 62 60 158 133 209 159 19 10 46 25 60 34 64 42 339 132 465 152 115 19 166 26 210 31 113 12 212 20 238 19s27 1 14 21c-8 11-25 26-38 33-121 61-244 115-294 129-81 21-271 29-375 15-128-17-140-20-236-46-49-14-96-27-104-29-59-15-284-103-329-129-203-114-384-294-470-465-28-56-61-178-77-282-3-19-7-41-10-49-11-34-19-135-19-251 1-185 35-271 184-465 75-99 90-115 226-251 186-186 382-339 624-483 268-162 572-242 925-244 238-1 328 10 481 60 200 66 405 183 625 358 178 142 227 200 302 363 84 182 120 417 97 642-7 69-10 89-23 160-3 14-8 42-11 63-31 221-126 476-242 656-132 203-348 413-488 476-27 13-89 41-137 64-96 44-190 83-233 97-120 38-211 54-226 40z"/><path d="m4735 1827c-134-35-226-122-276-262-31-88-35-269-8-368 56-203 192-308 400-308 222-1 357 96 419 302 23 73 24 255 4 334-35 134-125 245-231 285-71 28-232 36-308 17zm225-168c116-57 163-194 135-394-18-124-112-216-222-217-163 0-255 111-255 308 0 158 59 274 157 309 52 19 141 16 185-6z"/><path d="m5580 1831c-177-57-259-263-165-411 60-95 145-140 255-135 244 9 353 302 179 476-21 21-56 46-76 55-43 18-156 27-193 15zm175-50c92-41 140-119 140-227 0-65-3-76-34-121-40-59-86-92-148-108-154-39-307 87-298 247 11 174 181 279 340 209z"/><path d="m5536 1710c-3-8-4-81-3-162 1-143 2-147 21-144s21 10 21 70v66h62c70 0 93-15 93-61 0-39 0-41 11-61 12-21 51-20 44 2-3 8-7 38-11 65-3 28-12 57-19 65-11 13-10 19 6 39 26 32 24 77-6 106-13 14-32 25-42 26-113 7-173 3-177-11zm191-46c24-33-6-83-51-85-12 0-31-2-42-3-12-1-30 1-41 5-19 7-22 28-14 101 1 5 31 6 68 4 50-2 70-8 80-22z"/><path d="m1434 1811c-2-2 5-18 15-35s34-60 54-96c29-55 123-225 213-388 23-40 24-52 24-212v-170h94 93v174c-1 108 3 180 10 188 6 7 41 72 78 143 37 72 75 144 85 160 9 17 42 77 73 135l55 105-99-1c-54-1-103-2-108-3-7-1-32-52-153-320-16-35-32-60-37-55-4 5-46 92-95 194l-87 186-105-1c-58 0-107-2-110-4z"/><path d="m2489 1790c-1-14-1-156-1-317 0-371 12-428 104-507 65-56 140-75 273-72 197 5 288 68 331 228 8 33 13 148 13 370l2 323h-90c-49 0-93-3-96-7-4-4-7-143-7-310-1-339-6-381-58-418-58-41-176-39-229 5-47 40-53 89-53 425 0 165-3 301-6 301-4 1-46 2-94 3-88 2-88 2-89-24z"/><path d="m3561 1806c-4-6-7-209-7-451l1-440 93-3 92-3 1 48c0 26 0 99-1 161-1 85 2 112 12 113 7 1 60 3 118 4 135 3 183 11 240 40 51 26 59 33 87 85 28 49 34 82 34 169 0 134-49 216-155 262-47 20-68 22-279 23-150 2-230-2-236-8zm436-171c52-31 66-133 27-193-24-37-69-50-179-51l-102-2-2 126c-1 70 1 130 4 135s54 8 113 7c84-2 114-7 139-22z"/></g></svg>