<svg fill="none" height="48" viewBox="0 0 48 48" width="48" xmlns="http://www.w3.org/2000/svg"><g clip-rule="evenodd" fill="#000" fill-rule="evenodd"><path d="m24 .96c-12.7246-.000001-23.039999 10.3154-23.04 23.04s10.3154 23.04 23.04 23.04 23.04-10.3154 23.04-23.04-10.3154-23.039999-23.04-23.04zm0-.96c-13.2548-.00000116-23.99999884 10.7452-24 24s10.7452 24 24 24 24-10.7452 24-24-10.7452-23.99999884-24-24z"/><path d="m27.5782 15.0205c.1874.1875.1874.4914 0 .6789l-8.6606 8.6605 8.6606 8.6606c.1874.1875.1874.4914 0 .6789-.1875.1874-.4914.1874-.6789 0l-9-9c-.09-.0901-.1406-.2122-.1406-.3395s.0506-.2494.1406-.3394l9-9c.1875-.1874.4914-.1874.6789 0z"/></g></svg>